<?xml version="1.0" standalone="no"?>
<!DOCTYPE svg PUBLIC "-//W3C//DTD SVG 1.1//EN" "http://www.w3.org/Graphics/SVG/1.1/DTD/svg11.dtd" >
<svg xmlns="http://www.w3.org/2000/svg" xmlns:xlink="http://www.w3.org/1999/xlink" version="1.1">
<metadata>
Created by FontForge 20201107 at Fri Feb 16 11:13:01 2024
 By 
Copyright (c) 2018. Netflix, Inc. and its affiliates. All rights reserved. 
</metadata>
<defs>
<font id="NetflixSans-Regular" horiz-adv-x="1253" >
  <font-face 
    font-family="Netflix Sans"
    font-weight="400"
    font-stretch="normal"
    units-per-em="2048"
    panose-1="2 11 6 3 2 2 2 2 2 4"
    ascent="1638"
    descent="-410"
    x-height="1049"
    cap-height="1425"
    bbox="-494 -684 3578 2107"
    underline-thickness="163"
    underline-position="-795"
    unicode-range="U+000D-FFFD"
  />
<missing-glyph horiz-adv-x="1024" 
d="M922 0h-820v1536h820v-1536zM819 102v1332h-614v-1332h614z" />
    <glyph glyph-name=".notdef" horiz-adv-x="1024" 
d="M922 0h-820v1536h820v-1536zM819 102v1332h-614v-1332h614z" />
    <glyph glyph-name="glyph1" horiz-adv-x="0" 
 />
    <glyph glyph-name="glyph1" horiz-adv-x="0" 
 />
    <glyph glyph-name="uni000D" unicode="&#xd;" horiz-adv-x="477" 
 />
    <glyph glyph-name="space" unicode=" " horiz-adv-x="477" 
 />
    <glyph glyph-name="exclam" unicode="!" horiz-adv-x="571" 
d="M201 403l-13 1022h197l-12 -1022h-172zM287 -25q-55 0 -96 39q-39 38 -39 97q0 58 39 96q41 39 96 39t95 -39t40 -96q0 -58 -40 -97t-95 -39z" />
    <glyph glyph-name="quotedbl" unicode="&#x22;" horiz-adv-x="802" 
d="M135 963l-8 522h180l-8 -522h-164zM504 963l-8 522h180l-8 -522h-164z" />
    <glyph glyph-name="numbersign" unicode="#" 
d="M168 0l65 369h-159v151h186l68 379h-238v152h264l66 368h162l-66 -368h344l66 368h159l-65 -368h160v-152h-187l-67 -379h237v-151h-264l-65 -369h-162l65 369h-344l-65 -369h-160zM420 520h344l70 379h-345z" />
    <glyph glyph-name="dollar" unicode="$" 
d="M557 -221v205q-185 21 -302 120q-118 100 -153 263h183q24 -85 93 -142t179 -75v503l-61 11q-190 33 -284 130q-95 98 -95 248q0 118 58 204q59 87 159 138q102 52 223 62v215h143v-219q161 -18 277 -108q113 -88 151 -251h-182q-24 90 -88 136q-63 45 -158 57v-469
l43 -8q193 -35 300 -133q108 -99 108 -265q0 -181 -123 -295t-328 -126v-201h-143zM305 1053q0 -57 21 -97q22 -42 74 -71q53 -30 157 -51v446q-114 -12 -183 -72t-69 -155zM963 393q0 90 -60 147t-203 87v-482q124 12 193 77q70 65 70 171z" />
    <glyph glyph-name="percent" unicode="%" horiz-adv-x="1925" 
d="M481 725q-101 0 -183 49q-82 50 -132 132q-49 82 -49 184q0 101 49 183q50 83 132 132t183 49q103 0 185 -49q81 -49 131 -132q49 -82 49 -183q0 -102 -49 -184q-50 -83 -131 -132q-82 -49 -185 -49zM381 0l971 1425h192l-971 -1425h-192zM481 887q85 0 144 58t59 145
q0 86 -59 144t-144 58q-83 0 -142 -58q-60 -58 -60 -144q0 -87 60 -145q59 -58 142 -58zM1444 -29q-101 0 -183 49q-83 50 -133 133q-49 82 -49 183t49 183t133 132q82 49 183 49q102 0 184 -49q81 -49 131 -132q49 -82 49 -183t-49 -183q-51 -85 -131 -133
q-82 -49 -184 -49zM1444 133q84 0 143 58q60 58 60 145q0 86 -60 144q-61 59 -143 59q-81 0 -142 -59t-61 -144q0 -86 61 -145q59 -58 142 -58z" />
    <glyph glyph-name="ampersand" unicode="&#x26;" horiz-adv-x="1503" 
d="M602 -31q-148 0 -256 55q-106 54 -163 147q-56 91 -56 206q0 139 78 244t213 174q-83 89 -121 161q-39 74 -39 164q0 93 50 172q49 76 139 124q88 46 204 46q119 0 206 -45t135 -121t48 -168q0 -130 -90 -218q-91 -89 -252 -152l334 -340l187 252h211l-281 -373l291 -297
h-244l-162 164q-89 -89 -195 -142t-237 -53zM446 1114q0 -67 35 -117q30 -44 113 -131q132 51 197 109q63 57 63 141q0 78 -54 129t-145 51q-92 0 -150 -52q-59 -53 -59 -130zM319 395q0 -104 77 -179t220 -75q169 0 306 140l-398 405q-97 -50 -151 -124t-54 -167z" />
    <glyph glyph-name="quotesingle" unicode="'" horiz-adv-x="434" 
d="M135 963l-8 522h180l-8 -522h-164z" />
    <glyph glyph-name="parenleft" unicode="(" horiz-adv-x="624" 
d="M383 -328q-137 214 -197 448q-59 230 -59 470q0 241 59 470q59 230 197 445h184q-134 -228 -193 -457q-59 -230 -59 -458t59 -459t193 -459h-184z" />
    <glyph glyph-name="parenright" unicode=")" horiz-adv-x="624" 
d="M242 -328h-185q136 231 194 459t58 459q0 232 -58 458t-194 457h185q138 -211 197 -445t59 -470q0 -234 -59 -470q-60 -238 -197 -448z" />
    <glyph glyph-name="asterisk" unicode="*" horiz-adv-x="978" 
d="M199 922l186 227l-285 74l50 151l276 -108l-18 297h161l-18 -297l276 108l50 -151l-287 -74l188 -227l-129 -95l-162 248l-159 -248z" />
    <glyph glyph-name="plus" unicode="+" 
d="M545 195v411h-387v160h387v412h166v-412h387v-160h-387v-411h-166z" />
    <glyph glyph-name="comma" unicode="," horiz-adv-x="557" 
d="M63 -350q80 120 123 196q46 81 62 146q-51 6 -81 39t-30 78q0 51 36 88q35 36 97 36q65 0 103 -39q39 -41 39 -112q0 -90 -46 -195t-137 -237h-166z" />
    <glyph glyph-name="hyphen" unicode="-" horiz-adv-x="991" 
d="M168 512v162h655v-162h-655z" />
    <glyph glyph-name="period" unicode="." horiz-adv-x="557" 
d="M279 -25q-55 0 -96 39q-40 39 -40 97q0 57 40 96q41 39 96 39t95 -39t40 -96q0 -58 -40 -97t-95 -39z" />
    <glyph glyph-name="slash" unicode="/" horiz-adv-x="819" 
d="M25 -328l585 1833h185l-586 -1833h-184z" />
    <glyph glyph-name="zero" unicode="0" 
d="M627 -31q-166 0 -291 92t-195 260q-69 167 -69 392t69 392q69 166 195 259q125 92 291 92t291 -92t194 -259q70 -169 70 -392t-70 -392t-194 -260q-125 -92 -291 -92zM627 143q107 0 189 70q80 68 126 198q45 127 45 302t-45 303q-45 127 -126 196q-82 70 -189 70
q-108 0 -190 -70q-81 -69 -126 -196q-45 -128 -45 -303t45 -302q46 -130 126 -198q82 -70 190 -70z" />
    <glyph glyph-name="one" unicode="1" 
d="M623 0v1223l-363 -123v176l553 176v-1452h-190z" />
    <glyph glyph-name="two" unicode="2" 
d="M117 0v154l569 512q87 80 135 136q49 58 70 110q20 50 20 112q0 109 -78 183q-80 75 -215 75q-129 0 -209 -65q-81 -66 -102 -170h-192q21 119 88 210q70 95 175 146q109 53 245 53q144 0 251 -55q108 -56 170 -152q62 -97 62 -223q0 -85 -31 -163q-29 -72 -95 -149
q-63 -73 -167 -165l-422 -377h733v-172h-1007z" />
    <glyph glyph-name="three" unicode="3" 
d="M629 -31q-219 0 -357 100t-178 271h195q33 -94 121 -145q90 -52 217 -52q76 0 151 28q72 27 116 86t44 146q0 116 -87 176t-230 60h-172v172h167q128 0 205 61q78 62 78 170q0 121 -85 181q-84 59 -204 59q-117 0 -199 -53q-81 -53 -110 -142h-192q44 166 175 267
q132 102 332 102q131 0 239 -48q107 -48 172 -138q65 -91 65 -219q0 -115 -63 -197q-62 -81 -171 -119q132 -38 203 -127q72 -90 72 -215q0 -134 -70 -230q-70 -95 -184 -145q-113 -49 -250 -49z" />
    <glyph glyph-name="four" unicode="4" 
d="M780 0v352h-721v146l732 927h180v-907h223v-166h-223v-352h-191zM268 518h512v649z" />
    <glyph glyph-name="five" unicode="5" 
d="M645 -31q-194 0 -327 88q-135 89 -187 246h203q38 -80 118 -120t181 -40q86 0 159 38q71 37 116 108q44 70 44 164q0 145 -90 221q-89 76 -231 76q-84 0 -171 -38q-84 -37 -143 -108h-172l80 821h826v-172h-672l-45 -481q63 73 144 111q87 41 196 41q139 0 246 -59
q106 -58 166 -163q61 -107 61 -245q0 -149 -69 -259t-182 -169q-114 -60 -251 -60z" />
    <glyph glyph-name="six" unicode="6" 
d="M668 -31q-165 0 -293 80t-200 247q-73 169 -73 425q0 228 71 393q71 164 199 253t300 89q182 0 300 -85t175 -243h-199q-39 79 -108 116q-70 38 -166 38q-180 0 -282 -142q-101 -141 -101 -421v-23q56 107 159 173q105 67 242 67q135 0 243 -63q109 -64 171 -168
q63 -107 63 -242q0 -149 -68 -258q-69 -110 -182 -173q-114 -63 -251 -63zM653 143q92 0 166 41q73 40 116 112q42 70 42 159q0 88 -42 157q-43 71 -116 111q-74 41 -166 41q-90 0 -163 -41q-70 -39 -115 -111q-43 -68 -43 -157t43 -159q44 -72 117 -112q74 -41 161 -41z
" />
    <glyph glyph-name="seven" unicode="7" 
d="M1120 1425v-151l-565 -1274h-205l565 1253h-786v172h991z" />
    <glyph glyph-name="eight" unicode="8" 
d="M627 -31q-150 0 -270 46t-195 139q-74 92 -74 227q0 128 82 222q83 95 217 134q-116 39 -183 125q-67 87 -67 203q0 114 65 203t175 138q112 50 250 50t250 -50q110 -49 175 -138q64 -88 64 -203q0 -117 -66 -203t-184 -125q134 -39 217 -134q82 -94 82 -222
q0 -135 -73 -226q-74 -92 -196 -139q-123 -47 -269 -47zM627 809q80 0 150 29q68 28 111 83q42 54 42 132q0 107 -88 171t-215 64t-215 -64t-88 -171q0 -78 42 -132q43 -55 111 -83q70 -29 150 -29zM627 141q87 0 169 28q78 27 128 84q49 56 49 142q0 84 -49 140
q-50 58 -128 87q-77 29 -169 29t-169 -29q-78 -29 -128 -87q-49 -56 -49 -140q0 -86 49 -142q50 -57 128 -84q82 -28 169 -28z" />
    <glyph glyph-name="nine" unicode="9" 
d="M586 1456q168 0 295 -79t198 -244q72 -166 72 -424q0 -353 -142 -546q-143 -194 -407 -194q-176 0 -309 84t-189 244h199q39 -79 119 -117q78 -37 172 -37q181 0 276 143t95 421v24q-56 -107 -160 -174q-106 -68 -244 -68q-135 0 -243 63q-109 64 -171 170
q-63 108 -63 241q0 144 68 256q67 111 182 174q114 63 252 63zM602 1282q-93 0 -166 -40q-74 -41 -117 -110q-43 -70 -43 -161q0 -90 43 -158q45 -71 117 -111q73 -40 166 -40q91 0 162 40q70 39 115 111q43 68 43 158q0 91 -43 159q-45 71 -116 111q-73 41 -161 41z" />
    <glyph glyph-name="colon" unicode=":" horiz-adv-x="557" 
d="M279 -25q-55 0 -96 39q-40 39 -40 97q0 57 40 96q41 39 96 39t95 -39t40 -96q0 -58 -40 -97t-95 -39zM279 809q-55 0 -96 39q-40 39 -40 96t40 96q41 39 96 39t95 -39t40 -96t-40 -96t-95 -39z" />
    <glyph glyph-name="semicolon" unicode=";" horiz-adv-x="557" 
d="M63 -350q80 120 123 196q46 81 62 146q-51 6 -81 39t-30 78q0 51 36 88q35 36 97 36q65 0 103 -39q39 -41 39 -112q0 -90 -46 -195t-137 -237h-166zM279 809q-55 0 -96 39q-40 39 -40 96t40 96q41 39 96 39t95 -39t40 -96t-40 -96t-95 -39z" />
    <glyph glyph-name="less" unicode="&#x3c;" 
d="M1090 170l-953 436v160l953 436v-172l-764 -344l764 -344v-172z" />
    <glyph glyph-name="equal" unicode="=" 
d="M158 838v159h938v-159h-938zM158 375v160h938v-160h-938z" />
    <glyph glyph-name="greater" unicode="&#x3e;" 
d="M164 170v172l764 344l-764 344v172l952 -436v-160z" />
    <glyph glyph-name="question" unicode="?" horiz-adv-x="1185" 
d="M467 403v86q0 73 17 127q18 58 65 111q48 54 137 109q75 45 118 83q39 34 54 71q14 34 14 81q0 87 -74 148t-204 61q-132 0 -213 -59t-98 -156h-191q18 109 83 199q63 87 173 140q107 52 254 52q144 0 247 -51q104 -51 161 -138t57 -196q0 -107 -57 -189t-189 -161
q-72 -42 -112 -84q-37 -38 -49 -77q-11 -34 -11 -81v-76h-182zM571 -25q-55 0 -95 39t-40 97q0 57 40 96t95 39t96 -39q40 -39 40 -96q0 -58 -40 -97q-41 -39 -96 -39z" />
    <glyph glyph-name="at" unicode="@" horiz-adv-x="2172" 
d="M1008 -440q-175 0 -327 56q-155 57 -274 163q-120 106 -189 260q-69 153 -69 348q0 205 71 391q70 184 205 326q133 140 327 222q192 81 436 81q173 0 326 -51t269 -152q115 -100 181 -246t66 -333q0 -209 -71 -354t-181 -218t-232 -73q-90 0 -154 47q-62 46 -79 120
q-62 -84 -146 -128q-85 -44 -180 -44q-109 0 -196 52t-136 145q-49 94 -49 221q0 154 64 285q62 127 172 208q107 79 241 79q103 0 180 -48q73 -45 111 -126l21 145h159l-90 -655q-2 -20 -2 -28v-30q0 -38 29 -64t72 -26q61 0 128 53q66 52 113 162q47 109 47 277
q0 205 -89 342q-90 138 -244 208q-155 70 -353 70q-261 0 -449 -111q-187 -111 -288 -307q-100 -194 -100 -442q0 -213 93 -361q93 -149 253 -226t356 -77q113 0 200 18q91 19 187 56v-166q-179 -69 -409 -69zM1014 141q103 0 172 60t105 151q36 92 36 191q0 121 -55 188
q-56 68 -164 68q-103 0 -175 -57q-74 -58 -112 -145q-39 -88 -39 -192q0 -125 63 -194q64 -70 169 -70z" />
    <glyph glyph-name="A" unicode="A" horiz-adv-x="1411" 
d="M1167 0l-149 383h-633l-147 -383h-201l569 1425h197l571 -1425h-207zM451 557h499l-250 647z" />
    <glyph glyph-name="B" unicode="B" horiz-adv-x="1409" 
d="M184 0v1425h580q235 0 362 -100t127 -276q0 -110 -61 -187q-62 -78 -170 -119q144 -39 213 -128q70 -90 70 -214q0 -183 -136 -292t-378 -109h-607zM741 1251h-362v-430h362q147 0 232 56q84 55 84 159q0 215 -316 215zM774 647h-395v-473h395q332 0 332 238
q0 112 -86 174q-85 61 -246 61z" />
    <glyph glyph-name="C" unicode="C" horiz-adv-x="1462" 
d="M100 713q0 220 85 386q86 168 237 262q152 95 346 95q252 0 402 -126q151 -127 202 -341h-203q-34 132 -137 211q-102 78 -264 78q-138 0 -244 -69q-107 -69 -166 -195q-59 -125 -59 -301q0 -174 59 -299q61 -129 166 -197q108 -70 244 -70q160 0 266 77q103 75 137 202
h201q-50 -208 -201 -332q-152 -125 -403 -125q-192 0 -346 96q-151 94 -237 263q-85 167 -85 385z" />
    <glyph glyph-name="D" unicode="D" horiz-adv-x="1499" 
d="M184 0v1425h514q199 0 358 -87q160 -87 251 -246q92 -160 92 -379q0 -217 -92 -378t-251 -248t-358 -87h-514zM379 174h307q142 0 259 64t185 184q70 123 70 291q0 170 -70 292q-69 120 -185 183q-115 63 -259 63h-307v-1077z" />
    <glyph glyph-name="E" unicode="E" horiz-adv-x="1312" 
d="M184 0v1425h990v-174h-795v-432h772v-174h-772v-471h805v-174h-1000z" />
    <glyph glyph-name="F" unicode="F" horiz-adv-x="1259" 
d="M184 0v1425h963v-174h-768v-467h743v-174h-743v-610h-195z" />
    <glyph glyph-name="G" unicode="G" horiz-adv-x="1536" 
d="M793 -31q-204 0 -362 97q-157 97 -244 264q-87 168 -87 383q0 218 88 385q89 168 245 263q157 95 358 95q226 0 385 -105t225 -294h-205q-45 98 -152 160q-106 61 -253 61q-141 0 -254 -70q-111 -69 -174 -195q-64 -128 -64 -300q0 -173 62 -298q64 -129 175 -198
q113 -70 261 -70q127 0 228 55q99 54 156 148q56 93 56 215v37h-446v174h641v-178q0 -180 -80 -323q-78 -141 -224 -224q-143 -82 -335 -82z" />
    <glyph glyph-name="H" unicode="H" horiz-adv-x="1570" 
d="M184 0v1425h195v-589h813v589h194v-1425h-194v662h-813v-662h-195z" />
    <glyph glyph-name="I" unicode="I" horiz-adv-x="563" 
d="M379 0h-195v1425h195v-1425z" />
    <glyph glyph-name="J" unicode="J" horiz-adv-x="1239" 
d="M881 444v981h194v-983q0 -140 -59 -245q-61 -108 -169 -167q-111 -61 -263 -61q-224 0 -363 123t-162 324h195q17 -126 104 -197q88 -72 226 -72q133 0 215 82t82 215z" />
    <glyph glyph-name="K" unicode="K" horiz-adv-x="1351" 
d="M184 0v1425h195v-612l665 612h250l-751 -686l786 -739h-266l-684 643v-643h-195z" />
    <glyph glyph-name="L" unicode="L" horiz-adv-x="1232" 
d="M1151 174v-174h-967v1425h195v-1251h772z" />
    <glyph glyph-name="M" unicode="M" horiz-adv-x="1818" 
d="M375 0h-191v1425h213l516 -829l508 829h213v-1425h-192v1133l-533 -867l-534 862v-1128z" />
    <glyph glyph-name="N" unicode="N" horiz-adv-x="1566" 
d="M184 0v1425h193l813 -1118v1118h192v-1425h-192l-813 1118v-1118h-193z" />
    <glyph glyph-name="O" unicode="O" horiz-adv-x="1609" 
d="M805 -31q-153 0 -283 56t-223 155q-92 98 -146 236q-53 136 -53 297t53 297t146 235q95 101 223 156t283 55q154 0 282 -55q130 -56 224 -156q93 -99 146 -235q52 -134 52 -297t-52 -297q-54 -138 -146 -236q-93 -98 -224 -155q-130 -56 -282 -56zM805 147q148 0 262 72
t179 200t65 294t-65 294q-64 126 -179 199q-114 72 -262 72q-147 0 -261 -72q-113 -71 -179 -199q-66 -127 -66 -294t66 -294q67 -129 179 -200q114 -72 261 -72z" />
    <glyph glyph-name="P" unicode="P" horiz-adv-x="1349" 
d="M184 0v1425h525q276 0 415 -123q142 -125 142 -331q0 -207 -142 -332t-415 -125h-330v-514h-195zM379 688h303q195 0 290 74t95 209q0 133 -95 207q-94 73 -290 73h-303v-563z" />
    <glyph glyph-name="Q" unicode="Q" horiz-adv-x="1609" 
d="M805 -31q-153 0 -283 56t-223 155q-92 98 -146 236q-53 136 -53 297t53 297t146 235q95 101 223 156t283 55q154 0 282 -55q130 -56 224 -156q93 -99 146 -235q52 -134 52 -297q0 -182 -65 -330t-180 -248l221 -280h-207l-150 188q-148 -74 -323 -74zM805 147
q114 0 207 43l-230 293h207l158 -200q78 77 121 186q43 110 43 244q0 166 -65 294q-64 126 -179 199q-114 72 -262 72q-147 0 -261 -72q-113 -71 -179 -199q-66 -127 -66 -294t66 -294q67 -129 179 -200q114 -72 261 -72z" />
    <glyph glyph-name="R" unicode="R" horiz-adv-x="1394" 
d="M184 0v1425h537q273 0 413 -116t140 -324q0 -165 -89 -271q-88 -105 -227 -149l379 -565h-231l-354 535h-373v-535h-195zM379 709h319q194 0 285 72q92 72 92 206q0 133 -92 199q-90 65 -285 65h-319v-542z" />
    <glyph glyph-name="S" unicode="S" horiz-adv-x="1300" 
d="M664 -31q-229 0 -384 107q-156 107 -202 299h198q34 -106 136 -167t250 -61q142 0 243 61q99 60 99 175q0 66 -27 113t-94 81q-66 34 -195 52l-170 26q-205 33 -304 123t-99 262q0 129 70 221q70 93 191 144q120 51 267 51q139 0 250 -43q112 -43 188 -128
q77 -86 101 -216h-199q-27 110 -116 160q-88 49 -222 49q-149 0 -241 -60q-91 -60 -91 -167q0 -93 64 -143q64 -51 242 -79l159 -24q221 -33 322 -134q102 -102 102 -276q0 -133 -69 -229q-70 -97 -192 -147q-123 -50 -277 -50z" />
    <glyph glyph-name="T" unicode="T" horiz-adv-x="1370" 
d="M782 0h-194v1251h-506v174h1206v-174h-506v-1251z" />
    <glyph glyph-name="U" unicode="U" horiz-adv-x="1519" 
d="M760 -31q-195 0 -328 79q-134 80 -201 223t-67 337v817h194v-800q0 -219 98 -349q98 -129 304 -129t304 129q97 128 97 349v800h195v-817q0 -192 -68 -337q-67 -144 -199 -223q-131 -79 -329 -79z" />
    <glyph glyph-name="V" unicode="V" horiz-adv-x="1406" 
d="M1370 1425l-567 -1425h-199l-567 1425h211l461 -1192l456 1192h205z" />
    <glyph glyph-name="W" unicode="W" horiz-adv-x="2004" 
d="M489 0l-432 1425h203l332 -1144l319 1140h181l331 -1145l326 1149h199l-430 -1425h-187l-330 1124l-325 -1124h-187z" />
    <glyph glyph-name="X" unicode="X" horiz-adv-x="1419" 
d="M41 0l543 743l-490 682h240l379 -536l377 536h231l-492 -682l545 -743h-239l-435 600l-428 -600h-231z" />
    <glyph glyph-name="Y" unicode="Y" horiz-adv-x="1318" 
d="M563 0v549l-532 876h225l410 -690l403 690h217l-528 -872v-553h-195z" />
    <glyph glyph-name="Z" unicode="Z" horiz-adv-x="1271" 
d="M92 1425h1075v-165l-837 -1086h852v-174h-1090v166l838 1085h-838v174z" />
    <glyph glyph-name="bracketleft" unicode="[" horiz-adv-x="720" 
d="M193 -328v1833h452v-162h-272v-1509h272v-162h-452z" />
    <glyph glyph-name="backslash" unicode="\" horiz-adv-x="819" 
d="M795 -328h-185l-585 1833h184z" />
    <glyph glyph-name="bracketright" unicode="]" horiz-adv-x="720" 
d="M528 -328h-452v162h272v1509h-272v162h452v-1833z" />
    <glyph glyph-name="asciicircum" unicode="^" 
d="M150 817l393 721h170l393 -721h-180l-297 561l-299 -561h-180z" />
    <glyph glyph-name="underscore" unicode="_" horiz-adv-x="1024" 
d="M0 -387v164h1024v-164h-1024z" />
    <glyph glyph-name="grave" unicode="`" horiz-adv-x="1173" 
d="M588 1198l-176 318h196l156 -318h-176z" />
    <glyph glyph-name="a" unicode="a" horiz-adv-x="1095" 
d="M436 -29q-161 0 -260 87q-98 86 -98 237q0 160 116 249t328 89h248v45q0 127 -64 181t-178 54q-96 0 -155 -36q-61 -37 -76 -91h-184q27 129 138 210t279 81q196 0 309 -100t113 -313v-664h-172v158q-56 -95 -149 -141t-195 -46zM477 131q65 0 135 31q67 30 113 91
q45 60 45 153v77h-235q-129 0 -201 -45t-72 -135q0 -84 61 -128t154 -44z" />
    <glyph glyph-name="b" unicode="b" horiz-adv-x="1236" 
d="M154 0v1485h182v-600q56 91 143 141q89 51 201 51q141 0 245 -70q105 -71 165 -195q59 -122 59 -288q0 -164 -59 -286q-61 -126 -165 -196q-106 -71 -245 -71q-114 0 -205 54q-86 51 -143 145v-170h-178zM647 139q138 0 227 106t89 279q0 174 -89 280q-89 105 -227 105
q-142 0 -230 -106q-89 -107 -89 -279q0 -171 89 -278t230 -107z" />
    <glyph glyph-name="c" unicode="c" horiz-adv-x="1097" 
d="M588 -29q-148 0 -262 70q-111 68 -175 195q-63 124 -63 288q0 162 63 287q64 126 175 196q112 70 262 70q182 0 295 -99t137 -247h-191q-15 80 -75 128q-62 50 -168 50q-138 0 -225 -105t-87 -280t87 -280t225 -105q106 0 169 48q61 46 76 128h189q-15 -95 -72 -175
q-57 -79 -148 -124q-92 -45 -212 -45z" />
    <glyph glyph-name="d" unicode="d" horiz-adv-x="1236" 
d="M557 -29q-137 0 -244 71q-105 70 -166 196q-59 122 -59 286q0 166 59 288q60 125 166 195t244 70q113 0 201 -51q87 -50 143 -141v600h182v-1485h-178v170q-57 -94 -143 -145q-91 -54 -205 -54zM590 139q141 0 230 107t89 278q0 172 -89 279q-88 106 -230 106
q-140 0 -228 -105q-88 -104 -88 -280q0 -175 88 -279q89 -106 228 -106z" />
    <glyph glyph-name="e" unicode="e" horiz-adv-x="1140" 
d="M594 -29q-154 0 -269 68q-113 67 -175 192q-62 126 -62 295q0 160 60 284q59 122 173 196q109 71 267 71q150 0 252 -66t155 -185q54 -122 54 -275v-86h-773q15 -160 97 -245t223 -85q91 0 157 32q64 31 85 83h188q-37 -127 -154 -203q-116 -76 -278 -76zM586 913
q-130 0 -208 -78q-79 -79 -97 -219h583q-6 134 -74 215q-69 82 -204 82z" />
    <glyph glyph-name="f" unicode="f" horiz-adv-x="688" 
d="M35 1049h186v94q0 162 87 252t245 90h80v-164h-51q-85 0 -132 -50t-47 -141v-81h230v-164h-230v-885h-182v885h-186v164z" />
    <glyph glyph-name="g" unicode="g" horiz-adv-x="1236" 
d="M557 -6q-137 0 -244 69q-105 68 -166 193q-59 121 -59 279q0 159 59 280q61 125 166 193q107 69 244 69q117 0 205 -52q87 -52 143 -142v166h178v-1018q0 -227 -125 -354q-124 -126 -348 -126q-190 0 -315 84q-124 84 -162 215h197q33 -57 100 -94t176 -37q144 0 220 74
q75 74 75 227v164q-56 -89 -143 -139q-88 -51 -201 -51zM590 162q94 0 166 48q71 48 112 132q41 85 41 195q0 109 -41 194t-112 131q-73 47 -166 47q-91 0 -164 -47q-71 -46 -112 -131q-40 -83 -40 -194q0 -112 40 -195q41 -84 112 -132q72 -48 164 -48z" />
    <glyph glyph-name="h" unicode="h" horiz-adv-x="1177" 
d="M154 0v1485h182v-574q56 80 140 123q85 43 186 43q117 0 199 -55q83 -56 128 -152t45 -221v-649h-182v614q0 136 -60 216q-60 79 -182 79q-75 0 -135 -33q-64 -35 -101 -99q-38 -65 -38 -156v-621h-182z" />
    <glyph glyph-name="i" unicode="i" horiz-adv-x="489" 
d="M246 1200q-52 0 -89 37q-38 38 -38 90t38 90q37 37 89 37q53 0 90 -37t37 -90t-37 -90t-90 -37zM154 0v1049h182v-1049h-182z" />
    <glyph glyph-name="j" unicode="j" horiz-adv-x="489" 
d="M246 1200q-52 0 -89 37q-38 38 -38 90t38 90q37 37 89 37q53 0 90 -37t37 -90t-37 -90t-90 -37zM-57 -420v164h55q78 0 117 51t39 139v1115h182v-1133q0 -159 -77 -248q-76 -88 -228 -88h-88z" />
    <glyph glyph-name="k" unicode="k" horiz-adv-x="1089" 
d="M154 0v1485h182v-875l461 439h231l-522 -496l567 -553h-239l-498 494v-494h-182z" />
    <glyph glyph-name="l" unicode="l" horiz-adv-x="489" 
d="M154 0v1485h182v-1485h-182z" />
    <glyph glyph-name="m" unicode="m" horiz-adv-x="1763" 
d="M154 0v1049h178v-129q105 157 299 157q102 0 179 -50q76 -49 120 -142q55 93 144 143q88 49 194 49q160 0 256 -112q96 -113 96 -308v-657h-182v633q0 128 -58 203q-57 73 -157 73t-172 -73q-72 -74 -72 -203v-633h-182v633q0 129 -59 203q-58 73 -156 73
q-101 0 -173 -73q-73 -75 -73 -203v-633h-182z" />
    <glyph glyph-name="n" unicode="n" horiz-adv-x="1177" 
d="M336 621v-621h-182v1049h178v-142q56 83 141 126q86 44 189 44q117 0 199 -55q83 -56 128 -152t45 -221v-649h-182v614q0 136 -60 216q-60 79 -182 79q-75 0 -135 -33q-64 -35 -101 -99q-38 -65 -38 -156z" />
    <glyph glyph-name="o" unicode="o" horiz-adv-x="1187" 
d="M594 -29q-146 0 -262 70q-114 69 -179 195q-65 125 -65 288q0 164 65 289q65 126 179 195t262 69q149 0 263 -69q112 -68 178 -195q65 -125 65 -289q0 -163 -65 -288q-66 -127 -178 -195q-116 -70 -263 -70zM594 139q141 0 230 106t89 279q0 175 -89 281
q-88 104 -230 104t-230 -104q-90 -107 -90 -281q0 -172 90 -279q89 -106 230 -106z" />
    <glyph glyph-name="p" unicode="p" horiz-adv-x="1236" 
d="M154 -420v1469h178v-170q57 94 143 145q89 53 205 53q141 0 245 -70q105 -71 165 -195q59 -122 59 -288q0 -164 -59 -286q-61 -126 -165 -196q-106 -71 -245 -71q-111 0 -201 52q-87 50 -143 141v-584h-182zM647 139q138 0 227 106t89 279q0 174 -89 280
q-89 105 -227 105q-142 0 -230 -106q-89 -107 -89 -279q0 -171 89 -278t230 -107z" />
    <glyph glyph-name="q" unicode="q" horiz-adv-x="1236" 
d="M557 -29q-137 0 -244 71q-105 70 -166 196q-59 122 -59 286q0 166 59 288q60 125 166 195t244 70q116 0 205 -53q86 -51 143 -145v170h178v-1469h-182v584q-56 -91 -143 -141q-90 -52 -201 -52zM590 139q141 0 230 107t89 278q0 172 -89 279q-88 106 -230 106
q-140 0 -228 -105q-88 -104 -88 -280q0 -175 88 -279q89 -106 228 -106z" />
    <glyph glyph-name="r" unicode="r" horiz-adv-x="727" 
d="M336 530v-530h-182v1049h178v-187q51 95 129 143q80 50 178 50h33v-176h-37q-81 0 -148 -39t-109 -117t-42 -193z" />
    <glyph glyph-name="s" unicode="s" horiz-adv-x="1009" 
d="M524 -31q-184 0 -303 87t-143 220h184q16 -59 85 -102q68 -43 173 -43q102 0 164 42q61 42 61 116q0 60 -43 97t-147 52l-160 21q-297 37 -297 291q0 96 53 170q52 73 143 115q92 42 208 42q170 0 276 -82q107 -83 135 -209h-182q-22 65 -79 97t-146 32q-100 0 -161 -44
q-60 -43 -60 -115q0 -60 43 -90q46 -31 141 -43l160 -21q149 -18 226 -102q77 -85 77 -205q0 -98 -53 -172q-52 -72 -146 -114q-90 -40 -209 -40z" />
    <glyph glyph-name="t" unicode="t" horiz-adv-x="700" 
d="M530 -8q-149 0 -229 83t-80 242v568h-186v164h186v333q89 6 182 35v-368h230v-164h-230v-551q0 -86 42 -132t118 -46h70v-164h-103z" />
    <glyph glyph-name="u" unicode="u" horiz-adv-x="1169" 
d="M834 424v625h182v-1049h-178v139q-52 -81 -131 -124q-80 -44 -179 -44q-177 0 -281 119t-104 311v648h183v-625q0 -126 66 -206q66 -79 181 -79q108 0 185 77q76 76 76 208z" />
    <glyph glyph-name="v" unicode="v" horiz-adv-x="1069" 
d="M629 0h-189l-413 1049h206l306 -836l305 836h198z" />
    <glyph glyph-name="w" unicode="w" horiz-adv-x="1556" 
d="M375 0l-338 1049h188l242 -795l227 790h166l236 -792l237 797h187l-340 -1049h-168l-234 784l-235 -784h-168z" />
    <glyph glyph-name="x" unicode="x" horiz-adv-x="1075" 
d="M23 0l397 549l-359 500h226l260 -375l254 375h213l-359 -506l398 -543h-226l-297 416l-294 -416h-213z" />
    <glyph glyph-name="y" unicode="y" horiz-adv-x="1069" 
d="M268 -420l174 420l-415 1049h206l308 -834l303 834h198l-579 -1469h-195z" />
    <glyph glyph-name="z" unicode="z" horiz-adv-x="1024" 
d="M82 0v158l620 727h-620v164h850v-158l-619 -727h633v-164h-864z" />
    <glyph glyph-name="braceleft" unicode="{" horiz-adv-x="798" 
d="M600 -328q-148 0 -238 73q-88 72 -88 247v305q0 106 -37 155q-38 50 -124 50h-43v174h43q86 0 124 50q37 49 37 155v305q0 175 88 247q89 72 238 72h123v-162h-88q-83 0 -131 -38q-49 -39 -49 -150v-289q0 -128 -40 -187q-41 -61 -128 -89q88 -27 128 -89t40 -190v-288
q0 -111 49 -150q50 -39 131 -39h88v-162h-123z" />
    <glyph glyph-name="bar" unicode="|" horiz-adv-x="649" 
d="M236 -244v1741h178v-1741h-178z" />
    <glyph glyph-name="braceright" unicode="}" horiz-adv-x="798" 
d="M199 -328h-123v162h88q84 0 132 39t48 150v288q0 128 40 190t128 89q-87 28 -128 89q-40 59 -40 187v289q0 111 -48 150q-47 38 -132 38h-88v162h123q151 0 238 -72t87 -247v-305q0 -105 38 -155t124 -50h43v-174h-43q-86 0 -124 -50t-38 -155v-305q0 -175 -87 -247
q-88 -73 -238 -73z" />
    <glyph glyph-name="asciitilde" unicode="~" 
d="M891 510q-72 0 -142 32q-73 33 -161 107q-72 59 -121 84q-48 25 -92 25q-61 0 -91 -38t-30 -106v-82h-166v93q0 137 75 218t199 81q73 0 143 -32t161 -108q74 -60 120 -84q47 -24 93 -24q61 0 91 38q29 36 29 105v82h166v-92q0 -138 -73 -218q-74 -81 -201 -81z" />
    <glyph glyph-name="uni00A0" unicode="&#xa0;" horiz-adv-x="477" 
 />
    <glyph glyph-name="exclamdown" unicode="&#xa1;" horiz-adv-x="571" 
d="M287 807q-55 0 -96 39q-39 38 -39 96t39 96q41 39 96 39t95 -39t40 -96t-40 -96t-95 -39zM188 -373l13 1022h172l12 -1022h-197z" />
    <glyph glyph-name="cent" unicode="&#xa2;" 
d="M580 -27v185q-131 22 -223 96q-97 79 -148 193q-53 120 -53 268q0 147 53 267q51 116 148 194q92 74 223 96v180h139v-176q162 -16 264 -114t123 -234h-182q-15 76 -66 123q-52 47 -139 59v-791q177 23 207 181h180q-21 -139 -122 -235q-100 -96 -265 -111v-181h-139z
M340 715q0 -154 66 -256q67 -103 174 -133v778q-107 -30 -174 -133q-66 -102 -66 -256z" />
    <glyph glyph-name="sterling" unicode="&#xa3;" 
d="M117 0v150q114 112 159 218q46 107 46 218q0 5 -0.5 10t-1.5 11.5t-1 10.5h-204v166h161q-29 83 -45 145q-14 55 -14 138q0 111 54 199q53 87 155 139q100 51 238 51q172 0 284 -85q114 -86 164 -230h-197q-67 143 -243 143q-130 0 -197 -64t-67 -161q0 -55 15 -118
q14 -58 50 -157h473v-166h-440v-26q0 -114 -34 -216q-35 -105 -122 -204h789v-172h-1022z" />
    <glyph glyph-name="currency" unicode="&#xa4;" horiz-adv-x="1261" 
d="M186 162l-110 112l192 193q-37 50 -59 116q-21 63 -21 132q0 68 21 131q23 68 59 117l-192 192l110 113l193 -193q50 36 118 58q61 20 134 20t134 -20q68 -22 118 -58l192 193l111 -113l-193 -192q39 -52 60 -116q20 -60 20 -132q0 -71 -20 -131q-22 -66 -60 -117
l193 -193l-109 -112l-194 192q-48 -34 -118 -57q-65 -21 -134 -21t-134 21q-70 23 -118 57zM631 444q77 0 139 36q60 35 97 98q36 61 36 137q0 75 -36 137q-36 61 -97 97t-139 36q-77 0 -139 -36q-63 -37 -98 -97q-36 -62 -36 -137t36 -137t98 -98t139 -36z" />
    <glyph glyph-name="yen" unicode="&#xa5;" 
d="M532 0v268h-348v146h348v149h-348v146h273l-412 716h211l377 -694l373 694h202l-407 -716h272v-146h-350v-149h350v-146h-350v-268h-191z" />
    <glyph glyph-name="brokenbar" unicode="&#xa6;" horiz-adv-x="649" 
d="M236 1497h176v-717h-176v717zM412 -244h-176v717h176v-717z" />
    <glyph glyph-name="section" unicode="&#xa7;" horiz-adv-x="1128" 
d="M571 -156q-173 0 -280 86q-106 85 -129 224h178q12 -62 71 -106t158 -44q101 0 153 42t52 116q0 71 -43 110q-44 40 -133 56l-170 30q-303 56 -303 291q0 98 54 173q53 74 140 118q-66 45 -96 108t-30 138q0 94 49 165t135 115q85 43 196 43q166 0 268 -87t124 -220h-174
q-15 61 -70 104q-56 44 -146 44q-91 0 -148 -42q-56 -41 -56 -116q0 -72 44 -114q43 -42 124 -54l153 -25q147 -23 228 -107t81 -208q0 -97 -49 -164q-50 -68 -129 -108q69 -41 99 -105q30 -63 30 -137q0 -89 -47 -165q-46 -74 -132 -118q-85 -43 -202 -43zM659 481
q64 16 115 59q49 42 49 117q0 83 -46 126q-47 44 -134 59l-178 30q-66 -18 -114 -69t-48 -123t42 -112q41 -39 142 -56z" />
    <glyph glyph-name="dieresis" unicode="&#xa8;" horiz-adv-x="1173" 
d="M776 1235q-51 0 -85 34t-34 83t34 83q33 33 85 33q51 0 84 -33q35 -35 35 -83t-35 -83q-34 -34 -84 -34zM399 1235q-50 0 -84 34t-34 83t34 83q33 33 84 33q52 0 85 -33q34 -34 34 -83t-34 -83t-85 -34z" />
    <glyph glyph-name="copyright" unicode="&#xa9;" horiz-adv-x="1656" 
d="M827 -31q-151 0 -284 55q-132 55 -230 154q-97 99 -152 237q-55 139 -55 298q0 161 55 299q54 136 152 235q99 101 230 155q130 54 284 54q155 0 285 -54q129 -53 229 -155q99 -101 153 -235q54 -135 54 -299q0 -161 -54 -298t-153 -237t-229 -154q-133 -55 -285 -55z
M827 94q165 0 299 80q132 79 212 220q79 140 79 319q0 180 -79 319q-80 140 -212 219q-134 80 -299 80q-166 0 -300 -80t-212 -219q-77 -138 -77 -319q0 -180 77 -319q77 -140 212 -220q134 -80 300 -80zM840 274q-119 0 -209 57q-94 59 -141 154q-50 100 -50 228
q0 125 50 225q48 96 141 155q88 56 209 56q144 0 236 -80q91 -79 108 -199h-164q-12 60 -58 97t-124 37q-104 0 -170 -79t-66 -212q0 -135 66 -214t170 -79q79 0 126 37q48 37 58 94h162q-17 -118 -108 -197q-92 -80 -236 -80z" />
    <glyph glyph-name="ordfeminine" unicode="&#xaa;" horiz-adv-x="917" 
d="M369 623q-129 0 -208 70t-79 190q0 126 93 202q92 76 263 76h189v27q0 100 -48 142t-135 42q-73 0 -119 -26q-48 -27 -63 -70h-153q22 105 112 169q89 64 225 64q159 0 247 -79q89 -80 89 -252v-531h-141v117q-45 -72 -119 -107q-72 -34 -153 -34zM406 758q65 0 133 38
q67 37 88 117v119h-181q-101 0 -151 -37q-51 -37 -51 -102q0 -63 43 -99t119 -36z" />
    <glyph glyph-name="guillemotleft" unicode="&#xab;" horiz-adv-x="1075" 
d="M379 94l-275 424l275 424h182l-268 -424l268 -424h-182zM780 94l-274 424l274 424h183l-269 -424l269 -424h-183z" />
    <glyph glyph-name="logicalnot" unicode="&#xac;" 
d="M924 406v360h-772v160h938v-520h-166z" />
    <glyph glyph-name="uni00AD" unicode="&#xad;" horiz-adv-x="991" 
d="M168 512v162h655v-162h-655z" />
    <glyph glyph-name="registered" unicode="&#xae;" horiz-adv-x="1056" 
d="M528 543q-128 0 -228 59q-102 60 -160 163t-58 234q0 135 58 236q59 102 160 162q100 59 228 59q131 0 230 -59t158 -162t59 -236q0 -130 -59 -234t-158 -163t-230 -59zM528 647q98 0 174 45q77 45 120 124q44 80 44 183q0 105 -44 185q-44 81 -120 124q-77 44 -174 44
q-96 0 -173 -44t-121 -124t-44 -185q0 -103 44 -183q43 -78 121 -124q77 -45 173 -45zM356 788v451h193q85 0 128 -43q44 -44 44 -111q0 -91 -82 -131l111 -166h-123l-92 148h-70v-148h-109zM465 1024h63q86 0 86 61q0 62 -86 62h-63v-123z" />
    <glyph glyph-name="macron" unicode="&#xaf;" horiz-adv-x="1173" 
d="M283 1438h614v-154h-614v154z" />
    <glyph glyph-name="degree" unicode="&#xb0;" horiz-adv-x="815" 
d="M408 887q-85 0 -152 40q-68 41 -106 107q-39 68 -39 152t39 151q39 68 106 108t152 40q87 0 152 -40q68 -41 106 -108q39 -67 39 -151t-39 -152q-38 -65 -106 -107q-65 -40 -152 -40zM408 1010q71 0 119 51t48 125t-48 125t-119 51q-70 0 -119 -51q-49 -50 -49 -125
t49 -125q49 -51 119 -51z" />
    <glyph glyph-name="plusminus" unicode="&#xb1;" 
d="M158 0v160h938v-160h-938zM545 322v411h-387v160h387v412h166v-412h387v-160h-387v-411h-166z" />
    <glyph glyph-name="uni00B2" unicode="&#xb2;" horiz-adv-x="819" 
d="M100 819v125l336 279q69 59 92 94q25 39 25 78q0 49 -39 81q-38 31 -108 31q-65 0 -107 -29t-53 -79h-152q16 110 103 180t213 70q132 0 217 -70q84 -69 84 -180q0 -80 -44 -141q-42 -57 -137 -134l-211 -170h400v-135h-619z" />
    <glyph glyph-name="uni00B3" unicode="&#xb3;" horiz-adv-x="819" 
d="M416 801q-142 0 -227 61q-84 61 -107 168h158q16 -49 58 -72q44 -24 110 -24q63 0 111 30t48 91q0 55 -43 85q-42 29 -118 29h-99v125h94q67 0 108 29q40 28 40 80q0 59 -43 86q-44 27 -105 27q-57 0 -101 -25q-41 -23 -56 -68h-154q27 102 110 164t208 62q120 0 207 -63
t87 -171q0 -131 -135 -176q76 -22 117 -74t41 -118q0 -77 -42 -132q-41 -54 -113 -85q-68 -29 -154 -29z" />
    <glyph glyph-name="acute" unicode="&#xb4;" horiz-adv-x="1173" 
d="M588 1198h-176l155 318h197z" />
    <glyph glyph-name="mu" unicode="&#xb5;" horiz-adv-x="1222" 
d="M154 -420v1469h182v-625q0 -126 66 -206q66 -79 182 -79q107 0 184 77q76 76 76 208v625h182v-748q0 -145 121 -145h22v-164h-55q-192 0 -233 168q-38 -83 -113 -136q-74 -53 -180 -53q-90 0 -158 39q-66 38 -104 107v-537h-172z" />
    <glyph glyph-name="paragraph" unicode="&#xb6;" horiz-adv-x="1404" 
d="M682 -287v803h-37q-273 0 -417 126t-144 333t144 329q143 121 417 121h555v-1712h-168v1553h-182v-1553h-168z" />
    <glyph glyph-name="periodcentered" unicode="&#xb7;" horiz-adv-x="557" 
d="M279 614q-55 0 -96 39q-40 39 -40 97q0 57 40 96q41 39 96 39t95 -39t40 -96q0 -58 -40 -97t-95 -39z" />
    <glyph glyph-name="cedilla" unicode="&#xb8;" horiz-adv-x="1173" 
d="M408 -492v127h98q58 0 89 18q32 18 32 56q0 72 -111 72h-82l90 274h129l-61 -161q82 -1 138 -54q54 -51 54 -135q0 -92 -64 -144q-65 -53 -175 -53h-137z" />
    <glyph glyph-name="uni00B9" unicode="&#xb9;" horiz-adv-x="819" 
d="M389 819v647l-209 -61v143l361 99v-828h-152z" />
    <glyph glyph-name="ordmasculine" unicode="&#xba;" horiz-adv-x="991" 
d="M496 621q-120 0 -211 57q-93 58 -144 158q-51 101 -51 229q0 131 51 230t144 157q91 57 211 57t212 -57q90 -56 142 -157q51 -99 51 -230q0 -129 -51 -229q-52 -102 -142 -158q-92 -57 -212 -57zM496 762q109 0 178 83t69 220t-69 220t-178 83q-110 0 -179 -83t-69 -220
t69 -220t179 -83z" />
    <glyph glyph-name="guillemotright" unicode="&#xbb;" horiz-adv-x="1075" 
d="M113 94l268 424l-268 424h182l274 -424l-274 -424h-182zM514 94l268 424l-268 424h182l275 -424l-275 -424h-182z" />
    <glyph glyph-name="onequarter" unicode="&#xbc;" horiz-adv-x="1925" 
d="M389 655v648l-209 -62v143l361 99v-828h-152zM440 0l930 1425h180l-929 -1425h-181zM1593 0v184h-422v117l420 512h148v-502h127v-127h-127v-184h-146zM1327 311h266v326z" />
    <glyph glyph-name="onehalf" unicode="&#xbd;" horiz-adv-x="1925" 
d="M389 655v648l-209 -62v143l361 99v-828h-152zM393 0l930 1425h180l-930 -1425h-180zM1206 0v125l336 278q68 57 92 95q25 39 25 77q0 49 -39 81q-40 32 -109 32q-63 0 -106 -30q-43 -29 -53 -78h-152q16 110 103 180q85 69 213 69q133 0 217 -69t84 -180q0 -80 -44 -141
q-42 -57 -137 -134l-211 -170h400v-135h-619z" />
    <glyph glyph-name="threequarters" unicode="&#xbe;" horiz-adv-x="1925" 
d="M416 637q-142 0 -227 61q-84 61 -107 168h158q15 -47 58 -71q45 -25 110 -25q63 0 111 30t48 91q0 55 -43 85t-118 30h-99v124h94q67 0 108 29q40 28 40 80q0 59 -43 86q-44 27 -105 27q-57 0 -101 -25q-41 -23 -56 -67h-154q27 101 110 163t208 62q120 0 207 -63
t87 -171q0 -131 -135 -176q76 -22 117 -74t41 -118q0 -75 -42 -131q-41 -54 -113 -85q-71 -30 -154 -30zM469 0l930 1425h180l-930 -1425h-180zM1593 0v184h-422v117l420 512h148v-502h127v-127h-127v-184h-146zM1327 311h266v326z" />
    <glyph glyph-name="questiondown" unicode="&#xbf;" horiz-adv-x="1124" 
d="M612 807q-54 0 -95 39q-40 39 -40 96t40 96q41 39 95 39q56 0 96 -39t40 -96t-40 -96t-96 -39zM582 -403q-141 0 -246 51t-162 138t-57 196q0 106 57 189t188 161q76 45 114 85q34 35 47 76q12 37 12 80v76h182v-86q0 -70 -18 -127q-19 -59 -64 -110q-48 -54 -137 -109
q-75 -45 -117 -83q-40 -35 -55 -72q-15 -36 -15 -80q0 -86 75 -148q74 -61 204 -61q132 0 214 60t97 155h191q-17 -111 -82 -198q-67 -89 -173 -141q-107 -52 -255 -52z" />
    <glyph glyph-name="Agrave" unicode="&#xc0;" horiz-adv-x="1411" 
d="M1167 0l-149 383h-633l-147 -383h-201l569 1425h197l571 -1425h-207zM451 557h499l-250 647zM627 1577l-203 301h203l180 -301h-180z" />
    <glyph glyph-name="Aacute" unicode="&#xc1;" horiz-adv-x="1411" 
d="M1167 0l-149 383h-633l-147 -383h-201l569 1425h197l571 -1425h-207zM451 557h499l-250 647zM782 1577h-180l180 301h203z" />
    <glyph glyph-name="Acircumflex" unicode="&#xc2;" horiz-adv-x="1411" 
d="M1167 0l-149 383h-633l-147 -383h-201l569 1425h197l571 -1425h-207zM451 557h499l-250 647zM344 1577l254 301h213l254 -301h-193l-167 182l-168 -182h-193z" />
    <glyph glyph-name="Atilde" unicode="&#xc3;" horiz-adv-x="1411" 
d="M1167 0l-149 383h-633l-147 -383h-201l569 1425h197l571 -1425h-207zM451 557h499l-250 647zM862 1575q-40 0 -83 12q-45 12 -99 49q-34 24 -66 40q-24 12 -49 12q-69 0 -69 -70v-39h-148v68q0 90 55 144t144 54q41 0 84 -12t98 -49q36 -24 66 -39q24 -12 49 -12
q69 0 69 67v41h148v-67q0 -91 -54 -145t-145 -54z" />
    <glyph glyph-name="Adieresis" unicode="&#xc4;" horiz-adv-x="1411" 
d="M1167 0l-149 383h-633l-147 -383h-201l569 1425h197l571 -1425h-207zM451 557h499l-250 647zM918 1612q-51 0 -85 34t-34 83q0 48 34 82t85 34q49 0 83 -34q35 -35 35 -82q0 -48 -35 -83q-34 -34 -83 -34zM492 1612q-50 0 -84 34q-35 35 -35 83q0 47 35 82q34 34 84 34
q51 0 85 -34q33 -33 33 -82q0 -50 -33 -83q-34 -34 -85 -34z" />
    <glyph glyph-name="Aring" unicode="&#xc5;" horiz-adv-x="1411" 
d="M1167 0l-149 383h-633l-147 -383h-201l569 1425h197l571 -1425h-207zM451 557h499l-250 647zM705 1305q-71 0 -125 32q-55 33 -88 88t-33 121t33 121t88 88q56 33 125 33t124 -33q57 -34 89 -88t32 -121t-32 -121t-89 -88q-54 -32 -124 -32zM705 1427q50 0 83 34
q33 35 33 85t-33 85q-33 34 -83 34q-51 0 -84 -34q-33 -35 -33 -85t33 -85q33 -34 84 -34z" />
    <glyph glyph-name="AE" unicode="&#xc6;" horiz-adv-x="2170" 
d="M231 0h-217l940 1425h1078v-174h-795v-432h772v-174h-772v-471h805v-174h-1000v383h-565zM588 557h454v709z" />
    <glyph glyph-name="Ccedilla" unicode="&#xc7;" horiz-adv-x="1462" 
d="M100 713q0 220 85 386q86 168 237 262q152 95 346 95q252 0 402 -126q151 -127 202 -341h-203q-34 132 -137 211q-102 78 -264 78q-138 0 -244 -69q-107 -69 -166 -195q-59 -125 -59 -301q0 -174 59 -299q61 -129 166 -197q108 -70 244 -70q160 0 266 77q103 75 137 202
h201q-50 -208 -201 -332q-152 -125 -403 -125q-192 0 -346 96q-151 94 -237 263q-85 167 -85 385zM606 -492v127h99q57 0 89 18q31 18 31 56q0 72 -108 72h-84l88 258h127l-57 -145q82 -1 138 -54q54 -51 54 -135q0 -92 -64 -144q-65 -53 -176 -53h-137z" />
    <glyph glyph-name="Egrave" unicode="&#xc8;" horiz-adv-x="1312" 
d="M184 0v1425h990v-174h-795v-432h772v-174h-772v-471h805v-174h-1000zM600 1577l-203 301h203l180 -301h-180z" />
    <glyph glyph-name="Eacute" unicode="&#xc9;" horiz-adv-x="1312" 
d="M184 0v1425h990v-174h-795v-432h772v-174h-772v-471h805v-174h-1000zM756 1577h-181l181 301h202z" />
    <glyph glyph-name="Ecircumflex" unicode="&#xca;" horiz-adv-x="1312" 
d="M184 0v1425h990v-174h-795v-432h772v-174h-772v-471h805v-174h-1000zM317 1577l254 301h213l254 -301h-192l-168 182l-168 -182h-193z" />
    <glyph glyph-name="Edieresis" unicode="&#xcb;" horiz-adv-x="1312" 
d="M184 0v1425h990v-174h-795v-432h772v-174h-772v-471h805v-174h-1000zM891 1612q-51 0 -85 34t-34 83q0 48 34 82t85 34q50 0 84 -34q35 -35 35 -82q0 -48 -35 -83q-34 -34 -84 -34zM465 1612q-50 0 -84 34q-35 35 -35 83q0 47 35 82q34 34 84 34q51 0 85 -34t34 -82
q0 -49 -34 -83t-85 -34z" />
    <glyph glyph-name="Igrave" unicode="&#xcc;" horiz-adv-x="563" 
d="M379 0h-195v1425h195v-1425zM203 1577l-203 301h203l180 -301h-180z" />
    <glyph glyph-name="Iacute" unicode="&#xcd;" horiz-adv-x="563" 
d="M379 0h-195v1425h195v-1425zM358 1577h-180l180 301h203z" />
    <glyph glyph-name="Icircumflex" unicode="&#xce;" horiz-adv-x="563" 
d="M379 0h-195v1425h195v-1425zM-80 1577l254 301h213l254 -301h-192l-168 182l-168 -182h-193z" />
    <glyph glyph-name="Idieresis" unicode="&#xcf;" horiz-adv-x="563" 
d="M379 0h-195v1425h195v-1425zM494 1612q-51 0 -85 34t-34 83q0 48 34 82t85 34q50 0 84 -34t34 -82q0 -49 -34 -83t-84 -34zM68 1612q-50 0 -84 34q-35 35 -35 83q0 47 35 82q34 34 84 34q51 0 85 -34q33 -33 33 -82q0 -50 -33 -83q-34 -34 -85 -34z" />
    <glyph glyph-name="Eth" unicode="&#xd0;" horiz-adv-x="1552" 
d="M238 0v668h-195v161h195v596h514q198 0 357 -87q160 -87 251 -246q92 -160 92 -379q0 -217 -92 -378t-251 -248t-357 -87h-514zM432 174h307q142 0 259 64q118 64 186 184q69 122 69 291q0 172 -69 292q-68 119 -186 183q-115 63 -259 63h-307v-422h336v-161h-336v-494z
" />
    <glyph glyph-name="Ntilde" unicode="&#xd1;" horiz-adv-x="1566" 
d="M184 0v1425h193l813 -1118v1118h192v-1425h-192l-813 1118v-1118h-193zM940 1575q-40 0 -83 12q-45 12 -99 49q-34 24 -66 40q-24 12 -49 12q-70 0 -70 -70v-39h-147v68q0 90 55 144t144 54q41 0 84 -12t98 -49q39 -26 65 -39q24 -12 50 -12q69 0 69 67v41h148v-67
q0 -90 -55 -145q-54 -54 -144 -54z" />
    <glyph glyph-name="Ograve" unicode="&#xd2;" horiz-adv-x="1609" 
d="M805 -31q-153 0 -283 56t-223 155q-92 98 -146 236q-53 136 -53 297t53 297t146 235q95 101 223 156t283 55q154 0 282 -55q130 -56 224 -156q93 -99 146 -235q52 -134 52 -297t-52 -297q-54 -138 -146 -236q-93 -98 -224 -155q-130 -56 -282 -56zM805 147q148 0 262 72
t179 200t65 294t-65 294q-64 126 -179 199q-114 72 -262 72q-147 0 -261 -72q-113 -71 -179 -199q-66 -127 -66 -294t66 -294q67 -129 179 -200q114 -72 261 -72zM727 1577l-203 301h203l180 -301h-180z" />
    <glyph glyph-name="Oacute" unicode="&#xd3;" horiz-adv-x="1609" 
d="M805 -31q-153 0 -283 56t-223 155q-92 98 -146 236q-53 136 -53 297t53 297t146 235q95 101 223 156t283 55q154 0 282 -55q130 -56 224 -156q93 -99 146 -235q52 -134 52 -297t-52 -297q-54 -138 -146 -236q-93 -98 -224 -155q-130 -56 -282 -56zM805 147q148 0 262 72
t179 200t65 294t-65 294q-64 126 -179 199q-114 72 -262 72q-147 0 -261 -72q-113 -71 -179 -199q-66 -127 -66 -294t66 -294q67 -129 179 -200q114 -72 261 -72zM883 1577h-181l181 301h202z" />
    <glyph glyph-name="Ocircumflex" unicode="&#xd4;" horiz-adv-x="1609" 
d="M805 -31q-153 0 -283 56t-223 155q-92 98 -146 236q-53 136 -53 297t53 297t146 235q95 101 223 156t283 55q154 0 282 -55q130 -56 224 -156q93 -99 146 -235q52 -134 52 -297t-52 -297q-54 -138 -146 -236q-93 -98 -224 -155q-130 -56 -282 -56zM805 147q148 0 262 72
t179 200t65 294t-65 294q-64 126 -179 199q-114 72 -262 72q-147 0 -261 -72q-113 -71 -179 -199q-66 -127 -66 -294t66 -294q67 -129 179 -200q114 -72 261 -72zM444 1577l254 301h213l254 -301h-192l-168 182l-168 -182h-193z" />
    <glyph glyph-name="Otilde" unicode="&#xd5;" horiz-adv-x="1609" 
d="M805 -31q-153 0 -283 56t-223 155q-92 98 -146 236q-53 136 -53 297t53 297t146 235q95 101 223 156t283 55q154 0 282 -55q130 -56 224 -156q93 -99 146 -235q52 -134 52 -297t-52 -297q-54 -138 -146 -236q-93 -98 -224 -155q-130 -56 -282 -56zM805 147q148 0 262 72
t179 200t65 294t-65 294q-64 126 -179 199q-114 72 -262 72q-147 0 -261 -72q-113 -71 -179 -199q-66 -127 -66 -294t66 -294q67 -129 179 -200q114 -72 261 -72zM963 1575q-39 0 -83 12q-46 13 -100 49q-37 26 -65 40q-24 12 -49 12q-70 0 -70 -70v-39h-147v68q0 90 55 144
t143 54q41 0 84 -12t98 -49q36 -24 66 -39q24 -12 49 -12q70 0 70 67v41h147v-67q0 -91 -54 -145t-144 -54z" />
    <glyph glyph-name="Odieresis" unicode="&#xd6;" horiz-adv-x="1609" 
d="M805 -31q-153 0 -283 56t-223 155q-92 98 -146 236q-53 136 -53 297t53 297t146 235q95 101 223 156t283 55q154 0 282 -55q130 -56 224 -156q93 -99 146 -235q52 -134 52 -297t-52 -297q-54 -138 -146 -236q-93 -98 -224 -155q-130 -56 -282 -56zM805 147q148 0 262 72
t179 200t65 294t-65 294q-64 126 -179 199q-114 72 -262 72q-147 0 -261 -72q-113 -71 -179 -199q-66 -127 -66 -294t66 -294q67 -129 179 -200q114 -72 261 -72zM1018 1612q-51 0 -85 34t-34 83q0 48 34 82t85 34q50 0 84 -34q35 -35 35 -82q0 -48 -35 -83q-34 -34 -84 -34
zM592 1612q-50 0 -84 34q-35 35 -35 83q0 47 35 82q34 34 84 34q51 0 85 -34t34 -82q0 -49 -34 -83t-85 -34z" />
    <glyph glyph-name="multiply" unicode="&#xd7;" 
d="M297 240l-113 110l332 332l-332 332l113 110l332 -329l329 329l113 -110l-332 -332l332 -332l-113 -110l-329 331z" />
    <glyph glyph-name="Oslash" unicode="&#xd8;" horiz-adv-x="1609" 
d="M168 -98l164 243q-109 101 -170 246q-62 147 -62 322q0 161 53 297t146 235q95 101 223 156t283 55q97 0 184 -22q83 -21 164 -64l102 154h187l-164 -244q109 -101 170 -246q61 -144 61 -321q0 -163 -52 -297q-54 -138 -146 -236q-93 -98 -224 -155q-130 -56 -282 -56
q-94 0 -184 23q-87 22 -164 63l-103 -153h-186zM299 713q0 -125 37 -227q38 -104 104 -179l609 910q-107 61 -244 61q-147 0 -261 -72q-113 -71 -179 -199q-66 -127 -66 -294zM805 147q148 0 262 72t179 200t65 294q0 124 -37 226t-105 179l-608 -909q109 -62 244 -62z" />
    <glyph glyph-name="Ugrave" unicode="&#xd9;" horiz-adv-x="1519" 
d="M760 -31q-195 0 -328 79q-134 80 -201 223t-67 337v817h194v-800q0 -219 98 -349q98 -129 304 -129t304 129q97 128 97 349v800h195v-817q0 -192 -68 -337q-67 -144 -199 -223q-131 -79 -329 -79zM682 1577l-203 301h203l180 -301h-180z" />
    <glyph glyph-name="Uacute" unicode="&#xda;" horiz-adv-x="1519" 
d="M760 -31q-195 0 -328 79q-134 80 -201 223t-67 337v817h194v-800q0 -219 98 -349q98 -129 304 -129t304 129q97 128 97 349v800h195v-817q0 -192 -68 -337q-67 -144 -199 -223q-131 -79 -329 -79zM838 1577h-181l181 301h202z" />
    <glyph glyph-name="Ucircumflex" unicode="&#xdb;" horiz-adv-x="1519" 
d="M760 -31q-195 0 -328 79q-134 80 -201 223t-67 337v817h194v-800q0 -219 98 -349q98 -129 304 -129t304 129q97 128 97 349v800h195v-817q0 -192 -68 -337q-67 -144 -199 -223q-131 -79 -329 -79zM399 1577l254 301h213l254 -301h-192l-168 182l-168 -182h-193z" />
    <glyph glyph-name="Udieresis" unicode="&#xdc;" horiz-adv-x="1519" 
d="M760 -31q-195 0 -328 79q-134 80 -201 223t-67 337v817h194v-800q0 -219 98 -349q98 -129 304 -129t304 129q97 128 97 349v800h195v-817q0 -192 -68 -337q-67 -144 -199 -223q-131 -79 -329 -79zM973 1612q-51 0 -85 34t-34 83q0 48 34 82t85 34q50 0 84 -34
q35 -35 35 -82q0 -48 -35 -83q-34 -34 -84 -34zM547 1612q-50 0 -84 34q-35 35 -35 83q0 47 35 82q34 34 84 34q51 0 85 -34t34 -82q0 -49 -34 -83t-85 -34z" />
    <glyph glyph-name="Yacute" unicode="&#xdd;" horiz-adv-x="1318" 
d="M563 0v549l-532 876h225l410 -690l403 690h217l-528 -872v-553h-195zM735 1577h-180l180 301h203z" />
    <glyph glyph-name="Thorn" unicode="&#xde;" horiz-adv-x="1349" 
d="M184 0v1425h195v-251h330q275 0 415 -124q142 -125 142 -331q0 -207 -142 -332t-415 -125h-330v-262h-195zM682 999h-303v-563h303q195 0 290 74t95 209q0 133 -95 207q-94 73 -290 73z" />
    <glyph glyph-name="germandbls" unicode="&#xdf;" horiz-adv-x="1267" 
d="M154 0v973q0 246 133 379t352 133q135 0 233 -49q99 -49 153 -137q54 -87 54 -201q0 -112 -57 -192q-56 -78 -160 -118q141 -34 220 -133q79 -98 79 -241q0 -128 -58 -220q-60 -95 -163 -144q-106 -50 -244 -50h-186v164h170q134 0 214 68q81 69 81 200q0 127 -86 193
q-84 65 -230 65h-116v164h75q117 0 195 59q80 60 80 179q0 107 -70 166t-184 59q-135 0 -219 -85q-84 -86 -84 -267v-965h-182z" />
    <glyph glyph-name="agrave" unicode="&#xe0;" horiz-adv-x="1095" 
d="M436 -29q-161 0 -260 87q-98 86 -98 237q0 160 116 249t328 89h248v45q0 127 -64 181t-178 54q-96 0 -155 -36q-61 -37 -76 -91h-184q27 129 138 210t279 81q196 0 309 -100t113 -313v-664h-172v158q-56 -95 -149 -141t-195 -46zM477 131q65 0 135 31q67 30 113 91
q45 60 45 153v77h-235q-129 0 -201 -45t-72 -135q0 -84 61 -128t154 -44zM471 1198l-176 318h197l155 -318h-176z" />
    <glyph glyph-name="aacute" unicode="&#xe1;" horiz-adv-x="1095" 
d="M436 -29q-161 0 -260 87q-98 86 -98 237q0 160 116 249t328 89h248v45q0 127 -64 181t-178 54q-96 0 -155 -36q-61 -37 -76 -91h-184q27 129 138 210t279 81q196 0 309 -100t113 -313v-664h-172v158q-56 -95 -149 -141t-195 -46zM477 131q65 0 135 31q67 30 113 91
q45 60 45 153v77h-235q-129 0 -201 -45t-72 -135q0 -84 61 -128t154 -44zM623 1198h-177l156 318h197z" />
    <glyph glyph-name="acircumflex" unicode="&#xe2;" horiz-adv-x="1095" 
d="M436 -29q-161 0 -260 87q-98 86 -98 237q0 160 116 249t328 89h248v45q0 127 -64 181t-178 54q-96 0 -155 -36q-61 -37 -76 -91h-184q27 129 138 210t279 81q196 0 309 -100t113 -313v-664h-172v158q-56 -95 -149 -141t-195 -46zM477 131q65 0 135 31q67 30 113 91
q45 60 45 153v77h-235q-129 0 -201 -45t-72 -135q0 -84 61 -128t154 -44zM199 1198l245 318h205l246 -318h-184l-164 197l-164 -197h-184z" />
    <glyph glyph-name="atilde" unicode="&#xe3;" horiz-adv-x="1095" 
d="M436 -29q-161 0 -260 87q-98 86 -98 237q0 160 116 249t328 89h248v45q0 127 -64 181t-178 54q-96 0 -155 -36q-61 -37 -76 -91h-184q27 129 138 210t279 81q196 0 309 -100t113 -313v-664h-172v158q-56 -95 -149 -141t-195 -46zM477 131q65 0 135 31q67 30 113 91
q45 60 45 153v77h-235q-129 0 -201 -45t-72 -135q0 -84 61 -128t154 -44zM700 1202q-40 0 -86 16q-40 14 -102 54q-42 30 -60 37q-22 8 -42 8q-64 0 -64 -70v-41h-143v68q0 91 52 143q53 53 136 53q46 0 87 -14q48 -16 102 -55q41 -28 61 -36q21 -9 41 -9q63 0 63 69v41h144
v-67q0 -90 -52 -143q-53 -54 -137 -54z" />
    <glyph glyph-name="adieresis" unicode="&#xe4;" horiz-adv-x="1095" 
d="M436 -29q-161 0 -260 87q-98 86 -98 237q0 160 116 249t328 89h248v45q0 127 -64 181t-178 54q-96 0 -155 -36q-61 -37 -76 -91h-184q27 129 138 210t279 81q196 0 309 -100t113 -313v-664h-172v158q-56 -95 -149 -141t-195 -46zM477 131q65 0 135 31q67 30 113 91
q45 60 45 153v77h-235q-129 0 -201 -45t-72 -135q0 -84 61 -128t154 -44zM735 1235q-51 0 -85 34t-34 83t34 83q33 33 85 33q51 0 84 -33q35 -35 35 -83t-35 -83q-34 -34 -84 -34zM358 1235q-50 0 -84 34t-34 83t34 83q33 33 84 33q52 0 85 -33q34 -34 34 -83t-34 -83
t-85 -34z" />
    <glyph glyph-name="aring" unicode="&#xe5;" horiz-adv-x="1095" 
d="M436 -29q-161 0 -260 87q-98 86 -98 237q0 160 116 249t328 89h248v45q0 127 -64 181t-178 54q-96 0 -155 -36q-61 -37 -76 -91h-184q27 129 138 210t279 81q196 0 309 -100t113 -313v-664h-172v158q-56 -95 -149 -141t-195 -46zM477 131q65 0 135 31q67 30 113 91
q45 60 45 153v77h-235q-129 0 -201 -45t-72 -135q0 -84 61 -128t154 -44zM547 1161q-69 0 -125 33q-55 33 -88 88q-33 56 -33 121t33 121q33 55 88 88q56 33 125 33t125 -33q55 -33 88 -88q33 -56 33 -121t-33 -121q-33 -55 -88 -88q-56 -33 -125 -33zM547 1284q51 0 84 34
t33 85t-33 85t-84 34t-84 -34t-33 -85t33 -85t84 -34z" />
    <glyph glyph-name="ae" unicode="&#xe6;" horiz-adv-x="1824" 
d="M449 -29q-168 0 -270 87q-101 86 -101 237q0 159 113 245q114 87 325 87h254v51q0 127 -64 181t-178 54q-96 0 -155 -36q-61 -37 -76 -91h-184q27 129 138 210t279 81q130 0 223 -48q92 -47 142 -157q64 109 164 157q101 48 215 48q148 0 250 -66t155 -185
q54 -122 54 -273v-74h-772q11 -169 92 -256q82 -88 225 -88q93 0 159 32q64 31 85 83h188q-37 -127 -154 -203q-116 -76 -278 -76q-147 0 -253 62q-105 62 -167 176q-57 -116 -169 -177q-113 -61 -240 -61zM1270 913q-128 0 -205 -76t-100 -210h583q-7 127 -78 208
q-68 78 -200 78zM477 131q72 0 141 29q68 29 110 89t42 154v76h-238q-127 0 -198 -43q-72 -44 -72 -133q0 -84 61 -128t154 -44z" />
    <glyph glyph-name="ccedilla" unicode="&#xe7;" horiz-adv-x="1097" 
d="M588 -29q-148 0 -262 70q-111 68 -175 195q-63 124 -63 288q0 162 63 287q64 126 175 196q112 70 262 70q182 0 295 -99t137 -247h-191q-15 80 -75 128q-62 50 -168 50q-138 0 -225 -105t-87 -280t87 -280t225 -105q106 0 169 48q61 46 76 128h189q-15 -95 -72 -175
q-57 -79 -148 -124q-92 -45 -212 -45zM426 -492v127h98q58 0 89 18q32 18 32 56q0 72 -110 72h-82l90 274h129l-62 -161q83 -1 139 -54q54 -51 54 -135q0 -91 -65 -144t-175 -53h-137z" />
    <glyph glyph-name="egrave" unicode="&#xe8;" horiz-adv-x="1140" 
d="M594 -29q-154 0 -269 68q-113 67 -175 192q-62 126 -62 295q0 160 60 284q59 122 173 196q109 71 267 71q150 0 252 -66t155 -185q54 -122 54 -275v-86h-773q15 -160 97 -245t223 -85q91 0 157 32q64 31 85 83h188q-37 -127 -154 -203q-116 -76 -278 -76zM586 913
q-130 0 -208 -78q-79 -79 -97 -219h583q-6 134 -74 215q-69 82 -204 82zM494 1198l-177 318h197l156 -318h-176z" />
    <glyph glyph-name="eacute" unicode="&#xe9;" horiz-adv-x="1140" 
d="M594 -29q-154 0 -269 68q-113 67 -175 192q-62 126 -62 295q0 160 60 284q59 122 173 196q109 71 267 71q150 0 252 -66t155 -185q54 -122 54 -275v-86h-773q15 -160 97 -245t223 -85q91 0 157 32q64 31 85 83h188q-37 -127 -154 -203q-116 -76 -278 -76zM586 913
q-130 0 -208 -78q-79 -79 -97 -219h583q-6 134 -74 215q-69 82 -204 82zM645 1198h-176l156 318h196z" />
    <glyph glyph-name="ecircumflex" unicode="&#xea;" horiz-adv-x="1140" 
d="M594 -29q-154 0 -269 68q-113 67 -175 192q-62 126 -62 295q0 160 60 284q59 122 173 196q109 71 267 71q150 0 252 -66t155 -185q54 -122 54 -275v-86h-773q15 -160 97 -245t223 -85q91 0 157 32q64 31 85 83h188q-37 -127 -154 -203q-116 -76 -278 -76zM586 913
q-130 0 -208 -78q-79 -79 -97 -219h583q-6 134 -74 215q-69 82 -204 82zM221 1198l246 318h205l246 -318h-185l-164 197l-163 -197h-185z" />
    <glyph glyph-name="edieresis" unicode="&#xeb;" horiz-adv-x="1140" 
d="M594 -29q-154 0 -269 68q-113 67 -175 192q-62 126 -62 295q0 160 60 284q59 122 173 196q109 71 267 71q150 0 252 -66t155 -185q54 -122 54 -275v-86h-773q15 -160 97 -245t223 -85q91 0 157 32q64 31 85 83h188q-37 -127 -154 -203q-116 -76 -278 -76zM586 913
q-130 0 -208 -78q-79 -79 -97 -219h583q-6 134 -74 215q-69 82 -204 82zM758 1235q-51 0 -85 34t-34 83t34 83q33 33 85 33q51 0 84 -33q35 -35 35 -83t-35 -83q-34 -34 -84 -34zM381 1235q-50 0 -84 34q-35 35 -35 83t35 83q33 33 84 33q52 0 85 -33q34 -34 34 -83t-34 -83
t-85 -34z" />
    <glyph glyph-name="igrave" unicode="&#xec;" horiz-adv-x="489" 
d="M154 0v1049h182v-1049h-182zM170 1198l-176 318h196l156 -318h-176z" />
    <glyph glyph-name="iacute" unicode="&#xed;" horiz-adv-x="489" 
d="M154 0v1049h182v-1049h-182zM322 1198h-177l156 318h197z" />
    <glyph glyph-name="icircumflex" unicode="&#xee;" horiz-adv-x="489" 
d="M154 0v1049h182v-1049h-182zM-72 1198l215 318h205l215 -318h-184l-133 184l-133 -184h-185z" />
    <glyph glyph-name="idieresis" unicode="&#xef;" horiz-adv-x="489" 
d="M154 0v1049h182v-1049h-182zM74 1233q-51 0 -85 34t-34 85q0 49 34 83q33 33 85 33q51 0 84 -33q35 -35 35 -83q0 -50 -35 -85q-34 -34 -84 -34zM418 1233q-50 0 -84 34q-35 35 -35 85q0 48 35 83q33 33 84 33q52 0 85 -33q34 -34 34 -83q0 -51 -34 -85t-85 -34z" />
    <glyph glyph-name="eth" unicode="&#xf0;" horiz-adv-x="1193" 
d="M594 -31q-147 0 -262 68t-179 187q-65 121 -65 274q0 158 64 278q63 119 173 185q108 65 242 65q102 0 187 -46q86 -47 145 -128q-23 96 -68 184t-116 168l-301 -96v141l192 62q-96 85 -237 174h252q83 -54 155 -119l289 92v-141l-184 -60q120 -147 167 -323
q48 -178 48 -395q0 -179 -65 -307t-177 -195q-113 -68 -260 -68zM594 137q138 0 227 100q88 98 88 261q0 108 -43 190q-44 83 -114 127q-72 45 -158 45q-142 0 -230 -99q-90 -101 -90 -263q0 -160 90 -261q89 -100 230 -100z" />
    <glyph glyph-name="ntilde" unicode="&#xf1;" horiz-adv-x="1177" 
d="M336 621v-621h-182v1049h178v-142q56 83 141 126q86 44 189 44q117 0 199 -55q83 -56 128 -152t45 -221v-649h-182v614q0 136 -60 216q-60 79 -182 79q-75 0 -135 -33q-64 -35 -101 -99q-38 -65 -38 -156zM750 1202q-40 0 -86 16q-42 15 -103 54q-42 30 -60 37
q-22 8 -42 8q-64 0 -64 -70v-41h-143v68q0 91 52 143q53 53 136 53q46 0 87 -14q48 -16 102 -55q41 -28 61 -36q21 -9 41 -9q64 0 64 69v41h143v-67q0 -90 -52 -143q-52 -54 -136 -54z" />
    <glyph glyph-name="ograve" unicode="&#xf2;" horiz-adv-x="1187" 
d="M594 -29q-146 0 -262 70q-114 69 -179 195q-65 125 -65 288q0 164 65 289q65 126 179 195t262 69q149 0 263 -69q112 -68 178 -195q65 -125 65 -289q0 -163 -65 -288q-66 -127 -178 -195q-116 -70 -263 -70zM594 139q141 0 230 106t89 279q0 175 -89 281
q-88 104 -230 104t-230 -104q-90 -107 -90 -281q0 -172 90 -279q89 -106 230 -106zM518 1198l-176 318h197l155 -318h-176z" />
    <glyph glyph-name="oacute" unicode="&#xf3;" horiz-adv-x="1187" 
d="M594 -29q-146 0 -262 70q-114 69 -179 195q-65 125 -65 288q0 164 65 289q65 126 179 195t262 69q149 0 263 -69q112 -68 178 -195q65 -125 65 -289q0 -163 -65 -288q-66 -127 -178 -195q-116 -70 -263 -70zM594 139q141 0 230 106t89 279q0 175 -89 281
q-88 104 -230 104t-230 -104q-90 -107 -90 -281q0 -172 90 -279q89 -106 230 -106zM670 1198h-176l155 318h197z" />
    <glyph glyph-name="ocircumflex" unicode="&#xf4;" horiz-adv-x="1187" 
d="M594 -29q-146 0 -262 70q-114 69 -179 195q-65 125 -65 288q0 164 65 289q65 126 179 195t262 69q149 0 263 -69q112 -68 178 -195q65 -125 65 -289q0 -163 -65 -288q-66 -127 -178 -195q-116 -70 -263 -70zM594 139q141 0 230 106t89 279q0 175 -89 281
q-88 104 -230 104t-230 -104q-90 -107 -90 -281q0 -172 90 -279q89 -106 230 -106zM246 1198l246 318h204l246 -318h-184l-164 197l-164 -197h-184z" />
    <glyph glyph-name="otilde" unicode="&#xf5;" horiz-adv-x="1187" 
d="M594 -29q-146 0 -262 70q-114 69 -179 195q-65 125 -65 288q0 164 65 289q65 126 179 195t262 69q149 0 263 -69q112 -68 178 -195q65 -125 65 -289q0 -163 -65 -288q-66 -127 -178 -195q-116 -70 -263 -70zM594 139q141 0 230 106t89 279q0 175 -89 281
q-88 104 -230 104t-230 -104q-90 -107 -90 -281q0 -172 90 -279q89 -106 230 -106zM748 1202q-40 0 -86 16q-42 15 -103 54q-42 30 -60 37q-22 8 -42 8q-64 0 -64 -70v-41h-143v68q0 91 52 143q53 53 136 53q46 0 87 -14q48 -16 102 -55q41 -28 61 -36q21 -9 41 -9
q64 0 64 69v41h143v-67q0 -90 -52 -143q-52 -54 -136 -54z" />
    <glyph glyph-name="odieresis" unicode="&#xf6;" horiz-adv-x="1187" 
d="M594 -29q-146 0 -262 70q-114 69 -179 195q-65 125 -65 288q0 164 65 289q65 126 179 195t262 69q149 0 263 -69q112 -68 178 -195q65 -125 65 -289q0 -163 -65 -288q-66 -127 -178 -195q-116 -70 -263 -70zM594 139q141 0 230 106t89 279q0 175 -89 281
q-88 104 -230 104t-230 -104q-90 -107 -90 -281q0 -172 90 -279q89 -106 230 -106zM782 1235q-51 0 -85 34q-33 33 -33 83t33 83t85 33q51 0 84 -33q35 -35 35 -83t-35 -83q-34 -34 -84 -34zM406 1235q-50 0 -84 34q-35 35 -35 83t35 83q33 33 84 33t84 -33q34 -34 34 -83
t-34 -83t-84 -34z" />
    <glyph glyph-name="divide" unicode="&#xf7;" 
d="M627 956q-49 0 -82 34t-33 81t33 80t82 33t82 -33q32 -32 32 -80t-32 -81q-33 -34 -82 -34zM158 604v160h938v-160h-938zM627 184q-49 0 -82 34t-33 81t33 80t82 33t82 -33q32 -32 32 -80t-32 -81q-33 -34 -82 -34z" />
    <glyph glyph-name="oslash" unicode="&#xf8;" horiz-adv-x="1187" 
d="M113 -98l133 207q-76 73 -117 180q-41 108 -41 235q0 164 65 289q66 127 178 195q114 69 263 69q125 0 233 -53l78 123h170l-133 -207q76 -74 117 -180q41 -108 41 -236q0 -163 -65 -288q-66 -127 -178 -195q-116 -70 -263 -70q-124 0 -234 54l-77 -123h-170zM272 524
q0 -153 72 -258l391 613q-64 32 -141 32q-142 0 -232 -105t-90 -282zM594 137q141 0 231 107q90 106 90 280q0 154 -71 258l-391 -612q66 -33 141 -33z" />
    <glyph glyph-name="ugrave" unicode="&#xf9;" horiz-adv-x="1169" 
d="M834 424v625h182v-1049h-178v139q-52 -81 -131 -124q-80 -44 -179 -44q-177 0 -281 119t-104 311v648h183v-625q0 -126 66 -206q66 -79 181 -79q108 0 185 77q76 76 76 208zM506 1198l-176 318h196l156 -318h-176z" />
    <glyph glyph-name="uacute" unicode="&#xfa;" horiz-adv-x="1169" 
d="M834 424v625h182v-1049h-178v139q-52 -81 -131 -124q-80 -44 -179 -44q-177 0 -281 119t-104 311v648h183v-625q0 -126 66 -206q66 -79 181 -79q108 0 185 77q76 76 76 208zM657 1198h-176l156 318h197z" />
    <glyph glyph-name="ucircumflex" unicode="&#xfb;" horiz-adv-x="1169" 
d="M834 424v625h182v-1049h-178v139q-52 -81 -131 -124q-80 -44 -179 -44q-177 0 -281 119t-104 311v648h183v-625q0 -126 66 -206q66 -79 181 -79q108 0 185 77q76 76 76 208zM233 1198l246 318h205l246 -318h-185l-163 197l-164 -197h-185z" />
    <glyph glyph-name="udieresis" unicode="&#xfc;" horiz-adv-x="1169" 
d="M834 424v625h182v-1049h-178v139q-52 -81 -131 -124q-80 -44 -179 -44q-177 0 -281 119t-104 311v648h183v-625q0 -126 66 -206q66 -79 181 -79q108 0 185 77q76 76 76 208zM770 1235q-51 0 -85 34t-34 83t34 83q33 33 85 33q51 0 84 -33q35 -35 35 -83t-35 -83
q-34 -34 -84 -34zM393 1235q-50 0 -84 34q-35 35 -35 83t35 83q33 33 84 33q52 0 85 -33q34 -34 34 -83t-34 -83t-85 -34z" />
    <glyph glyph-name="yacute" unicode="&#xfd;" horiz-adv-x="1069" 
d="M268 -420l174 420l-415 1049h206l308 -834l303 834h198l-579 -1469h-195zM614 1198h-176l156 318h197z" />
    <glyph glyph-name="thorn" unicode="&#xfe;" horiz-adv-x="1236" 
d="M154 -420v1905h182v-600q56 91 143 141q89 51 201 51q141 0 245 -70q105 -71 165 -195q59 -122 59 -288q0 -164 -59 -286q-61 -126 -165 -196q-106 -71 -245 -71q-111 0 -201 52q-87 50 -143 141v-584h-182zM647 139q138 0 227 106t89 279q0 174 -89 280
q-89 105 -227 105q-142 0 -230 -106q-89 -107 -89 -279q0 -171 89 -278t230 -107z" />
    <glyph glyph-name="ydieresis" unicode="&#xff;" horiz-adv-x="1069" 
d="M268 -420l174 420l-415 1049h206l308 -834l303 834h198l-579 -1469h-195zM727 1235q-51 0 -85 34t-34 83t34 83q33 33 85 33q51 0 84 -33q35 -35 35 -83t-35 -83q-34 -34 -84 -34zM350 1235q-50 0 -84 34q-35 35 -35 83t35 83q33 33 84 33q52 0 85 -33q34 -34 34 -83
t-34 -83t-85 -34z" />
    <glyph glyph-name="Amacron" unicode="&#x100;" horiz-adv-x="1411" 
d="M1167 0l-149 383h-633l-147 -383h-201l569 1425h197l571 -1425h-207zM451 557h499l-250 647zM385 1812h639v-155h-639v155z" />
    <glyph glyph-name="amacron" unicode="&#x101;" horiz-adv-x="1095" 
d="M436 -29q-161 0 -260 87q-98 86 -98 237q0 160 116 249t328 89h248v45q0 127 -64 181t-178 54q-96 0 -155 -36q-61 -37 -76 -91h-184q27 129 138 210t279 81q196 0 309 -100t113 -313v-664h-172v158q-56 -95 -149 -141t-195 -46zM477 131q65 0 135 31q67 30 113 91
q45 60 45 153v77h-235q-129 0 -201 -45t-72 -135q0 -84 61 -128t154 -44zM240 1438h614v-154h-614v154z" />
    <glyph glyph-name="Abreve" unicode="&#x102;" horiz-adv-x="1411" 
d="M1167 0l-149 383h-633l-147 -383h-201l569 1425h197l571 -1425h-207zM451 557h499l-250 647zM705 1569q-141 0 -238 83t-107 222h166q7 -71 57 -116q49 -44 122 -44q72 0 121 44q50 45 57 116h166q-7 -139 -106 -222q-98 -83 -238 -83z" />
    <glyph glyph-name="abreve" unicode="&#x103;" horiz-adv-x="1095" 
d="M436 -29q-161 0 -260 87q-98 86 -98 237q0 160 116 249t328 89h248v45q0 127 -64 181t-178 54q-96 0 -155 -36q-61 -37 -76 -91h-184q27 129 138 210t279 81q196 0 309 -100t113 -313v-664h-172v158q-56 -95 -149 -141t-195 -46zM477 131q65 0 135 31q67 30 113 91
q45 60 45 153v77h-235q-129 0 -201 -45t-72 -135q0 -84 61 -128t154 -44zM547 1192q-141 0 -232 85q-92 86 -102 234h164q7 -82 53 -129q45 -47 117 -47t117 47q46 47 53 129h164q-7 -147 -102 -234q-92 -85 -232 -85z" />
    <glyph glyph-name="Aogonek" unicode="&#x104;" horiz-adv-x="1411" 
d="M1167 0l-149 383h-633l-147 -383h-201l569 1425h197l571 -1425h-207zM451 557h499l-250 647zM1284 -492q-125 0 -198 62q-72 62 -72 160q0 194 260 317l82 -47q-103 -64 -141 -121q-37 -56 -37 -117q0 -58 40 -88t101 -30h65v-136h-100z" />
    <glyph glyph-name="aogonek" unicode="&#x105;" horiz-adv-x="1095" 
d="M436 -29q-161 0 -260 87q-98 86 -98 237q0 160 116 249t328 89h248v45q0 127 -64 181t-178 54q-96 0 -155 -36q-61 -37 -76 -91h-184q27 129 138 210t279 81q196 0 309 -100t113 -313v-664h-172v158q-56 -95 -149 -141t-195 -46zM477 131q65 0 135 31q67 30 113 91
q45 60 45 153v77h-235q-129 0 -201 -45t-72 -135q0 -84 61 -128t154 -44zM879 -492q-125 0 -198 62t-73 160q0 194 260 317l82 -47q-102 -63 -140 -121t-38 -117q0 -58 40 -88t101 -30h66v-136h-100z" />
    <glyph glyph-name="Cacute" unicode="&#x106;" horiz-adv-x="1462" 
d="M100 713q0 220 85 386q86 168 237 262q152 95 346 95q252 0 402 -126q151 -127 202 -341h-203q-34 132 -137 211q-102 78 -264 78q-138 0 -244 -69q-107 -69 -166 -195q-59 -125 -59 -301q0 -174 59 -299q61 -129 166 -197q108 -70 244 -70q160 0 266 77q103 75 137 202
h201q-50 -208 -201 -332q-152 -125 -403 -125q-192 0 -346 96q-151 94 -237 263q-85 167 -85 385zM846 1577h-180l180 301h203z" />
    <glyph glyph-name="cacute" unicode="&#x107;" horiz-adv-x="1097" 
d="M588 -29q-148 0 -262 70q-111 68 -175 195q-63 124 -63 288q0 162 63 287q64 126 175 196q112 70 262 70q182 0 295 -99t137 -247h-191q-15 80 -75 128q-62 50 -168 50q-138 0 -225 -105t-87 -280t87 -280t225 -105q106 0 169 48q61 46 76 128h189q-15 -95 -72 -175
q-57 -79 -148 -124q-92 -45 -212 -45zM664 1198h-177l156 318h197z" />
    <glyph glyph-name="Ccircumflex" unicode="&#x108;" horiz-adv-x="1462" 
d="M100 713q0 220 85 386q86 168 237 262q152 95 346 95q252 0 402 -126q151 -127 202 -341h-203q-34 132 -137 211q-102 78 -264 78q-138 0 -244 -69q-107 -69 -166 -195q-59 -125 -59 -301q0 -174 59 -299q61 -129 166 -197q108 -70 244 -70q160 0 266 77q103 75 137 202
h201q-50 -208 -201 -332q-152 -125 -403 -125q-192 0 -346 96q-151 94 -237 263q-85 167 -85 385zM408 1577l254 301h212l254 -301h-192l-168 182l-168 -182h-192z" />
    <glyph glyph-name="ccircumflex" unicode="&#x109;" horiz-adv-x="1097" 
d="M588 -29q-148 0 -262 70q-111 68 -175 195q-63 124 -63 288q0 162 63 287q64 126 175 196q112 70 262 70q182 0 295 -99t137 -247h-191q-15 80 -75 128q-62 50 -168 50q-138 0 -225 -105t-87 -280t87 -280t225 -105q106 0 169 48q61 46 76 128h189q-15 -95 -72 -175
q-57 -79 -148 -124q-92 -45 -212 -45zM240 1198l245 318h205l246 -318h-184l-164 197l-164 -197h-184z" />
    <glyph glyph-name="Cdotaccent" unicode="&#x10a;" horiz-adv-x="1462" 
d="M100 713q0 220 85 386q86 168 237 262q152 95 346 95q252 0 402 -126q151 -127 202 -341h-203q-34 132 -137 211q-102 78 -264 78q-138 0 -244 -69q-107 -69 -166 -195q-59 -125 -59 -301q0 -174 59 -299q61 -129 166 -197q108 -70 244 -70q160 0 266 77q103 75 137 202
h201q-50 -208 -201 -332q-152 -125 -403 -125q-192 0 -346 96q-151 94 -237 263q-85 167 -85 385zM768 1599q-51 0 -88 37t-37 88q0 54 37 90q36 35 88 35q54 0 89 -35q36 -36 36 -90q0 -50 -36 -88q-36 -37 -89 -37z" />
    <glyph glyph-name="cdotaccent" unicode="&#x10b;" horiz-adv-x="1097" 
d="M588 -29q-148 0 -262 70q-111 68 -175 195q-63 124 -63 288q0 162 63 287q64 126 175 196q112 70 262 70q182 0 295 -99t137 -247h-191q-15 80 -75 128q-62 50 -168 50q-138 0 -225 -105t-87 -280t87 -280t225 -105q106 0 169 48q61 46 76 128h189q-15 -95 -72 -175
q-57 -79 -148 -124q-92 -45 -212 -45zM588 1229q-51 0 -88 37t-37 88q0 53 37 89q38 36 88 36q53 0 89 -36t36 -89q0 -50 -36 -88q-36 -37 -89 -37z" />
    <glyph glyph-name="Ccaron" unicode="&#x10c;" horiz-adv-x="1462" 
d="M100 713q0 220 85 386q86 168 237 262q152 95 346 95q252 0 402 -126q151 -127 202 -341h-203q-34 132 -137 211q-102 78 -264 78q-138 0 -244 -69q-107 -69 -166 -195q-59 -125 -59 -301q0 -174 59 -299q61 -129 166 -197q108 -70 244 -70q160 0 266 77q103 75 137 202
h201q-50 -208 -201 -332q-152 -125 -403 -125q-192 0 -346 96q-151 94 -237 263q-85 167 -85 385zM662 1577l-254 301h192l168 -182l168 182h192l-254 -301h-212z" />
    <glyph glyph-name="ccaron" unicode="&#x10d;" horiz-adv-x="1097" 
d="M588 -29q-148 0 -262 70q-111 68 -175 195q-63 124 -63 288q0 162 63 287q64 126 175 196q112 70 262 70q182 0 295 -99t137 -247h-191q-15 80 -75 128q-62 50 -168 50q-138 0 -225 -105t-87 -280t87 -280t225 -105q106 0 169 48q61 46 76 128h189q-15 -95 -72 -175
q-57 -79 -148 -124q-92 -45 -212 -45zM485 1198l-245 318h184l164 -197l164 197h184l-246 -318h-205z" />
    <glyph glyph-name="Dcaron" unicode="&#x10e;" horiz-adv-x="1499" 
d="M184 0v1425h514q199 0 358 -87q160 -87 251 -246q92 -160 92 -379q0 -217 -92 -378t-251 -248t-358 -87h-514zM379 174h307q142 0 259 64t185 184q70 123 70 291q0 170 -70 292q-69 120 -185 183q-115 63 -259 63h-307v-1077zM616 1577l-254 301h193l168 -182l168 182
h192l-254 -301h-213z" />
    <glyph glyph-name="dcaron" unicode="&#x10f;" horiz-adv-x="1406" 
d="M557 -29q-137 0 -244 71q-105 70 -166 196q-59 122 -59 286q0 166 59 288q60 125 166 195t244 70q113 0 201 -51q87 -50 143 -141v600h182v-1485h-178v170q-57 -94 -143 -145q-91 -54 -205 -54zM590 139q141 0 230 107t89 278q0 172 -89 279q-88 106 -230 106
q-140 0 -228 -105q-88 -104 -88 -280q0 -175 88 -279q89 -106 228 -106zM1233 1024l12 461h178l-47 -461h-143z" />
    <glyph glyph-name="Dcroat" unicode="&#x110;" horiz-adv-x="1552" 
d="M238 0v668h-195v161h195v596h514q198 0 357 -87q160 -87 251 -246q92 -160 92 -379q0 -217 -92 -378t-251 -248t-357 -87h-514zM432 174h307q142 0 259 64q118 64 186 184q69 122 69 291q0 172 -69 292q-68 119 -186 183q-115 63 -259 63h-307v-422h336v-161h-336v-494z
" />
    <glyph glyph-name="dcroat" unicode="&#x111;" horiz-adv-x="1257" 
d="M557 -29q-133 0 -240 69q-106 69 -167 188q-62 121 -62 276q0 156 62 277q62 120 166 189q103 68 241 68q112 0 200 -50q87 -50 144 -138v324h-311v141h311v170h182v-170h158v-141h-158v-1174h-178v164q-55 -87 -144 -140t-204 -53zM592 139q90 0 163 47q72 46 114 129
t42 189q0 108 -42 191t-114 129q-71 46 -163 46q-91 0 -162 -46q-73 -47 -114 -128q-42 -82 -42 -192q0 -108 42 -190t114 -129q71 -46 162 -46z" />
    <glyph glyph-name="Emacron" unicode="&#x112;" horiz-adv-x="1312" 
d="M184 0v1425h990v-174h-795v-432h772v-174h-772v-471h805v-174h-1000zM358 1812h639v-155h-639v155z" />
    <glyph glyph-name="emacron" unicode="&#x113;" horiz-adv-x="1140" 
d="M594 -29q-154 0 -269 68q-113 67 -175 192q-62 126 -62 295q0 160 60 284q59 122 173 196q109 71 267 71q150 0 252 -66t155 -185q54 -122 54 -275v-86h-773q15 -160 97 -245t223 -85q91 0 157 32q64 31 85 83h188q-37 -127 -154 -203q-116 -76 -278 -76zM586 913
q-130 0 -208 -78q-79 -79 -97 -219h583q-6 134 -74 215q-69 82 -204 82zM262 1438h615v-154h-615v154z" />
    <glyph glyph-name="Ebreve" unicode="&#x114;" horiz-adv-x="1312" 
d="M184 0v1425h990v-174h-795v-432h772v-174h-772v-471h805v-174h-1000zM678 1569q-141 0 -238 83q-95 82 -106 222h166q8 -72 56 -116q49 -44 122 -44t122 44q48 44 56 116h166q-7 -139 -106 -222q-98 -83 -238 -83z" />
    <glyph glyph-name="ebreve" unicode="&#x115;" horiz-adv-x="1140" 
d="M594 -29q-154 0 -269 68q-113 67 -175 192q-62 126 -62 295q0 160 60 284q59 122 173 196q109 71 267 71q150 0 252 -66t155 -185q54 -122 54 -275v-86h-773q15 -160 97 -245t223 -85q91 0 157 32q64 31 85 83h188q-37 -127 -154 -203q-116 -76 -278 -76zM586 913
q-130 0 -208 -78q-79 -79 -97 -219h583q-6 134 -74 215q-69 82 -204 82zM569 1192q-140 0 -231 85q-92 86 -102 234h163q7 -81 54 -129q45 -47 116 -47q72 0 117 47q46 47 53 129h164q-7 -148 -101 -234q-92 -85 -233 -85z" />
    <glyph glyph-name="Edotaccent" unicode="&#x116;" horiz-adv-x="1312" 
d="M184 0v1425h990v-174h-795v-432h772v-174h-772v-471h805v-174h-1000zM678 1599q-51 0 -88 37t-37 88q0 54 37 90q36 35 88 35q54 0 89 -35q36 -36 36 -90q0 -50 -36 -88q-36 -37 -89 -37z" />
    <glyph glyph-name="edotaccent" unicode="&#x117;" horiz-adv-x="1140" 
d="M594 -29q-154 0 -269 68q-113 67 -175 192q-62 126 -62 295q0 160 60 284q59 122 173 196q109 71 267 71q150 0 252 -66t155 -185q54 -122 54 -275v-86h-773q15 -160 97 -245t223 -85q91 0 157 32q64 31 85 83h188q-37 -127 -154 -203q-116 -76 -278 -76zM586 913
q-130 0 -208 -78q-79 -79 -97 -219h583q-6 134 -74 215q-69 82 -204 82zM569 1229q-51 0 -88 37t-37 88q0 53 37 89t88 36q53 0 89 -36t36 -89q0 -50 -36 -88q-36 -37 -89 -37z" />
    <glyph glyph-name="Eogonek" unicode="&#x118;" horiz-adv-x="1312" 
d="M184 0v1425h990v-174h-795v-432h772v-174h-772v-471h805v-174h-1000zM1092 -492q-125 0 -198 62t-73 160q0 194 260 317l82 -47q-102 -63 -140 -121t-38 -117q0 -58 40 -88q41 -30 101 -30h66v-136h-100z" />
    <glyph glyph-name="eogonek" unicode="&#x119;" horiz-adv-x="1140" 
d="M594 -29q-154 0 -269 68q-113 67 -175 192q-62 126 -62 295q0 160 60 284q59 122 173 196q109 71 267 71q150 0 252 -66t155 -185q54 -122 54 -275v-86h-773q15 -160 97 -245t223 -85q91 0 157 32q64 31 85 83h188q-37 -127 -154 -203q-116 -76 -278 -76zM586 913
q-130 0 -208 -78q-79 -79 -97 -219h583q-6 134 -74 215q-69 82 -204 82zM750 -492q-125 0 -198 61t-73 161q0 63 30 120q31 59 101 120q70 62 201 136l78 -47q-113 -77 -162 -126q-55 -55 -70 -92q-16 -39 -16 -79q0 -59 41 -89q39 -29 102 -29h66v-136h-100z" />
    <glyph glyph-name="Ecaron" unicode="&#x11a;" horiz-adv-x="1312" 
d="M184 0v1425h990v-174h-795v-432h772v-174h-772v-471h805v-174h-1000zM571 1577l-254 301h193l168 -182l168 182h192l-254 -301h-213z" />
    <glyph glyph-name="ecaron" unicode="&#x11b;" horiz-adv-x="1140" 
d="M594 -29q-154 0 -269 68q-113 67 -175 192q-62 126 -62 295q0 160 60 284q59 122 173 196q109 71 267 71q150 0 252 -66t155 -185q54 -122 54 -275v-86h-773q15 -160 97 -245t223 -85q91 0 157 32q64 31 85 83h188q-37 -127 -154 -203q-116 -76 -278 -76zM586 913
q-130 0 -208 -78q-79 -79 -97 -219h583q-6 134 -74 215q-69 82 -204 82zM467 1198l-246 318h185l163 -197l164 197h185l-246 -318h-205z" />
    <glyph glyph-name="Gcircumflex" unicode="&#x11c;" horiz-adv-x="1536" 
d="M793 -31q-204 0 -362 97q-157 97 -244 264q-87 168 -87 383q0 218 88 385q89 168 245 263q157 95 358 95q226 0 385 -105t225 -294h-205q-45 98 -152 160q-106 61 -253 61q-141 0 -254 -70q-111 -69 -174 -195q-64 -128 -64 -300q0 -173 62 -298q64 -129 175 -198
q113 -70 261 -70q127 0 228 55q99 54 156 148q56 93 56 215v37h-446v174h641v-178q0 -180 -80 -323q-78 -141 -224 -224q-143 -82 -335 -82zM424 1577l254 301h213l254 -301h-193l-168 182l-168 -182h-192z" />
    <glyph glyph-name="gcircumflex" unicode="&#x11d;" horiz-adv-x="1236" 
d="M557 -6q-137 0 -244 69q-105 68 -166 193q-59 121 -59 279q0 159 59 280q61 125 166 193q107 69 244 69q117 0 205 -52q87 -52 143 -142v166h178v-1018q0 -227 -125 -354q-124 -126 -348 -126q-190 0 -315 84q-124 84 -162 215h197q33 -57 100 -94t176 -37q144 0 220 74
q75 74 75 227v164q-56 -89 -143 -139q-88 -51 -201 -51zM590 162q94 0 166 48q71 48 112 132q41 85 41 195q0 109 -41 194t-112 131q-73 47 -166 47q-91 0 -164 -47q-71 -46 -112 -131q-40 -83 -40 -194q0 -112 40 -195q41 -84 112 -132q72 -48 164 -48zM254 1198l246 318
h205l245 -318h-184l-164 197l-164 -197h-184z" />
    <glyph glyph-name="Gbreve" unicode="&#x11e;" horiz-adv-x="1536" 
d="M793 -31q-204 0 -362 97q-157 97 -244 264q-87 168 -87 383q0 218 88 385q89 168 245 263q157 95 358 95q226 0 385 -105t225 -294h-205q-45 98 -152 160q-106 61 -253 61q-141 0 -254 -70q-111 -69 -174 -195q-64 -128 -64 -300q0 -173 62 -298q64 -129 175 -198
q113 -70 261 -70q127 0 228 55q99 54 156 148q56 93 56 215v37h-446v174h641v-178q0 -180 -80 -323q-78 -141 -224 -224q-143 -82 -335 -82zM784 1569q-140 0 -237 83t-107 222h166q7 -71 57 -116q49 -44 121 -44q73 0 122 44q50 45 57 116h165q-8 -140 -105 -222
q-98 -83 -239 -83z" />
    <glyph glyph-name="gbreve" unicode="&#x11f;" horiz-adv-x="1236" 
d="M557 -6q-137 0 -244 69q-105 68 -166 193q-59 121 -59 279q0 159 59 280q61 125 166 193q107 69 244 69q117 0 205 -52q87 -52 143 -142v166h178v-1018q0 -227 -125 -354q-124 -126 -348 -126q-190 0 -315 84q-124 84 -162 215h197q33 -57 100 -94t176 -37q144 0 220 74
q75 74 75 227v164q-56 -89 -143 -139q-88 -51 -201 -51zM590 162q94 0 166 48q71 48 112 132q41 85 41 195q0 109 -41 194t-112 131q-73 47 -166 47q-91 0 -164 -47q-71 -46 -112 -131q-40 -83 -40 -194q0 -112 40 -195q41 -84 112 -132q72 -48 164 -48zM602 1192
q-140 0 -231 85q-93 87 -103 234h164q7 -82 53 -129q45 -47 117 -47t117 47q46 47 53 129h164q-7 -148 -101 -234q-92 -85 -233 -85z" />
    <glyph glyph-name="Gdotaccent" unicode="&#x120;" horiz-adv-x="1536" 
d="M793 -31q-204 0 -362 97q-157 97 -244 264q-87 168 -87 383q0 218 88 385q89 168 245 263q157 95 358 95q226 0 385 -105t225 -294h-205q-45 98 -152 160q-106 61 -253 61q-141 0 -254 -70q-111 -69 -174 -195q-64 -128 -64 -300q0 -173 62 -298q64 -129 175 -198
q113 -70 261 -70q127 0 228 55q99 54 156 148q56 93 56 215v37h-446v174h641v-178q0 -180 -80 -323q-78 -141 -224 -224q-143 -82 -335 -82zM784 1599q-51 0 -88 37t-37 88q0 54 37 90q36 35 88 35q54 0 89 -35q36 -36 36 -90q0 -50 -36 -88q-36 -37 -89 -37z" />
    <glyph glyph-name="gdotaccent" unicode="&#x121;" horiz-adv-x="1236" 
d="M557 -6q-137 0 -244 69q-105 68 -166 193q-59 121 -59 279q0 159 59 280q61 125 166 193q107 69 244 69q117 0 205 -52q87 -52 143 -142v166h178v-1018q0 -227 -125 -354q-124 -126 -348 -126q-190 0 -315 84q-124 84 -162 215h197q33 -57 100 -94t176 -37q144 0 220 74
q75 74 75 227v164q-56 -89 -143 -139q-88 -51 -201 -51zM590 162q94 0 166 48q71 48 112 132q41 85 41 195q0 109 -41 194t-112 131q-73 47 -166 47q-91 0 -164 -47q-71 -46 -112 -131q-40 -83 -40 -194q0 -112 40 -195q41 -84 112 -132q72 -48 164 -48zM602 1229
q-51 0 -88 37t-37 88q0 53 37 89q38 36 88 36q53 0 89 -36t36 -89q0 -50 -36 -88q-36 -37 -89 -37z" />
    <glyph glyph-name="uni0122" unicode="&#x122;" horiz-adv-x="1536" 
d="M793 -31q-204 0 -362 97q-157 97 -244 264q-87 168 -87 383q0 218 88 385q89 168 245 263q157 95 358 95q226 0 385 -105t225 -294h-205q-45 98 -152 160q-106 61 -253 61q-141 0 -254 -70q-111 -69 -174 -195q-64 -128 -64 -300q0 -173 62 -298q64 -129 175 -198
q113 -70 261 -70q127 0 228 55q99 54 156 148q56 93 56 215v37h-446v174h641v-178q0 -180 -80 -323q-78 -141 -224 -224q-143 -82 -335 -82zM664 -522q42 62 68 107q23 40 42 96q-51 5 -78 32q-28 28 -28 72q0 48 32 79q34 32 88 32q62 0 98 -37q36 -38 36 -97
q0 -62 -27 -128t-90 -156h-141z" />
    <glyph glyph-name="uni0123" unicode="&#x123;" horiz-adv-x="1236" 
d="M557 -6q-137 0 -244 69q-105 68 -166 193q-59 121 -59 279q0 159 59 280q61 125 166 193q107 69 244 69q117 0 205 -52q87 -52 143 -142v166h178v-1018q0 -227 -125 -354q-124 -126 -348 -126q-190 0 -315 84q-124 84 -162 215h197q33 -57 100 -94t176 -37q144 0 220 74
q75 74 75 227v164q-56 -89 -143 -139q-88 -51 -201 -51zM590 162q94 0 166 48q71 48 112 132q41 85 41 195q0 109 -41 194t-112 131q-73 47 -166 47q-91 0 -164 -47q-71 -46 -112 -131q-40 -83 -40 -194q0 -112 40 -195q41 -84 112 -132q72 -48 164 -48zM606 1169
q-64 0 -98 37q-35 38 -35 94q0 66 30 141t97 169h143q-42 -57 -75 -118q-22 -41 -47 -108q49 -4 77 -32q29 -29 29 -74q0 -46 -33 -77q-34 -32 -88 -32z" />
    <glyph glyph-name="Hcircumflex" unicode="&#x124;" horiz-adv-x="1570" 
d="M184 0v1425h195v-589h813v589h194v-1425h-194v662h-813v-662h-195zM426 1577l254 301h213l254 -301h-193l-168 182l-168 -182h-192z" />
    <glyph glyph-name="hcircumflex" unicode="&#x125;" horiz-adv-x="1177" 
d="M154 0v1485h182v-574q56 80 140 123q85 43 186 43q117 0 199 -55q83 -56 128 -152t45 -221v-649h-182v614q0 136 -60 216q-60 79 -182 79q-75 0 -135 -33q-64 -35 -101 -99q-38 -65 -38 -156v-621h-182zM-115 1577l254 301h213l254 -301h-192l-168 182l-168 -182h-193z
" />
    <glyph glyph-name="Hbar" unicode="&#x126;" horiz-adv-x="1652" 
d="M225 0v1044h-164v156h164v225h195v-225h813v225h194v-225h164v-156h-164v-1044h-194v639h-813v-639h-195zM420 813h813v231h-813v-231z" />
    <glyph glyph-name="hbar" unicode="&#x127;" horiz-adv-x="1198" 
d="M174 0v1171h-158v146h158v168h182v-168h312v-146h-312v-299q56 80 141 123t185 43q118 0 200 -55q83 -56 128 -152t45 -221v-610h-183v575q0 137 -60 217q-59 78 -181 78q-75 0 -135 -33q-65 -36 -102 -99q-38 -65 -38 -156v-582h-182z" />
    <glyph glyph-name="Itilde" unicode="&#x128;" horiz-adv-x="563" 
d="M379 0h-195v1425h195v-1425zM438 1575q-40 0 -83 12q-45 12 -99 49q-34 24 -66 40q-24 12 -49 12q-69 0 -69 -70v-39h-148v68q0 90 56 144t143 54q41 0 84 -12t98 -49q36 -24 66 -39q24 -12 49 -12q69 0 69 67v41h148v-67q0 -91 -54 -145t-145 -54z" />
    <glyph glyph-name="itilde" unicode="&#x129;" horiz-adv-x="489" 
d="M154 0v1049h182v-1049h-182zM381 1202q-45 0 -78 13q-35 13 -90 57q-41 29 -50 35q-17 10 -38 10q-47 0 -47 -60v-51h-146v68q0 89 49 143q48 53 130 53q44 0 77 -13q39 -15 91 -56q41 -29 50 -35q17 -10 38 -10q47 0 47 59v51h145v-67q0 -88 -47 -143q-46 -54 -131 -54z
" />
    <glyph glyph-name="Imacron" unicode="&#x12a;" horiz-adv-x="563" 
d="M379 0h-195v1425h195v-1425zM-39 1812h639v-155h-639v155z" />
    <glyph glyph-name="imacron" unicode="&#x12b;" horiz-adv-x="489" 
d="M154 0v1049h182v-1049h-182zM-51 1438h594v-154h-594v154z" />
    <glyph glyph-name="Ibreve" unicode="&#x12c;" horiz-adv-x="563" 
d="M379 0h-195v1425h195v-1425zM281 1569q-141 0 -238 83q-95 82 -106 222h165q7 -71 57 -116q49 -44 122 -44q72 0 121 44q50 45 57 116h166q-7 -139 -106 -222q-98 -83 -238 -83z" />
    <glyph glyph-name="ibreve" unicode="&#x12d;" horiz-adv-x="489" 
d="M154 0v1049h182v-1049h-182zM246 1192q-138 0 -223 85q-87 87 -93 234h166q7 -82 44 -129q36 -47 106 -47q69 0 105 47q37 47 44 129h166q-6 -149 -91 -234t-224 -85z" />
    <glyph glyph-name="Iogonek" unicode="&#x12e;" horiz-adv-x="563" 
d="M379 0h-195v1425h195v-1425zM297 -492q-125 0 -198 62q-72 62 -72 160q0 194 260 317l82 -47q-103 -64 -141 -121q-38 -58 -38 -117q0 -58 40 -88t102 -30h65v-136h-100z" />
    <glyph glyph-name="iogonek" unicode="&#x12f;" horiz-adv-x="489" 
d="M246 1200q-52 0 -89 37q-38 38 -38 90t38 90q37 37 89 37q53 0 90 -37t37 -90t-37 -90t-90 -37zM154 0v1049h182v-1049h-182zM258 -492q-125 0 -198 62q-72 62 -72 160q0 194 260 317l82 -47q-103 -64 -141 -121q-37 -56 -37 -117q0 -59 39 -88q41 -30 102 -30h65v-136
h-100z" />
    <glyph glyph-name="Idotaccent" unicode="&#x130;" horiz-adv-x="563" 
d="M379 0h-195v1425h195v-1425zM281 1599q-51 0 -88 37t-37 88q0 54 37 90q36 35 88 35q54 0 89 -35q36 -36 36 -90q0 -50 -36 -88q-36 -37 -89 -37z" />
    <glyph glyph-name="dotlessi" unicode="&#x131;" horiz-adv-x="489" 
d="M154 0v1049h182v-1049h-182z" />
    <glyph glyph-name="IJ" unicode="&#x132;" horiz-adv-x="1456" 
d="M729 -31q-151 0 -273 57q-125 59 -199 159q-76 103 -93 245h203q18 -125 112 -204t250 -79q106 0 189 40q84 41 132 126t48 222v890h194v-901q0 -183 -77 -308q-76 -124 -203 -185q-129 -62 -283 -62zM166 672v753h194v-753h-194z" />
    <glyph glyph-name="ij" unicode="&#x133;" horiz-adv-x="978" 
d="M246 1200q-52 0 -89 37q-38 38 -38 90t38 90q37 37 89 37q53 0 90 -37t37 -90t-37 -90t-90 -37zM154 0v1049h182v-1049h-182zM735 1200q-52 0 -89 37q-38 38 -38 90t38 90q37 37 89 37q53 0 90 -37t37 -90t-37 -90t-90 -37zM432 -420v164h55q78 0 117 51t39 139v1115h182
v-1133q0 -160 -76 -248t-229 -88h-88z" />
    <glyph glyph-name="Jcircumflex" unicode="&#x134;" horiz-adv-x="1239" 
d="M881 444v981h194v-983q0 -140 -59 -245q-61 -108 -169 -167q-111 -61 -263 -61q-224 0 -363 123t-162 324h195q17 -126 104 -197q88 -72 226 -72q133 0 215 82t82 215zM618 1577l254 301h213l254 -301h-192l-168 182l-168 -182h-193z" />
    <glyph glyph-name="jcircumflex" unicode="&#x135;" horiz-adv-x="489" 
d="M-57 -420v164h55q78 0 117 51t39 139v1115h182v-1133q0 -159 -77 -248q-76 -88 -228 -88h-88zM-72 1198l215 318h205l215 -318h-184l-133 184l-133 -184h-185z" />
    <glyph glyph-name="uni0136" unicode="&#x136;" horiz-adv-x="1351" 
d="M184 0v1425h195v-612l665 612h250l-751 -686l786 -739h-266l-684 643v-643h-195zM590 -522q42 62 68 107q23 40 42 96q-50 5 -77 32q-29 29 -29 72q0 47 33 79q34 32 88 32q61 0 97 -37q36 -38 36 -97q0 -62 -27 -128t-90 -156h-141z" />
    <glyph glyph-name="uni0137" unicode="&#x137;" horiz-adv-x="1089" 
d="M154 0v1485h182v-875l461 439h231l-522 -496l567 -553h-239l-498 494v-494h-182zM446 -522q49 71 69 107q23 40 42 96q-51 5 -78 32q-28 28 -28 72q0 48 32 79q34 32 88 32q62 0 98 -37q36 -38 36 -97q0 -62 -27 -128t-90 -156h-142z" />
    <glyph glyph-name="kgreenlandic" unicode="&#x138;" horiz-adv-x="1089" 
d="M154 0v1049h182v-459l461 459h231l-522 -514l567 -535h-239l-498 473v-473h-182z" />
    <glyph glyph-name="Lacute" unicode="&#x139;" horiz-adv-x="1232" 
d="M1151 174v-174h-967v1425h195v-1251h772zM358 1577h-180l180 301h203z" />
    <glyph glyph-name="lacute" unicode="&#x13a;" horiz-adv-x="489" 
d="M154 0v1485h182v-1485h-182zM324 1636h-181l181 301h202z" />
    <glyph glyph-name="uni013B" unicode="&#x13b;" horiz-adv-x="1232" 
d="M1151 174v-174h-967v1425h195v-1251h772zM545 -522q42 62 68 107q23 40 42 96q-49 5 -77 32q-29 29 -29 72q0 47 33 79q34 32 88 32q61 0 97 -37q36 -38 36 -97q0 -62 -27 -128t-90 -156h-141z" />
    <glyph glyph-name="uni013C" unicode="&#x13c;" horiz-adv-x="489" 
d="M154 0v1485h182v-1485h-182zM117 -522q42 62 68 107q23 40 42 96q-49 5 -77 32q-29 29 -29 72q0 47 33 79q34 32 88 32q61 0 97 -37t36 -97q0 -62 -27 -128t-90 -156h-141z" />
    <glyph glyph-name="Lcaron" unicode="&#x13d;" horiz-adv-x="1232" 
d="M1151 174v-174h-967v1425h195v-1251h772zM598 965l12 460h178l-47 -460h-143z" />
    <glyph glyph-name="lcaron" unicode="&#x13e;" horiz-adv-x="659" 
d="M154 0v1485h182v-1485h-182zM485 1024l13 461h178l-47 -461h-144z" />
    <glyph glyph-name="Ldot" unicode="&#x13f;" horiz-adv-x="1232" 
d="M1151 174v-174h-967v1425h195v-1251h772zM877 614q-55 0 -96 39q-40 39 -40 97q0 57 40 96q41 39 96 39t95 -39t40 -96q0 -58 -40 -97t-95 -39z" />
    <glyph glyph-name="ldot" unicode="&#x140;" horiz-adv-x="796" 
d="M154 0v1485h182v-1485h-182zM635 614q-55 0 -95 39t-40 97q0 57 40 96t95 39t95 -39t40 -96q0 -58 -40 -97t-95 -39z" />
    <glyph glyph-name="Lslash" unicode="&#x141;" horiz-adv-x="1282" 
d="M233 0v616l-196 -108v178l196 109v630h195v-524l358 197v-178l-358 -197v-549h772v-174h-967z" />
    <glyph glyph-name="lslash" unicode="&#x142;" horiz-adv-x="567" 
d="M193 0v649l-179 -114v165l179 115v670h182v-555l178 114v-165l-178 -115v-764h-182z" />
    <glyph glyph-name="Nacute" unicode="&#x143;" horiz-adv-x="1566" 
d="M184 0v1425h193l813 -1118v1118h192v-1425h-192l-813 1118v-1118h-193zM860 1577h-180l180 301h203z" />
    <glyph glyph-name="nacute" unicode="&#x144;" horiz-adv-x="1177" 
d="M336 621v-621h-182v1049h178v-142q56 83 141 126q86 44 189 44q117 0 199 -55q83 -56 128 -152t45 -221v-649h-182v614q0 136 -60 216q-60 79 -182 79q-75 0 -135 -33q-64 -35 -101 -99q-38 -65 -38 -156zM672 1198h-176l155 318h197z" />
    <glyph glyph-name="uni0145" unicode="&#x145;" horiz-adv-x="1566" 
d="M184 0v1425h193l813 -1118v1118h192v-1425h-192l-813 1118v-1118h-193zM653 -522q49 71 69 107q23 40 42 96q-51 5 -78 32q-29 29 -29 72q0 47 33 79q34 32 88 32q62 0 98 -37q35 -36 35 -97q0 -64 -26 -128q-27 -66 -90 -156h-142z" />
    <glyph glyph-name="uni0146" unicode="&#x146;" horiz-adv-x="1177" 
d="M336 621v-621h-182v1049h178v-142q56 83 141 126q86 44 189 44q117 0 199 -55q83 -56 128 -152t45 -221v-649h-182v614q0 136 -60 216q-60 79 -182 79q-75 0 -135 -33q-64 -35 -101 -99q-38 -65 -38 -156zM467 -522q49 71 69 107q23 40 42 96q-51 5 -78 32q-29 29 -29 72
q0 47 33 79q34 32 88 32q61 0 97 -37q36 -38 36 -97q0 -62 -27 -128t-90 -156h-141z" />
    <glyph glyph-name="Ncaron" unicode="&#x147;" horiz-adv-x="1566" 
d="M184 0v1425h193l813 -1118v1118h192v-1425h-192l-813 1118v-1118h-193zM676 1577l-254 301h192l168 -182l168 182h193l-254 -301h-213z" />
    <glyph glyph-name="ncaron" unicode="&#x148;" horiz-adv-x="1177" 
d="M336 621v-621h-182v1049h178v-142q56 83 141 126q86 44 189 44q117 0 199 -55q83 -56 128 -152t45 -221v-649h-182v614q0 136 -60 216q-60 79 -182 79q-75 0 -135 -33q-64 -35 -101 -99q-38 -65 -38 -156zM494 1198l-246 318h184l164 -197l164 197h184l-246 -318h-204z
" />
    <glyph glyph-name="napostrophe" unicode="&#x149;" horiz-adv-x="1488" 
d="M90 942q74 111 107 174q34 65 49 125q-52 6 -82 38q-31 33 -31 79q0 50 36 87q36 38 95 38q66 0 104 -42q38 -43 38 -112q0 -81 -35 -171q-34 -87 -119 -216h-162zM647 621v-621h-182v1049h178v-142q55 83 141 126q86 44 189 44q117 0 199 -55q83 -56 128 -152
q46 -98 46 -221v-649h-183v614q0 136 -60 216q-60 79 -181 79q-76 0 -136 -33q-64 -35 -101 -99q-38 -65 -38 -156z" />
    <glyph glyph-name="Eng" unicode="&#x14a;" horiz-adv-x="1546" 
d="M184 0v1425h189v-235q74 128 197 196q126 70 276 70q171 0 292 -80q118 -78 182 -217q62 -134 62 -309v-524q0 -164 -82 -249t-229 -85h-106v168h67q78 0 117 47t39 127v485q0 214 -97 336q-97 123 -288 123q-118 0 -213 -52q-98 -54 -154 -154q-57 -102 -57 -249v-823
h-195z" />
    <glyph glyph-name="eng" unicode="&#x14b;" horiz-adv-x="1177" 
d="M639 -420v164h55q80 0 119 51t39 139v680q0 136 -60 216q-60 79 -182 79q-75 0 -135 -33q-64 -35 -101 -99q-38 -65 -38 -156v-621h-182v1049h178v-142q56 83 141 126q86 44 189 44q117 0 199 -55q83 -56 128 -152t45 -221v-733q0 -160 -78 -248t-229 -88h-88z" />
    <glyph glyph-name="Omacron" unicode="&#x14c;" horiz-adv-x="1609" 
d="M805 -31q-153 0 -283 56t-223 155q-92 98 -146 236q-53 136 -53 297t53 297t146 235q95 101 223 156t283 55q154 0 282 -55q130 -56 224 -156q93 -99 146 -235q52 -134 52 -297t-52 -297q-54 -138 -146 -236q-93 -98 -224 -155q-130 -56 -282 -56zM805 147q148 0 262 72
t179 200t65 294t-65 294q-64 126 -179 199q-114 72 -262 72q-147 0 -261 -72q-113 -71 -179 -199q-66 -127 -66 -294t66 -294q67 -129 179 -200q114 -72 261 -72zM485 1812h639v-155h-639v155z" />
    <glyph glyph-name="omacron" unicode="&#x14d;" horiz-adv-x="1187" 
d="M594 -29q-146 0 -262 70q-114 69 -179 195q-65 125 -65 288q0 164 65 289q65 126 179 195t262 69q149 0 263 -69q112 -68 178 -195q65 -125 65 -289q0 -163 -65 -288q-66 -127 -178 -195q-116 -70 -263 -70zM594 139q141 0 230 106t89 279q0 175 -89 281
q-88 104 -230 104t-230 -104q-90 -107 -90 -281q0 -172 90 -279q89 -106 230 -106zM287 1438h614v-154h-614v154z" />
    <glyph glyph-name="Obreve" unicode="&#x14e;" horiz-adv-x="1609" 
d="M805 -31q-153 0 -283 56t-223 155q-92 98 -146 236q-53 136 -53 297t53 297t146 235q95 101 223 156t283 55q154 0 282 -55q130 -56 224 -156q93 -99 146 -235q52 -134 52 -297t-52 -297q-54 -138 -146 -236q-93 -98 -224 -155q-130 -56 -282 -56zM805 147q148 0 262 72
t179 200t65 294t-65 294q-64 126 -179 199q-114 72 -262 72q-147 0 -261 -72q-113 -71 -179 -199q-66 -127 -66 -294t66 -294q67 -129 179 -200q114 -72 261 -72zM805 1569q-141 0 -238 83q-95 82 -106 222h166q8 -72 56 -116q49 -44 122 -44t122 44q48 44 56 116h166
q-7 -139 -106 -222q-98 -83 -238 -83z" />
    <glyph glyph-name="obreve" unicode="&#x14f;" horiz-adv-x="1187" 
d="M594 -29q-146 0 -262 70q-114 69 -179 195q-65 125 -65 288q0 164 65 289q65 126 179 195t262 69q149 0 263 -69q112 -68 178 -195q65 -125 65 -289q0 -163 -65 -288q-66 -127 -178 -195q-116 -70 -263 -70zM594 139q141 0 230 106t89 279q0 175 -89 281
q-88 104 -230 104t-230 -104q-90 -107 -90 -281q0 -172 90 -279q89 -106 230 -106zM594 1192q-141 0 -232 85q-92 86 -102 234h164q7 -82 53 -129q45 -47 117 -47t117 47q46 47 53 129h164q-7 -147 -102 -234q-92 -85 -232 -85z" />
    <glyph glyph-name="Ohungarumlaut" unicode="&#x150;" horiz-adv-x="1609" 
d="M805 -31q-153 0 -283 56t-223 155q-92 98 -146 236q-53 136 -53 297t53 297t146 235q95 101 223 156t283 55q154 0 282 -55q130 -56 224 -156q93 -99 146 -235q52 -134 52 -297t-52 -297q-54 -138 -146 -236q-93 -98 -224 -155q-130 -56 -282 -56zM805 147q148 0 262 72
t179 200t65 294t-65 294q-64 126 -179 199q-114 72 -262 72q-147 0 -261 -72q-113 -71 -179 -199q-66 -127 -66 -294t66 -294q67 -129 179 -200q114 -72 261 -72zM721 1577h-172l178 301h195zM1063 1577h-172l199 301h194z" />
    <glyph glyph-name="ohungarumlaut" unicode="&#x151;" horiz-adv-x="1187" 
d="M594 -29q-146 0 -262 70q-114 69 -179 195q-65 125 -65 288q0 164 65 289q65 126 179 195t262 69q149 0 263 -69q112 -68 178 -195q65 -125 65 -289q0 -163 -65 -288q-66 -127 -178 -195q-116 -70 -263 -70zM594 139q141 0 230 106t89 279q0 175 -89 281
q-88 104 -230 104t-230 -104q-90 -107 -90 -281q0 -172 90 -279q89 -106 230 -106zM680 1198l174 318h188l-194 -318h-168zM342 1198l154 318h188l-174 -318h-168z" />
    <glyph glyph-name="OE" unicode="&#x152;" horiz-adv-x="2433" 
d="M784 -31q-145 0 -271 56q-125 56 -217 155q-93 100 -144 236q-52 138 -52 297t52 297q51 134 144 235t217 156q123 55 271 55q184 0 312 -74q127 -73 209 -200v243h989v-174h-795v-432h772v-174h-772v-471h805v-174h-999v244q-84 -126 -209 -200q-128 -75 -312 -75z
M803 147q148 0 262 72t180 200q66 127 66 294t-66 294t-180 199t-262 72q-147 0 -261 -72t-178 -199q-65 -128 -65 -294t65 -294q65 -129 178 -200q114 -72 261 -72z" />
    <glyph glyph-name="oe" unicode="&#x153;" horiz-adv-x="1964" 
d="M594 -29q-146 0 -262 70q-114 69 -179 195q-65 125 -65 288q0 164 65 289q65 126 179 195t262 69q135 0 240 -66q102 -64 165 -175q60 112 165 177q104 64 247 64q150 0 252 -66q104 -67 156 -185q53 -120 53 -275v-86h-772q15 -164 96 -246q82 -84 221 -84q93 0 159 32
q64 31 85 83h188q-37 -127 -153 -203t-281 -76q-142 0 -250 64q-106 63 -168 182q-61 -114 -164 -179q-107 -67 -239 -67zM1409 913q-129 0 -208 -79t-97 -220h584q-4 133 -74 216q-69 83 -205 83zM594 139q139 0 228 106t89 279q0 175 -89 281q-88 104 -228 104
q-142 0 -230 -104q-90 -107 -90 -281q0 -172 90 -279q89 -106 230 -106z" />
    <glyph glyph-name="Racute" unicode="&#x154;" horiz-adv-x="1394" 
d="M184 0v1425h537q273 0 413 -116t140 -324q0 -165 -89 -271q-88 -105 -227 -149l379 -565h-231l-354 535h-373v-535h-195zM379 709h319q194 0 285 72q92 72 92 206q0 133 -92 199q-90 65 -285 65h-319v-542zM768 1577h-180l180 301h203z" />
    <glyph glyph-name="racute" unicode="&#x155;" horiz-adv-x="727" 
d="M336 530v-530h-182v1049h178v-187q51 95 129 143q80 50 178 50h33v-176h-37q-81 0 -148 -39t-109 -117t-42 -193zM489 1198h-176l156 318h197z" />
    <glyph glyph-name="uni0156" unicode="&#x156;" horiz-adv-x="1394" 
d="M184 0v1425h537q273 0 413 -116t140 -324q0 -165 -89 -271q-88 -105 -227 -149l379 -565h-231l-354 535h-373v-535h-195zM379 709h319q194 0 285 72q92 72 92 206q0 133 -92 199q-90 65 -285 65h-319v-542zM602 -522q49 71 69 107q23 40 42 96q-51 5 -78 32
q-29 29 -29 72q0 47 33 79q34 32 88 32q61 0 97 -37q36 -38 36 -97q0 -64 -26 -128q-26 -63 -91 -156h-141z" />
    <glyph glyph-name="uni0157" unicode="&#x157;" horiz-adv-x="727" 
d="M336 530v-530h-182v1049h178v-187q51 95 129 143q80 50 178 50h33v-176h-37q-81 0 -148 -39t-109 -117t-42 -193zM117 -522q42 62 68 107q23 40 42 96q-49 5 -77 32q-29 29 -29 72q0 47 33 79q34 32 88 32q61 0 97 -37t36 -97q0 -62 -27 -128t-90 -156h-141z" />
    <glyph glyph-name="Rcaron" unicode="&#x158;" horiz-adv-x="1394" 
d="M184 0v1425h537q273 0 413 -116t140 -324q0 -165 -89 -271q-88 -105 -227 -149l379 -565h-231l-354 535h-373v-535h-195zM379 709h319q194 0 285 72q92 72 92 206q0 133 -92 199q-90 65 -285 65h-319v-542zM584 1577l-254 301h192l168 -182l168 182h193l-254 -301h-213z
" />
    <glyph glyph-name="rcaron" unicode="&#x159;" horiz-adv-x="727" 
d="M336 530v-530h-182v1049h178v-187q51 95 129 143q80 50 178 50h33v-176h-37q-81 0 -148 -39t-109 -117t-42 -193zM311 1198l-245 318h184l164 -197l164 197h184l-246 -318h-205z" />
    <glyph glyph-name="Sacute" unicode="&#x15a;" horiz-adv-x="1300" 
d="M664 -31q-229 0 -384 107q-156 107 -202 299h198q34 -106 136 -167t250 -61q142 0 243 61q99 60 99 175q0 66 -27 113t-94 81q-66 34 -195 52l-170 26q-205 33 -304 123t-99 262q0 129 70 221q70 93 191 144q120 51 267 51q139 0 250 -43q112 -43 188 -128
q77 -86 101 -216h-199q-27 110 -116 160q-88 49 -222 49q-149 0 -241 -60q-91 -60 -91 -167q0 -93 64 -143q64 -51 242 -79l159 -24q221 -33 322 -134q102 -102 102 -276q0 -133 -69 -229q-70 -97 -192 -147q-123 -50 -277 -50zM721 1577h-180l180 301h203z" />
    <glyph glyph-name="sacute" unicode="&#x15b;" horiz-adv-x="1009" 
d="M524 -31q-184 0 -303 87t-143 220h184q16 -59 85 -102q68 -43 173 -43q102 0 164 42q61 42 61 116q0 60 -43 97t-147 52l-160 21q-297 37 -297 291q0 96 53 170q52 73 143 115q92 42 208 42q170 0 276 -82q107 -83 135 -209h-182q-22 65 -79 97t-146 32q-100 0 -161 -44
q-60 -43 -60 -115q0 -60 43 -90q46 -31 141 -43l160 -21q149 -18 226 -102q77 -85 77 -205q0 -98 -53 -172q-52 -72 -146 -114q-90 -40 -209 -40zM578 1198h-177l156 318h197z" />
    <glyph glyph-name="Scircumflex" unicode="&#x15c;" horiz-adv-x="1300" 
d="M664 -31q-229 0 -384 107q-156 107 -202 299h198q34 -106 136 -167t250 -61q142 0 243 61q99 60 99 175q0 66 -27 113t-94 81q-66 34 -195 52l-170 26q-205 33 -304 123t-99 262q0 129 70 221q70 93 191 144q120 51 267 51q139 0 250 -43q112 -43 188 -128
q77 -86 101 -216h-199q-27 110 -116 160q-88 49 -222 49q-149 0 -241 -60q-91 -60 -91 -167q0 -93 64 -143q64 -51 242 -79l159 -24q221 -33 322 -134q102 -102 102 -276q0 -133 -69 -229q-70 -97 -192 -147q-123 -50 -277 -50zM283 1577l254 301h213l254 -301h-193
l-168 182l-168 -182h-192z" />
    <glyph glyph-name="scircumflex" unicode="&#x15d;" horiz-adv-x="1009" 
d="M524 -31q-184 0 -303 87t-143 220h184q16 -59 85 -102q68 -43 173 -43q102 0 164 42q61 42 61 116q0 60 -43 97t-147 52l-160 21q-297 37 -297 291q0 96 53 170q52 73 143 115q92 42 208 42q170 0 276 -82q107 -83 135 -209h-182q-22 65 -79 97t-146 32q-100 0 -161 -44
q-60 -43 -60 -115q0 -60 43 -90q46 -31 141 -43l160 -21q149 -18 226 -102q77 -85 77 -205q0 -98 -53 -172q-52 -72 -146 -114q-90 -40 -209 -40zM154 1198l245 318h205l246 -318h-184l-164 197l-164 -197h-184z" />
    <glyph glyph-name="Scedilla" unicode="&#x15e;" horiz-adv-x="1300" 
d="M664 -31q-229 0 -384 107q-156 107 -202 299h198q34 -106 136 -167t250 -61q142 0 243 61q99 60 99 175q0 66 -27 113t-94 81q-66 34 -195 52l-170 26q-205 33 -304 123t-99 262q0 129 70 221q70 93 191 144q120 51 267 51q139 0 250 -43q112 -43 188 -128
q77 -86 101 -216h-199q-27 110 -116 160q-88 49 -222 49q-149 0 -241 -60q-91 -60 -91 -167q0 -93 64 -143q64 -51 242 -79l159 -24q221 -33 322 -134q102 -102 102 -276q0 -133 -69 -229q-70 -97 -192 -147q-123 -50 -277 -50zM502 -492v127h98q58 0 89 18q32 18 32 56
q0 72 -109 72h-84l88 258h127l-57 -145q82 -1 138 -54q55 -52 55 -135q0 -91 -65 -144t-175 -53h-137z" />
    <glyph glyph-name="scedilla" unicode="&#x15f;" horiz-adv-x="1009" 
d="M524 -31q-184 0 -303 87t-143 220h184q16 -59 85 -102q68 -43 173 -43q102 0 164 42q61 42 61 116q0 60 -43 97t-147 52l-160 21q-297 37 -297 291q0 96 53 170q52 73 143 115q92 42 208 42q170 0 276 -82q107 -83 135 -209h-182q-22 65 -79 97t-146 32q-100 0 -161 -44
q-60 -43 -60 -115q0 -60 43 -90q46 -31 141 -43l160 -21q149 -18 226 -102q77 -85 77 -205q0 -98 -53 -172q-52 -72 -146 -114q-90 -40 -209 -40zM369 -492v127h98q57 0 89 18t32 56q0 72 -111 72h-82l90 274h129l-61 -161q82 -1 138 -54q54 -51 54 -135q0 -92 -64 -144
q-65 -53 -175 -53h-137z" />
    <glyph glyph-name="Scaron" unicode="&#x160;" horiz-adv-x="1300" 
d="M664 -31q-229 0 -384 107q-156 107 -202 299h198q34 -106 136 -167t250 -61q142 0 243 61q99 60 99 175q0 66 -27 113t-94 81q-66 34 -195 52l-170 26q-205 33 -304 123t-99 262q0 129 70 221q70 93 191 144q120 51 267 51q139 0 250 -43q112 -43 188 -128
q77 -86 101 -216h-199q-27 110 -116 160q-88 49 -222 49q-149 0 -241 -60q-91 -60 -91 -167q0 -93 64 -143q64 -51 242 -79l159 -24q221 -33 322 -134q102 -102 102 -276q0 -133 -69 -229q-70 -97 -192 -147q-123 -50 -277 -50zM537 1577l-254 301h192l168 -182l168 182h193
l-254 -301h-213z" />
    <glyph glyph-name="scaron" unicode="&#x161;" horiz-adv-x="1009" 
d="M524 -31q-184 0 -303 87t-143 220h184q16 -59 85 -102q68 -43 173 -43q102 0 164 42q61 42 61 116q0 60 -43 97t-147 52l-160 21q-297 37 -297 291q0 96 53 170q52 73 143 115q92 42 208 42q170 0 276 -82q107 -83 135 -209h-182q-22 65 -79 97t-146 32q-100 0 -161 -44
q-60 -43 -60 -115q0 -60 43 -90q46 -31 141 -43l160 -21q149 -18 226 -102q77 -85 77 -205q0 -98 -53 -172q-52 -72 -146 -114q-90 -40 -209 -40zM399 1198l-245 318h184l164 -197l164 197h184l-246 -318h-205z" />
    <glyph glyph-name="uni0162" unicode="&#x162;" horiz-adv-x="1370" 
d="M782 0h-194v1251h-506v174h1206v-174h-506v-1251zM522 -492v127h99q57 0 89 18q31 18 31 56q0 72 -108 72h-84l88 258h127l-57 -145q82 -1 138 -54q54 -51 54 -135q0 -92 -64 -144q-65 -53 -176 -53h-137z" />
    <glyph glyph-name="uni0163" unicode="&#x163;" horiz-adv-x="700" 
d="M530 -8q-149 0 -229 83t-80 242v568h-186v164h186v333q89 6 182 35v-368h230v-164h-230v-551q0 -86 42 -132t118 -46h70v-164h-103zM266 -492v127h99q57 0 89 18q31 18 31 56q0 72 -110 72h-82l90 274h129l-61 -161q82 -1 138 -54q54 -51 54 -135q0 -92 -64 -144
q-65 -53 -176 -53h-137z" />
    <glyph glyph-name="Tcaron" unicode="&#x164;" horiz-adv-x="1370" 
d="M782 0h-194v1251h-506v174h1206v-174h-506v-1251zM578 1577l-254 301h192l168 -182l168 182h192l-253 -301h-213z" />
    <glyph glyph-name="tcaron" unicode="&#x165;" horiz-adv-x="749" 
d="M530 -8q-149 0 -229 83t-80 242v568h-186v164h186v333q89 6 182 35v-368h230v-164h-230v-551q0 -86 42 -132t118 -46h70v-164h-103zM547 1176l12 309h178l-47 -309h-143z" />
    <glyph glyph-name="Tbar" unicode="&#x166;" horiz-adv-x="1370" 
d="M588 0v586h-340v164h340v501h-506v174h1206v-174h-506v-501h340v-164h-340v-586h-194z" />
    <glyph glyph-name="tbar" unicode="&#x167;" horiz-adv-x="700" 
d="M35 494v157h186v234h-186v164h186v333q89 6 182 35v-368h230v-164h-230v-234h230v-157h-230v-160q0 -86 42 -132t118 -46h70v-164h-103q-149 0 -229 83t-80 242v177h-186z" />
    <glyph glyph-name="Utilde" unicode="&#x168;" horiz-adv-x="1519" 
d="M760 -31q-195 0 -328 79q-134 80 -201 223t-67 337v817h194v-800q0 -219 98 -349q98 -129 304 -129t304 129q97 128 97 349v800h195v-817q0 -192 -68 -337q-67 -144 -199 -223q-131 -79 -329 -79zM918 1575q-40 0 -83 12q-46 13 -100 49q-37 26 -65 40q-24 12 -49 12
q-70 0 -70 -70v-39h-148v68q0 90 56 144q55 54 143 54q40 0 84 -12q43 -12 98 -49q36 -24 66 -39q24 -12 49 -12q70 0 70 67v41h147v-67q0 -91 -54 -145t-144 -54z" />
    <glyph glyph-name="utilde" unicode="&#x169;" horiz-adv-x="1169" 
d="M834 424v625h182v-1049h-178v139q-52 -81 -131 -124q-80 -44 -179 -44q-177 0 -281 119t-104 311v648h183v-625q0 -126 66 -206q66 -79 181 -79q108 0 185 77q76 76 76 208zM735 1202q-40 0 -86 16q-40 14 -102 54q-41 30 -61 37q-22 8 -42 8q-63 0 -63 -70v-41h-143v68
q0 91 52 143q53 53 136 53q46 0 87 -14q46 -16 101 -55q40 -26 62 -36q21 -9 41 -9q63 0 63 69v41h144v-67q0 -88 -53 -143q-53 -54 -136 -54z" />
    <glyph glyph-name="Umacron" unicode="&#x16a;" horiz-adv-x="1519" 
d="M760 -31q-195 0 -328 79q-134 80 -201 223t-67 337v817h194v-800q0 -219 98 -349q98 -129 304 -129t304 129q97 128 97 349v800h195v-817q0 -192 -68 -337q-67 -144 -199 -223q-131 -79 -329 -79zM440 1812h639v-155h-639v155z" />
    <glyph glyph-name="umacron" unicode="&#x16b;" horiz-adv-x="1169" 
d="M834 424v625h182v-1049h-178v139q-52 -81 -131 -124q-80 -44 -179 -44q-177 0 -281 119t-104 311v648h183v-625q0 -126 66 -206q66 -79 181 -79q108 0 185 77q76 76 76 208zM274 1438h615v-154h-615v154z" />
    <glyph glyph-name="Ubreve" unicode="&#x16c;" horiz-adv-x="1519" 
d="M760 -31q-195 0 -328 79q-134 80 -201 223t-67 337v817h194v-800q0 -219 98 -349q98 -129 304 -129t304 129q97 128 97 349v800h195v-817q0 -192 -68 -337q-67 -144 -199 -223q-131 -79 -329 -79zM760 1569q-141 0 -238 83q-95 82 -106 222h166q8 -72 56 -116
q49 -44 122 -44t122 44q48 44 56 116h166q-7 -139 -106 -222q-98 -83 -238 -83z" />
    <glyph glyph-name="ubreve" unicode="&#x16d;" horiz-adv-x="1169" 
d="M834 424v625h182v-1049h-178v139q-52 -81 -131 -124q-80 -44 -179 -44q-177 0 -281 119t-104 311v648h183v-625q0 -126 66 -206q66 -79 181 -79q108 0 185 77q76 76 76 208zM582 1192q-141 0 -232 85q-92 86 -102 234h164q7 -82 53 -129q45 -47 117 -47q71 0 116 47
q47 48 54 129h163q-7 -148 -101 -234q-92 -85 -232 -85z" />
    <glyph glyph-name="Uring" unicode="&#x16e;" horiz-adv-x="1519" 
d="M760 -31q-195 0 -328 79q-134 80 -201 223t-67 337v817h194v-800q0 -219 98 -349q98 -129 304 -129t304 129q97 128 97 349v800h195v-817q0 -192 -68 -337q-67 -144 -199 -223q-131 -79 -329 -79zM760 1530q-70 0 -125 33t-88 88q-33 56 -33 121t33 120t88 88t125 33
t125 -33t88 -88t33 -120q0 -66 -33 -121t-88 -88t-125 -33zM760 1653q51 0 84 34q33 35 33 85t-33 85q-32 33 -84 33t-84 -33q-33 -35 -33 -85t33 -85q33 -34 84 -34z" />
    <glyph glyph-name="uring" unicode="&#x16f;" horiz-adv-x="1169" 
d="M834 424v625h182v-1049h-178v139q-52 -81 -131 -124q-80 -44 -179 -44q-177 0 -281 119t-104 311v648h183v-625q0 -126 66 -206q66 -79 181 -79q108 0 185 77q76 76 76 208zM582 1161q-70 0 -125 33t-88 88q-33 56 -33 121t33 121q33 55 88 88q56 33 125 33q70 0 125 -33
t88 -88q32 -54 32 -121t-32 -121q-33 -55 -88 -88q-56 -33 -125 -33zM582 1284q51 0 84 34q32 33 32 85t-32 85q-33 34 -84 34t-84 -34t-33 -85t33 -85t84 -34z" />
    <glyph glyph-name="Uhungarumlaut" unicode="&#x170;" horiz-adv-x="1519" 
d="M760 -31q-195 0 -328 79q-134 80 -201 223t-67 337v817h194v-800q0 -219 98 -349q98 -129 304 -129t304 129q97 128 97 349v800h195v-817q0 -192 -68 -337q-67 -144 -199 -223q-131 -79 -329 -79zM676 1577h-172l178 301h195zM1018 1577h-172l198 301h195z" />
    <glyph glyph-name="uhungarumlaut" unicode="&#x171;" horiz-adv-x="1169" 
d="M834 424v625h182v-1049h-178v139q-52 -81 -131 -124q-80 -44 -179 -44q-177 0 -281 119t-104 311v648h183v-625q0 -126 66 -206q66 -79 181 -79q108 0 185 77q76 76 76 208zM668 1198l174 318h188l-194 -318h-168zM330 1198l153 318h189l-174 -318h-168z" />
    <glyph glyph-name="Uogonek" unicode="&#x172;" horiz-adv-x="1519" 
d="M760 -31q-195 0 -328 79q-134 80 -201 223t-67 337v817h194v-800q0 -219 98 -349q98 -129 304 -129t304 129q97 128 97 349v800h195v-817q0 -192 -68 -337q-67 -144 -199 -223q-131 -79 -329 -79zM963 -492q-125 0 -198 61t-73 161q0 63 30 120q31 59 101 120
q70 62 201 136l78 -47q-113 -77 -162 -126q-55 -55 -70 -92q-16 -39 -16 -79q0 -59 41 -89q39 -29 102 -29h66v-136h-100z" />
    <glyph glyph-name="uogonek" unicode="&#x173;" horiz-adv-x="1169" 
d="M834 424v625h182v-1049h-178v139q-52 -81 -131 -124q-80 -44 -179 -44q-177 0 -281 119t-104 311v648h183v-625q0 -126 66 -206q66 -79 181 -79q108 0 185 77q76 76 76 208zM940 -492q-125 0 -198 62q-72 62 -72 160q0 194 260 317l82 -47q-103 -64 -141 -121
q-37 -56 -37 -117q0 -59 39 -88q41 -30 102 -30h65v-136h-100z" />
    <glyph glyph-name="Wcircumflex" unicode="&#x174;" horiz-adv-x="2004" 
d="M489 0l-432 1425h203l332 -1144l319 1140h181l331 -1145l326 1149h199l-430 -1425h-187l-330 1124l-325 -1124h-187zM643 1577l254 301h213l254 -301h-193l-167 182l-168 -182h-193z" />
    <glyph glyph-name="wcircumflex" unicode="&#x175;" horiz-adv-x="1556" 
d="M375 0l-338 1049h188l242 -795l227 790h166l236 -792l237 797h187l-340 -1049h-168l-234 784l-235 -784h-168zM428 1198l246 318h205l245 -318h-184l-164 197l-164 -197h-184z" />
    <glyph glyph-name="Ycircumflex" unicode="&#x176;" horiz-adv-x="1318" 
d="M563 0v549l-532 876h225l410 -690l403 690h217l-528 -872v-553h-195zM297 1577l254 301h213l254 -301h-193l-168 182l-168 -182h-192z" />
    <glyph glyph-name="ycircumflex" unicode="&#x177;" horiz-adv-x="1069" 
d="M268 -420l174 420l-415 1049h206l308 -834l303 834h198l-579 -1469h-195zM190 1198l246 318h205l246 -318h-185l-163 197l-164 -197h-185z" />
    <glyph glyph-name="Ydieresis" unicode="&#x178;" horiz-adv-x="1318" 
d="M563 0v549l-532 876h225l410 -690l403 690h217l-528 -872v-553h-195zM870 1612q-51 0 -85 34q-33 33 -33 83q0 49 33 82q34 34 85 34q50 0 84 -34q35 -35 35 -82q0 -48 -35 -83q-34 -34 -84 -34zM444 1612q-50 0 -84 34t-34 83q0 48 34 82t84 34q51 0 85 -34t34 -82
q0 -49 -34 -83t-85 -34z" />
    <glyph glyph-name="Zacute" unicode="&#x179;" horiz-adv-x="1271" 
d="M92 1425h1075v-165l-837 -1086h852v-174h-1090v166l838 1085h-838v174zM709 1577h-181l181 301h202z" />
    <glyph glyph-name="zacute" unicode="&#x17a;" horiz-adv-x="1024" 
d="M82 0v158l620 727h-620v164h850v-158l-619 -727h633v-164h-864zM586 1198h-176l155 318h197z" />
    <glyph glyph-name="Zdotaccent" unicode="&#x17b;" horiz-adv-x="1271" 
d="M92 1425h1075v-165l-837 -1086h852v-174h-1090v166l838 1085h-838v174zM631 1599q-51 0 -88 37t-37 88q0 54 37 90q36 35 88 35q54 0 89 -35q36 -36 36 -90q0 -50 -36 -88q-36 -37 -89 -37z" />
    <glyph glyph-name="zdotaccent" unicode="&#x17c;" horiz-adv-x="1024" 
d="M82 0v158l620 727h-620v164h850v-158l-619 -727h633v-164h-864zM510 1229q-51 0 -88 37t-37 88q0 53 37 89t88 36q53 0 89 -36t36 -89q0 -50 -36 -88q-36 -37 -89 -37z" />
    <glyph glyph-name="Zcaron" unicode="&#x17d;" horiz-adv-x="1271" 
d="M92 1425h1075v-165l-837 -1086h852v-174h-1090v166l838 1085h-838v174zM524 1577l-254 301h193l168 -182l168 182h192l-254 -301h-213z" />
    <glyph glyph-name="zcaron" unicode="&#x17e;" horiz-adv-x="1024" 
d="M82 0v158l620 727h-620v164h850v-158l-619 -727h633v-164h-864zM408 1198l-246 318h184l164 -197l164 197h184l-246 -318h-204z" />
    <glyph glyph-name="longs" unicode="&#x17f;" horiz-adv-x="557" 
d="M563 1485v-162h-49q-88 0 -133 -52q-45 -53 -45 -143v-1128h-182v1141q0 163 86 254q86 90 243 90h80z" />
    <glyph glyph-name="uni0181" unicode="&#x181;" horiz-adv-x="1814" 
d="M590 0v1251h-12q-163 0 -235 -85q-73 -87 -73 -283v-49h-184v59q0 277 127 404q128 128 371 128h585q236 0 363 -100t127 -276q0 -107 -62 -187t-170 -119q144 -39 213 -128q70 -90 70 -214q0 -184 -135 -292q-136 -109 -379 -109h-606zM1147 1251h-363v-430h363
q146 0 231 56q84 55 84 159q0 215 -315 215zM1180 647h-396v-473h396q331 0 331 238q0 112 -86 174q-85 61 -245 61z" />
    <glyph glyph-name="uni0186" unicode="&#x186;" horiz-adv-x="1464" 
d="M694 -31q-248 0 -402 125q-152 124 -202 332h201q33 -126 138 -203q104 -76 267 -76q136 0 243 70q106 70 166 197t60 299q0 175 -58 301t-163 195t-242 69q-163 0 -267 -77q-103 -76 -142 -212h-203q56 215 209 341t406 126q198 0 346 -95q147 -95 230 -262
q83 -168 83 -386q0 -216 -86 -385q-85 -167 -237 -263t-347 -96z" />
    <glyph glyph-name="uni0189" unicode="&#x189;" horiz-adv-x="1552" 
d="M238 0v668h-195v161h195v596h514q198 0 357 -87q160 -87 251 -246q92 -160 92 -379q0 -217 -92 -378t-251 -248t-357 -87h-514zM432 174h307q142 0 259 64q118 64 186 184q69 122 69 291q0 172 -69 292q-68 119 -186 183q-115 63 -259 63h-307v-422h336v-161h-336v-494z
" />
    <glyph glyph-name="uni018A" unicode="&#x18a;" horiz-adv-x="1904" 
d="M590 0v1251h-12q-163 0 -235 -85q-73 -87 -73 -283v-49h-184v59q0 277 127 404q128 128 371 128h520q198 0 357 -87q160 -87 251 -246q92 -160 92 -379q0 -217 -92 -378t-251 -248t-357 -87h-514zM784 174h308q142 0 259 64t185 184q70 123 70 291q0 170 -70 292
q-69 120 -185 183q-115 63 -259 63h-308v-1077z" />
    <glyph glyph-name="uni018E" unicode="&#x18e;" horiz-adv-x="1312" 
d="M1128 0h-999v174h805v471h-772v174h772v432h-795v174h989v-1425z" />
    <glyph glyph-name="uni018F" unicode="&#x18f;" horiz-adv-x="1490" 
d="M1391 709q0 -226 -79 -391q-79 -166 -227 -258q-146 -91 -352 -91q-193 0 -334 90q-142 90 -218 252q-77 163 -77 377v96h1088q-18 239 -143 367q-124 127 -318 127q-146 0 -245 -60t-146 -149h-203q43 110 126 199q82 88 203 138t267 50q197 0 345 -90t231 -257
q82 -165 82 -400zM731 147q197 0 316 123q119 124 143 340h-889q4 -135 58 -239q53 -103 149 -164q94 -60 223 -60z" />
    <glyph glyph-name="uni0190" unicode="&#x190;" horiz-adv-x="1275" 
d="M637 -31q-140 0 -257 49t-189 145q-70 94 -70 228q0 127 75 217t207 127q-111 37 -174 120t-63 198q0 128 64 217q64 90 176 138q111 48 245 48q205 0 339 -102q133 -102 177 -267h-192q-33 90 -115 140q-83 51 -203 51q-118 0 -205 -57t-87 -179q0 -111 77 -170t209 -59
h168v-174h-174q-149 0 -237 -60q-89 -60 -89 -176q0 -85 46 -143q46 -59 118 -85q76 -28 158 -28q130 0 222 50q91 49 124 143h195q-43 -173 -183 -272q-139 -99 -362 -99z" />
    <glyph glyph-name="uni0191" unicode="&#x191;" horiz-adv-x="1259" 
d="M-39 -420v168h68q77 0 116 47t39 127v1503h963v-174h-768v-467h743v-174h-743v-696q0 -164 -82 -249t-229 -85h-107z" />
    <glyph glyph-name="florin" unicode="&#x192;" horiz-adv-x="731" 
d="M35 -420v164h51q88 0 133 52t45 141v948h-186v164h186v94q0 162 87 252t245 90h80v-164h-51q-85 0 -132 -50t-47 -141v-81h230v-164h-230v-963q0 -161 -86 -252q-86 -90 -245 -90h-80z" />
    <glyph glyph-name="uni0194" unicode="&#x194;" horiz-adv-x="1437" 
d="M721 -31q-142 0 -208 74q-67 75 -67 174q0 71 29 129q29 59 78 131l53 78l-569 870h225l461 -725l463 725h215l-570 -866l56 -82q49 -72 78 -131q28 -56 28 -129q0 -102 -65 -174q-66 -74 -207 -74zM608 223q0 -52 32 -82t81 -30q50 0 80 30t30 82q0 44 -19 82
q-24 48 -62 103l-29 43l-29 -43q-34 -50 -63 -103q-21 -39 -21 -82z" />
    <glyph glyph-name="uni0196" unicode="&#x196;" horiz-adv-x="649" 
d="M602 -8h-100q-153 0 -235 85q-83 86 -83 249v1099h195v-1093q0 -83 40 -129q41 -47 124 -47h59v-164z" />
    <glyph glyph-name="uni0197" unicode="&#x197;" horiz-adv-x="673" 
d="M434 0h-194v676h-197v158h197v591h194v-591h197v-158h-197v-676z" />
    <glyph glyph-name="uni0198" unicode="&#x198;" horiz-adv-x="1529" 
d="M184 0v1425h195v-616l344 414q100 119 195 176q96 57 229 57q153 0 232 -87q79 -86 79 -245v-112h-190v96q0 84 -35 131t-107 47q-64 0 -122 -35t-134 -123l-329 -387l788 -741h-266l-684 643v-643h-195z" />
    <glyph glyph-name="uni0199" unicode="&#x199;" horiz-adv-x="1089" 
d="M154 0v1090q0 203 102 299t289 96h137v-152h-121q-109 0 -167 -61t-58 -191v-471l461 439h231l-522 -496l567 -553h-239l-498 494v-494h-182z" />
    <glyph glyph-name="uni019D" unicode="&#x19d;" horiz-adv-x="1652" 
d="M47 -8v168h68q77 0 116 47t39 127v1091h189v-233q74 126 196 194q125 70 271 70q168 0 287 -80q117 -79 181 -217q62 -134 62 -309v-850h-194v819q0 212 -97 336q-96 123 -282 123q-114 0 -208 -52q-97 -54 -153 -154q-57 -102 -57 -249v-497q0 -164 -82 -249t-229 -85
h-107z" />
    <glyph glyph-name="uni019E" unicode="&#x19e;" horiz-adv-x="1177" 
d="M336 621v-621h-182v1049h178v-142q56 83 141 126q86 44 189 44q117 0 199 -55q83 -56 128 -152t45 -221v-1069h-182v1034q0 136 -60 216q-60 79 -182 79q-75 0 -135 -33q-64 -35 -101 -99q-38 -65 -38 -156z" />
    <glyph glyph-name="uni019F" unicode="&#x19f;" horiz-adv-x="1609" 
d="M805 -31q-153 0 -283 56t-223 155q-92 98 -146 236q-53 136 -53 297t53 297t146 235q95 101 223 156t283 55q154 0 282 -55q130 -56 224 -156q93 -99 146 -235q52 -134 52 -297t-52 -297q-54 -138 -146 -236q-93 -98 -224 -155q-130 -56 -282 -56zM805 1278
q-135 0 -242 -60t-174 -168q-68 -109 -86 -251h1004q-18 142 -86 251q-67 108 -174 168t-242 60zM805 147q131 0 241 61q107 60 175 168q67 108 84 249h-1000q17 -141 84 -249q68 -108 175 -168q110 -61 241 -61z" />
    <glyph glyph-name="Ohorn" unicode="&#x1a0;" horiz-adv-x="1628" 
d="M1509 713q0 -163 -52 -297q-54 -138 -146 -236q-93 -98 -224 -155q-130 -56 -282 -56q-153 0 -283 56t-223 155q-92 98 -146 236q-53 136 -53 297t53 297t146 235q95 101 223 156t283 55q65 0 119 -10q63 -12 110 -25q33 -7 60 -11q37 -5 59 -5h12q181 0 181 178v78h174
v-92q0 -124 -59 -203q-58 -77 -173 -98q102 -99 162 -241q59 -140 59 -314zM299 713q0 -167 66 -294q67 -129 179 -200q114 -72 261 -72q148 0 262 72t179 200t65 294t-65 294q-64 126 -179 199q-114 72 -262 72q-147 0 -261 -72q-113 -71 -179 -199q-66 -127 -66 -294z" />
    <glyph glyph-name="ohorn" unicode="&#x1a1;" horiz-adv-x="1214" 
d="M1100 524q0 -163 -65 -288q-66 -127 -178 -195q-116 -70 -263 -70q-146 0 -262 70q-114 69 -179 195q-65 125 -65 288q0 164 65 289q65 126 179 195t262 69q51 0 99 -9q45 -8 93 -26q9 -3 37 -10q16 -4 39 -4q78 0 111 44t33 120v78h163v-92q0 -232 -192 -277
q59 -71 91 -168q32 -98 32 -209zM274 524q0 -172 90 -279q89 -106 230 -106t230 106t89 279q0 175 -89 281q-88 104 -230 104t-230 -104q-90 -107 -90 -281z" />
    <glyph glyph-name="Uhorn" unicode="&#x1af;" horiz-adv-x="1566" 
d="M1356 608q0 -192 -68 -337q-67 -144 -199 -223q-131 -79 -329 -79q-195 0 -328 79q-134 80 -201 223t-67 337v817h194v-800q0 -219 98 -349q98 -129 304 -129t304 129q97 128 97 349v800h148q159 0 159 179v77h174v-92q0 -143 -72 -224q-71 -80 -214 -91v-666z" />
    <glyph glyph-name="uhorn" unicode="&#x1b0;" horiz-adv-x="1208" 
d="M528 -29q-178 0 -281 118q-104 119 -104 308v652h183v-629q0 -125 66 -203t181 -78q109 0 185 75t76 206v629h120q146 0 146 163v78h164v-92q0 -265 -248 -289v-909h-178v137q-51 -78 -131 -122t-179 -44z" />
    <glyph glyph-name="uni01B1" unicode="&#x1b1;" horiz-adv-x="1638" 
d="M1511 1425v-174h-290q136 -100 215 -255q80 -157 80 -337q0 -197 -90 -356q-89 -157 -246 -245q-158 -89 -361 -89q-202 0 -359 89t-247 245t-90 356q0 180 80 337q79 155 215 255h-291v174h553v-165q-101 -54 -185 -145q-79 -86 -127 -201q-46 -110 -46 -236
q0 -154 63 -274q62 -118 176 -188q113 -69 258 -69q148 0 259 69q113 70 175 188q64 122 64 274q0 126 -46 236q-48 114 -126 201q-80 89 -187 145v165h553z" />
    <glyph glyph-name="uni01B2" unicode="&#x1b2;" horiz-adv-x="1495" 
d="M762 -31q-195 0 -328 79t-202 223q-68 142 -68 337v817h194v-800q0 -222 100 -351q99 -127 304 -127q202 0 313 150t111 424q0 216 -40 332t-111 160t-165 44h-88v168h117q155 0 262 -64q109 -65 166 -218t57 -426q0 -233 -73 -400q-73 -168 -213 -258t-336 -90z" />
    <glyph glyph-name="uni01B3" unicode="&#x1b3;" horiz-adv-x="1740" 
d="M563 0v549l-532 876h223l412 -692l247 432q83 149 188 220q104 71 247 71q157 0 239 -88t82 -252v-104h-190v88q0 89 -35 138q-34 48 -115 48q-79 0 -135 -49q-59 -51 -109 -135l-327 -549v-553h-195z" />
    <glyph glyph-name="uni01B4" unicode="&#x1b4;" horiz-adv-x="1470" 
d="M268 -420l174 420l-415 1049h206l308 -836l194 539q61 169 156 247t231 78q139 0 214 -81t75 -226v-82h-180v60q0 163 -125 163q-60 0 -104 -38q-43 -37 -84 -140l-455 -1153h-195z" />
    <glyph glyph-name="uni01B7" unicode="&#x1b7;" horiz-adv-x="1308" 
d="M662 -31q-228 0 -375 109t-193 313h201q30 -120 127 -182t242 -62q164 0 249 79q86 80 86 186q0 140 -93 206t-263 66h-197v131l463 436h-770v174h996v-165l-447 -424h19q220 0 356 -110q135 -110 135 -316q0 -125 -65 -224t-187 -158q-123 -59 -284 -59z" />
    <glyph glyph-name="uni01B8" unicode="&#x1b8;" horiz-adv-x="1308" 
d="M647 -31q-164 0 -286 58q-119 56 -185 156q-65 97 -65 225q0 140 63 234t176 144q114 50 258 50h10l-444 424v165h995v-174h-766l459 -436v-131h-196q-168 0 -263 -66q-94 -66 -94 -206q0 -106 86 -186q85 -79 250 -79q144 0 244 62q99 62 129 182h196
q-45 -205 -190 -313q-147 -109 -377 -109z" />
    <glyph glyph-name="uni01B9" unicode="&#x1b9;" horiz-adv-x="1062" 
d="M551 -449q-145 0 -255 58q-107 57 -165 160q-57 102 -57 237q0 136 59 233q59 98 166 155t244 59l-424 438v158h864v-164h-657l438 -449v-131h-129q-186 0 -280 -79q-95 -80 -95 -218q0 -130 77 -210q76 -79 214 -79q108 0 180 42q71 41 98 118h193q-33 -149 -155 -238
q-124 -90 -316 -90z" />
    <glyph glyph-name="uni01C0" unicode="&#x1c0;" horiz-adv-x="544" 
d="M184 0v1485h176v-1485h-176z" />
    <glyph glyph-name="uni01C1" unicode="&#x1c1;" horiz-adv-x="948" 
d="M184 0v1485h176v-1485h-176zM588 0v1485h176v-1485h-176z" />
    <glyph glyph-name="uni01C2" unicode="&#x1c2;" horiz-adv-x="688" 
d="M256 0v487h-193v150h193v211h-193v149h193v488h176v-488h193v-149h-193v-211h193v-150h-193v-487h-176z" />
    <glyph glyph-name="uni01C3" unicode="&#x1c3;" horiz-adv-x="563" 
d="M197 403l-13 1082h195l-10 -1082h-172zM283 -25q-55 0 -96 39q-40 39 -40 97q0 57 40 96q41 39 96 39t95 -39t40 -96q0 -58 -40 -97t-95 -39z" />
    <glyph glyph-name="uni01CD" unicode="&#x1cd;" horiz-adv-x="1411" 
d="M1167 0l-149 383h-633l-147 -383h-201l569 1425h197l571 -1425h-207zM451 557h499l-250 647zM598 1577l-254 301h193l168 -182l167 182h193l-254 -301h-213z" />
    <glyph glyph-name="uni01CE" unicode="&#x1ce;" horiz-adv-x="1095" 
d="M436 -29q-161 0 -260 87q-98 86 -98 237q0 160 116 249t328 89h248v45q0 127 -64 181t-178 54q-96 0 -155 -36q-61 -37 -76 -91h-184q27 129 138 210t279 81q196 0 309 -100t113 -313v-664h-172v158q-56 -95 -149 -141t-195 -46zM477 131q65 0 135 31q67 30 113 91
q45 60 45 153v77h-235q-129 0 -201 -45t-72 -135q0 -84 61 -128t154 -44zM444 1198l-245 318h184l164 -197l164 197h184l-246 -318h-205z" />
    <glyph glyph-name="uni01CF" unicode="&#x1cf;" horiz-adv-x="563" 
d="M379 0h-195v1425h195v-1425zM174 1577l-254 301h193l168 -182l168 182h192l-254 -301h-213z" />
    <glyph glyph-name="uni01D0" unicode="&#x1d0;" horiz-adv-x="489" 
d="M154 0v1049h182v-1049h-182zM143 1198l-215 318h185l133 -185l133 185h184l-215 -318h-205z" />
    <glyph glyph-name="uni01D1" unicode="&#x1d1;" horiz-adv-x="1609" 
d="M805 -31q-153 0 -283 56t-223 155q-92 98 -146 236q-53 136 -53 297t53 297t146 235q95 101 223 156t283 55q154 0 282 -55q130 -56 224 -156q93 -99 146 -235q52 -134 52 -297t-52 -297q-54 -138 -146 -236q-93 -98 -224 -155q-130 -56 -282 -56zM805 147q148 0 262 72
t179 200t65 294t-65 294q-64 126 -179 199q-114 72 -262 72q-147 0 -261 -72q-113 -71 -179 -199q-66 -127 -66 -294t66 -294q67 -129 179 -200q114 -72 261 -72zM698 1577l-254 301h193l168 -182l168 182h192l-254 -301h-213z" />
    <glyph glyph-name="uni01D2" unicode="&#x1d2;" horiz-adv-x="1187" 
d="M594 -29q-146 0 -262 70q-114 69 -179 195q-65 125 -65 288q0 164 65 289q65 126 179 195t262 69q149 0 263 -69q112 -68 178 -195q65 -125 65 -289q0 -163 -65 -288q-66 -127 -178 -195q-116 -70 -263 -70zM594 139q141 0 230 106t89 279q0 175 -89 281
q-88 104 -230 104t-230 -104q-90 -107 -90 -281q0 -172 90 -279q89 -106 230 -106zM492 1198l-246 318h184l164 -197l164 197h184l-246 -318h-204z" />
    <glyph glyph-name="uni01D3" unicode="&#x1d3;" horiz-adv-x="1519" 
d="M760 -31q-195 0 -328 79q-134 80 -201 223t-67 337v817h194v-800q0 -219 98 -349q98 -129 304 -129t304 129q97 128 97 349v800h195v-817q0 -192 -68 -337q-67 -144 -199 -223q-131 -79 -329 -79zM653 1577l-254 301h193l168 -182l168 182h192l-254 -301h-213z" />
    <glyph glyph-name="uni01D4" unicode="&#x1d4;" horiz-adv-x="1169" 
d="M834 424v625h182v-1049h-178v139q-52 -81 -131 -124q-80 -44 -179 -44q-177 0 -281 119t-104 311v648h183v-625q0 -126 66 -206q66 -79 181 -79q108 0 185 77q76 76 76 208zM479 1198l-246 318h185l164 -197l163 197h185l-246 -318h-205z" />
    <glyph glyph-name="uni01D5" unicode="&#x1d5;" horiz-adv-x="1519" 
d="M760 -31q-195 0 -328 79q-134 80 -201 223t-67 337v817h194v-800q0 -219 98 -349q98 -129 304 -129t304 129q97 128 97 349v800h195v-817q0 -192 -68 -337q-67 -144 -199 -223q-131 -79 -329 -79zM1077 1700q0 -45 -34 -78q-35 -33 -80 -33q-47 0 -80 33t-33 78
q0 46 33 81q33 34 80 34q46 0 80 -34t34 -81zM670 1700q0 -45 -34 -78t-81 -33t-80 33t-33 78q0 46 33 81q33 34 80 34t81 -34t34 -81zM442 2056h635v-141h-635v141z" />
    <glyph glyph-name="uni01D6" unicode="&#x1d6;" horiz-adv-x="1169" 
d="M834 424v625h182v-1049h-178v139q-52 -81 -131 -124q-80 -44 -179 -44q-177 0 -281 119t-104 311v648h183v-625q0 -126 66 -206q66 -79 181 -79q108 0 185 77q76 76 76 208zM776 1239q-47 0 -80 33q-32 32 -32 78q0 47 32 78q34 32 80 32q47 0 79 -32t32 -78
q0 -44 -32 -78q-31 -33 -79 -33zM387 1239q-45 0 -78 33t-33 78q0 46 33 78q34 32 78 32q46 0 80 -32q33 -32 33 -78q0 -45 -33 -78t-80 -33zM274 1747h615v-139h-615v139z" />
    <glyph glyph-name="uni01D7" unicode="&#x1d7;" horiz-adv-x="1519" 
d="M760 -31q-195 0 -328 79q-134 80 -201 223t-67 337v817h194v-800q0 -219 98 -349q98 -129 304 -129t304 129q97 128 97 349v800h195v-817q0 -192 -68 -337q-67 -144 -199 -223q-131 -79 -329 -79zM1077 1700q0 -45 -34 -78q-35 -33 -80 -33q-47 0 -80 33t-33 78
q0 46 33 81q33 34 80 34q46 0 80 -34t34 -81zM670 1700q0 -45 -34 -78t-81 -33t-80 33t-33 78q0 46 33 81q33 34 80 34t81 -34t34 -81zM834 1831h-168l161 264h191z" />
    <glyph glyph-name="uni01D8" unicode="&#x1d8;" horiz-adv-x="1169" 
d="M834 424v625h182v-1049h-178v139q-52 -81 -131 -124q-80 -44 -179 -44q-177 0 -281 119t-104 311v648h183v-625q0 -126 66 -206q66 -79 181 -79q108 0 185 77q76 76 76 208zM776 1239q-47 0 -80 33q-32 32 -32 78q0 47 32 78q34 32 80 32q47 0 79 -32t32 -78
q0 -44 -32 -78q-31 -33 -79 -33zM387 1239q-45 0 -78 33t-33 78q0 46 33 78q34 32 78 32q46 0 80 -32q33 -32 33 -78q0 -45 -33 -78t-80 -33zM653 1516h-161l153 315h184z" />
    <glyph glyph-name="uni01D9" unicode="&#x1d9;" horiz-adv-x="1519" 
d="M760 -31q-195 0 -328 79q-134 80 -201 223t-67 337v817h194v-800q0 -219 98 -349q98 -129 304 -129t304 129q97 128 97 349v800h195v-817q0 -192 -68 -337q-67 -144 -199 -223q-131 -79 -329 -79zM1077 1700q0 -45 -34 -78q-35 -33 -80 -33q-47 0 -80 33t-33 78
q0 46 33 81q33 34 80 34q46 0 80 -34t34 -81zM670 1700q0 -45 -34 -78t-81 -33t-80 33t-33 78q0 46 33 81q33 34 80 34t81 -34t34 -81zM412 2093h180l168 -164l168 164h180l-246 -262h-205z" />
    <glyph glyph-name="uni01DA" unicode="&#x1da;" horiz-adv-x="1169" 
d="M834 424v625h182v-1049h-178v139q-52 -81 -131 -124q-80 -44 -179 -44q-177 0 -281 119t-104 311v648h183v-625q0 -126 66 -206q66 -79 181 -79q108 0 185 77q76 76 76 208zM776 1239q-47 0 -80 33q-32 32 -32 78q0 47 32 78q34 32 80 32q47 0 79 -32t32 -78
q0 -44 -32 -78q-31 -33 -79 -33zM387 1239q-45 0 -78 33t-33 78q0 46 33 78q34 32 78 32q46 0 80 -32q33 -32 33 -78q0 -45 -33 -78t-80 -33zM481 1524l-233 297h172l162 -195l161 195h172l-233 -297h-201z" />
    <glyph glyph-name="uni01DB" unicode="&#x1db;" horiz-adv-x="1519" 
d="M760 -31q-195 0 -328 79q-134 80 -201 223t-67 337v817h194v-800q0 -219 98 -349q98 -129 304 -129t304 129q97 128 97 349v800h195v-817q0 -192 -68 -337q-67 -144 -199 -223q-131 -79 -329 -79zM1077 1700q0 -45 -34 -78q-35 -33 -80 -33q-47 0 -80 33t-33 78
q0 46 33 81q33 34 80 34q46 0 80 -34t34 -81zM670 1700q0 -45 -34 -78t-81 -33t-80 33t-33 78q0 46 33 81q33 34 80 34t81 -34t34 -81zM680 1831l-184 264h190l162 -264h-168z" />
    <glyph glyph-name="uni01DC" unicode="&#x1dc;" horiz-adv-x="1169" 
d="M834 424v625h182v-1049h-178v139q-52 -81 -131 -124q-80 -44 -179 -44q-177 0 -281 119t-104 311v648h183v-625q0 -126 66 -206q66 -79 181 -79q108 0 185 77q76 76 76 208zM776 1239q-47 0 -80 33q-32 32 -32 78q0 47 32 78q34 32 80 32q47 0 79 -32t32 -78
q0 -44 -32 -78q-31 -33 -79 -33zM387 1239q-45 0 -78 33t-33 78q0 46 33 78q34 32 78 32q46 0 80 -32q33 -32 33 -78q0 -45 -33 -78t-80 -33zM508 1516l-174 315h184l154 -315h-164z" />
    <glyph glyph-name="uni01DD" unicode="&#x1dd;" horiz-adv-x="1140" 
d="M547 1077q158 0 270 -67t174 -193t62 -295q0 -155 -61 -282q-60 -124 -172 -197q-111 -72 -267 -72q-146 0 -251 67t-157 185q-53 120 -53 275v86h772q-15 160 -96 244q-82 85 -223 85q-94 0 -157 -31q-64 -31 -85 -83h-188q37 126 153 202t279 76zM555 135q129 0 208 79
t97 218h-584q6 -132 75 -215q69 -82 204 -82z" />
    <glyph glyph-name="uni01E4" unicode="&#x1e4;" horiz-adv-x="1556" 
d="M793 -31q-204 0 -362 97q-157 97 -244 264q-87 168 -87 383q0 218 88 385q89 168 245 263q157 95 358 95q226 0 385 -105t225 -294h-205q-45 98 -152 160q-106 61 -253 61q-141 0 -254 -70q-112 -70 -175 -195q-63 -126 -63 -300q0 -173 62 -298q64 -129 175 -198
q113 -70 261 -70q116 0 214 48q95 47 152 129h-372v163h440q6 39 6 78v37h-446v174h641v-178q0 -48 -9 -111h138v-163h-185q-72 -162 -223 -258q-153 -97 -360 -97z" />
    <glyph glyph-name="uni01E5" unicode="&#x1e5;" horiz-adv-x="1241" 
d="M557 14q-137 0 -244 69t-166 188q-59 118 -59 274q0 157 59 275q60 120 166 189q105 68 244 68q116 0 205 -53q86 -51 143 -145v170h178v-1018q0 -22 -2 -60h144v-155h-178q-49 -126 -161 -196q-111 -69 -276 -69q-190 0 -315 84q-124 84 -162 215h197q33 -57 100 -94
t176 -37q166 0 240 97h-279v155h332q2 30 2 49v175q-57 -86 -143 -133q-88 -48 -201 -48zM590 182q95 0 166 46t112 129q41 84 41 190q0 104 -41 188q-40 82 -112 128q-71 46 -166 46q-93 0 -164 -46q-72 -46 -112 -128q-40 -81 -40 -188q0 -162 88 -263q88 -102 228 -102z
" />
    <glyph glyph-name="Gcaron" unicode="&#x1e6;" horiz-adv-x="1536" 
d="M793 -31q-204 0 -362 97q-157 97 -244 264q-87 168 -87 383q0 218 88 385q89 168 245 263q157 95 358 95q226 0 385 -105t225 -294h-205q-45 98 -152 160q-106 61 -253 61q-141 0 -254 -70q-111 -69 -174 -195q-64 -128 -64 -300q0 -173 62 -298q64 -129 175 -198
q113 -70 261 -70q127 0 228 55q99 54 156 148q56 93 56 215v37h-446v174h641v-178q0 -180 -80 -323q-78 -141 -224 -224q-143 -82 -335 -82zM678 1577l-254 301h192l168 -182l168 182h193l-254 -301h-213z" />
    <glyph glyph-name="gcaron" unicode="&#x1e7;" horiz-adv-x="1236" 
d="M557 -6q-137 0 -244 69q-105 68 -166 193q-59 121 -59 279q0 159 59 280q61 125 166 193q107 69 244 69q117 0 205 -52q87 -52 143 -142v166h178v-1018q0 -227 -125 -354q-124 -126 -348 -126q-190 0 -315 84q-124 84 -162 215h197q33 -57 100 -94t176 -37q144 0 220 74
q75 74 75 227v164q-56 -89 -143 -139q-88 -51 -201 -51zM590 162q94 0 166 48q71 48 112 132q41 85 41 195q0 109 -41 194t-112 131q-73 47 -166 47q-91 0 -164 -47q-71 -46 -112 -131q-40 -83 -40 -194q0 -112 40 -195q41 -84 112 -132q72 -48 164 -48zM500 1198l-246 318
h184l164 -197l164 197h184l-245 -318h-205z" />
    <glyph glyph-name="uni01E8" unicode="&#x1e8;" horiz-adv-x="1351" 
d="M184 0v1425h195v-612l665 612h250l-751 -686l786 -739h-266l-684 643v-643h-195zM612 1577l-254 301h193l168 -182l168 182h192l-254 -301h-213z" />
    <glyph glyph-name="uni01E9" unicode="&#x1e9;" horiz-adv-x="1089" 
d="M154 0v1485h182v-875l461 439h231l-522 -496l567 -553h-239l-498 494v-494h-182zM139 1577l-254 301h193l168 -182l168 182h192l-254 -301h-213z" />
    <glyph glyph-name="uni01EA" unicode="&#x1ea;" horiz-adv-x="1609" 
d="M805 -31q-153 0 -283 56t-223 155q-92 98 -146 236q-53 136 -53 297t53 297t146 235q95 101 223 156t283 55q154 0 282 -55q130 -56 224 -156q93 -99 146 -235q52 -134 52 -297t-52 -297q-54 -138 -146 -236q-93 -98 -224 -155q-130 -56 -282 -56zM805 147q148 0 262 72
t179 200t65 294t-65 294q-64 126 -179 199q-114 72 -262 72q-147 0 -261 -72q-113 -71 -179 -199q-66 -127 -66 -294t66 -294q67 -129 179 -200q114 -72 261 -72zM1006 -492q-125 0 -198 61t-73 161q0 63 30 120q31 59 101 120q70 62 201 136l78 -47q-113 -77 -162 -126
q-55 -55 -70 -92q-16 -39 -16 -79q0 -59 41 -89q39 -29 102 -29h66v-136h-100z" />
    <glyph glyph-name="uni01EB" unicode="&#x1eb;" horiz-adv-x="1187" 
d="M594 -29q-146 0 -262 70q-114 69 -179 195q-65 125 -65 288q0 164 65 289q65 126 179 195t262 69q149 0 263 -69q112 -68 178 -195q65 -125 65 -289q0 -163 -65 -288q-66 -127 -178 -195q-116 -70 -263 -70zM594 139q141 0 230 106t89 279q0 175 -89 281
q-88 104 -230 104t-230 -104q-90 -107 -90 -281q0 -172 90 -279q89 -106 230 -106zM739 -492q-124 0 -197 61t-73 161q0 63 30 120q31 59 101 120q70 62 201 136l78 -47q-113 -77 -162 -126q-55 -55 -70 -92q-16 -39 -16 -79q0 -59 41 -89q39 -29 102 -29h66v-136h-101z" />
    <glyph glyph-name="uni01EE" unicode="&#x1ee;" horiz-adv-x="1308" 
d="M662 -31q-228 0 -375 109t-193 313h201q30 -120 127 -182t242 -62q164 0 249 79q86 80 86 186q0 140 -93 206t-263 66h-197v131l463 436h-770v174h996v-165l-447 -424h19q220 0 356 -110q135 -110 135 -316q0 -125 -65 -224t-187 -158q-123 -59 -284 -59zM530 1577
l-254 301h193l168 -182l168 182h192l-254 -301h-213z" />
    <glyph glyph-name="uni01EF" unicode="&#x1ef;" horiz-adv-x="1062" 
d="M512 -449q-191 0 -315 90q-122 89 -156 238h197q27 -76 97 -118q71 -42 177 -42q138 0 214 79q77 80 77 210q0 138 -92 218q-91 79 -277 79h-135v131l440 449h-659v164h864v-158l-428 -438q144 0 250 -57q107 -57 165 -155t58 -235q0 -136 -58 -237q-59 -103 -165 -160
q-108 -58 -254 -58zM410 1198l-246 318h184l164 -197l164 197h184l-246 -318h-204z" />
    <glyph glyph-name="uni01F0" unicode="&#x1f0;" horiz-adv-x="489" 
d="M-57 -420v164h55q78 0 117 51t39 139v1115h182v-1133q0 -159 -77 -248q-76 -88 -228 -88h-88zM143 1198l-215 318h185l133 -185l133 185h184l-215 -318h-205z" />
    <glyph glyph-name="uni01F4" unicode="&#x1f4;" horiz-adv-x="1536" 
d="M793 -31q-204 0 -362 97q-157 97 -244 264q-87 168 -87 383q0 218 88 385q89 168 245 263q157 95 358 95q226 0 385 -105t225 -294h-205q-45 98 -152 160q-106 61 -253 61q-141 0 -254 -70q-111 -69 -174 -195q-64 -128 -64 -300q0 -173 62 -298q64 -129 175 -198
q113 -70 261 -70q127 0 228 55q99 54 156 148q56 93 56 215v37h-446v174h641v-178q0 -180 -80 -323q-78 -141 -224 -224q-143 -82 -335 -82zM862 1577h-180l180 301h203z" />
    <glyph glyph-name="uni01F5" unicode="&#x1f5;" horiz-adv-x="1236" 
d="M557 -6q-137 0 -244 69q-105 68 -166 193q-59 121 -59 279q0 159 59 280q61 125 166 193q107 69 244 69q117 0 205 -52q87 -52 143 -142v166h178v-1018q0 -227 -125 -354q-124 -126 -348 -126q-190 0 -315 84q-124 84 -162 215h197q33 -57 100 -94t176 -37q144 0 220 74
q75 74 75 227v164q-56 -89 -143 -139q-88 -51 -201 -51zM590 162q94 0 166 48q71 48 112 132q41 85 41 195q0 109 -41 194t-112 131q-73 47 -166 47q-91 0 -164 -47q-71 -46 -112 -131q-40 -83 -40 -194q0 -112 40 -195q41 -84 112 -132q72 -48 164 -48zM678 1198h-176
l155 318h197z" />
    <glyph glyph-name="uni01F8" unicode="&#x1f8;" horiz-adv-x="1566" 
d="M184 0v1425h193l813 -1118v1118h192v-1425h-192l-813 1118v-1118h-193zM705 1577l-203 301h203l180 -301h-180z" />
    <glyph glyph-name="uni01F9" unicode="&#x1f9;" horiz-adv-x="1177" 
d="M336 621v-621h-182v1049h178v-142q56 83 141 126q86 44 189 44q117 0 199 -55q83 -56 128 -152t45 -221v-649h-182v614q0 136 -60 216q-60 79 -182 79q-75 0 -135 -33q-64 -35 -101 -99q-38 -65 -38 -156zM520 1198l-176 318h197l155 -318h-176z" />
    <glyph glyph-name="Aringacute" unicode="&#x1fa;" horiz-adv-x="1411" 
d="M610 1847l142 260h194l-162 -260h-174zM37 0l536 1341q-55 34 -84 87q-30 54 -30 118q0 66 33 121t88 88q56 33 125 33t124 -33q57 -34 89 -88t32 -121q0 -64 -30 -118q-29 -53 -84 -87l538 -1341h-207l-149 383h-637l-148 -383h-196zM705 1427q50 0 83 34q33 35 33 85
t-33 85q-33 34 -83 34q-51 0 -84 -34q-33 -35 -33 -85t33 -85q33 -34 84 -34zM446 557h504l-252 653z" />
    <glyph glyph-name="aringacute" unicode="&#x1fb;" horiz-adv-x="1095" 
d="M436 -29q-161 0 -260 87q-98 86 -98 237q0 160 116 249t328 89h248v45q0 127 -64 181t-178 54q-96 0 -155 -36q-61 -37 -76 -91h-184q27 129 138 210t279 81q196 0 309 -100t113 -313v-664h-172v158q-56 -95 -149 -141t-195 -46zM477 131q65 0 135 31q67 30 113 91
q45 60 45 153v77h-235q-129 0 -201 -45t-72 -135q0 -84 61 -128t154 -44zM547 1161q-69 0 -125 33q-55 33 -88 88q-33 56 -33 121t33 121q33 55 88 88q56 33 125 33t125 -33q55 -33 88 -88q33 -56 33 -121t-33 -121q-33 -55 -88 -88q-56 -33 -125 -33zM547 1284q51 0 84 34
t33 85t-33 85t-84 34t-84 -34t-33 -85t33 -85t84 -34zM625 1708h-181l181 301h202z" />
    <glyph glyph-name="AEacute" unicode="&#x1fc;" horiz-adv-x="2170" 
d="M231 0h-217l940 1425h1078v-174h-795v-432h772v-174h-772v-471h805v-174h-1000v383h-565zM588 557h454v709zM1565 1577h-181l181 301h202z" />
    <glyph glyph-name="aeacute" unicode="&#x1fd;" horiz-adv-x="1824" 
d="M449 -29q-168 0 -270 87q-101 86 -101 237q0 159 113 245q114 87 325 87h254v51q0 127 -64 181t-178 54q-96 0 -155 -36q-61 -37 -76 -91h-184q27 129 138 210t279 81q130 0 223 -48q92 -47 142 -157q64 109 164 157q101 48 215 48q148 0 250 -66t155 -185
q54 -122 54 -273v-74h-772q11 -169 92 -256q82 -88 225 -88q93 0 159 32q64 31 85 83h188q-37 -127 -154 -203q-116 -76 -278 -76q-147 0 -253 62q-105 62 -167 176q-57 -116 -169 -177q-113 -61 -240 -61zM1270 913q-128 0 -205 -76t-100 -210h583q-7 127 -78 208
q-68 78 -200 78zM477 131q72 0 141 29q68 29 110 89t42 154v76h-238q-127 0 -198 -43q-72 -44 -72 -133q0 -84 61 -128t154 -44zM967 1198h-176l155 318h197z" />
    <glyph glyph-name="Oslashacute" unicode="&#x1fe;" horiz-adv-x="1609" 
d="M168 -98l164 243q-109 101 -170 246q-62 147 -62 322q0 161 53 297t146 235q95 101 223 156t283 55q97 0 184 -22q83 -21 164 -64l102 154h187l-164 -244q109 -101 170 -246q61 -144 61 -321q0 -163 -52 -297q-54 -138 -146 -236q-93 -98 -224 -155q-130 -56 -282 -56
q-94 0 -184 23q-87 22 -164 63l-103 -153h-186zM299 713q0 -125 37 -227q38 -104 104 -179l609 910q-107 61 -244 61q-147 0 -261 -72q-113 -71 -179 -199q-66 -127 -66 -294zM805 147q148 0 262 72t179 200t65 294q0 124 -37 226t-105 179l-608 -909q109 -62 244 -62z
M883 1577h-181l181 301h202z" />
    <glyph glyph-name="oslashacute" unicode="&#x1ff;" horiz-adv-x="1187" 
d="M113 -98l133 207q-76 73 -117 180q-41 108 -41 235q0 164 65 289q66 127 178 195q114 69 263 69q125 0 233 -53l78 123h170l-133 -207q76 -74 117 -180q41 -108 41 -236q0 -163 -65 -288q-66 -127 -178 -195q-116 -70 -263 -70q-124 0 -234 54l-77 -123h-170zM272 524
q0 -153 72 -258l391 613q-64 32 -141 32q-142 0 -232 -105t-90 -282zM594 137q141 0 231 107q90 106 90 280q0 154 -71 258l-391 -612q66 -33 141 -33zM670 1198h-176l155 318h197z" />
    <glyph glyph-name="uni0218" unicode="&#x218;" horiz-adv-x="1300" 
d="M664 -31q-229 0 -384 107q-156 107 -202 299h198q34 -106 136 -167t250 -61q142 0 243 61q99 60 99 175q0 66 -27 113t-94 81q-66 34 -195 52l-170 26q-205 33 -304 123t-99 262q0 129 70 221q70 93 191 144q120 51 267 51q139 0 250 -43q112 -43 188 -128
q77 -86 101 -216h-199q-27 110 -116 160q-88 49 -222 49q-149 0 -241 -60q-91 -60 -91 -167q0 -93 64 -143q64 -51 242 -79l159 -24q221 -33 322 -134q102 -102 102 -276q0 -133 -69 -229q-70 -97 -192 -147q-123 -50 -277 -50zM535 -522q42 62 68 107q23 40 42 96
q-51 5 -78 32q-28 28 -28 72q0 48 32 79q34 32 88 32q62 0 98 -37q36 -38 36 -97q0 -62 -27 -128t-90 -156h-141z" />
    <glyph glyph-name="uni0219" unicode="&#x219;" horiz-adv-x="1009" 
d="M524 -31q-184 0 -303 87t-143 220h184q16 -59 85 -102q68 -43 173 -43q102 0 164 42q61 42 61 116q0 60 -43 97t-147 52l-160 21q-297 37 -297 291q0 96 53 170q52 73 143 115q92 42 208 42q170 0 276 -82q107 -83 135 -209h-182q-22 65 -79 97t-146 32q-100 0 -161 -44
q-60 -43 -60 -115q0 -60 43 -90q46 -31 141 -43l160 -21q149 -18 226 -102q77 -85 77 -205q0 -98 -53 -172q-52 -72 -146 -114q-90 -40 -209 -40zM401 -522q49 71 69 107q23 40 42 96q-51 5 -78 32q-28 28 -28 72q0 48 32 79q34 32 88 32q62 0 98 -37q35 -36 35 -97
q0 -64 -26 -128q-27 -66 -90 -156h-142z" />
    <glyph glyph-name="uni021A" unicode="&#x21a;" horiz-adv-x="1370" 
d="M782 0h-194v1251h-506v174h1206v-174h-506v-1251zM555 -522q49 71 69 107q23 40 42 96q-51 5 -78 32q-29 29 -29 72q0 47 33 79q34 32 88 32q61 0 97 -37q36 -38 36 -97q0 -62 -27 -128t-90 -156h-141z" />
    <glyph glyph-name="uni021B" unicode="&#x21b;" horiz-adv-x="700" 
d="M530 -8q-149 0 -229 83t-80 242v568h-186v164h186v333q89 6 182 35v-368h230v-164h-230v-551q0 -86 42 -132t118 -46h70v-164h-103zM299 -522q49 71 69 107q23 40 42 96q-51 5 -78 32q-29 29 -29 72q0 47 33 79q34 32 88 32q61 0 97 -37q36 -38 36 -97q0 -62 -27 -128
t-90 -156h-141z" />
    <glyph glyph-name="uni021E" unicode="&#x21e;" horiz-adv-x="1570" 
d="M184 0v1425h195v-589h813v589h194v-1425h-194v662h-813v-662h-195zM680 1577l-254 301h192l168 -182l168 182h193l-254 -301h-213z" />
    <glyph glyph-name="uni021F" unicode="&#x21f;" horiz-adv-x="1177" 
d="M154 0v1485h182v-574q56 80 140 123q85 43 186 43q117 0 199 -55q83 -56 128 -152t45 -221v-649h-182v614q0 136 -60 216q-60 79 -182 79q-75 0 -135 -33q-64 -35 -101 -99q-38 -65 -38 -156v-621h-182zM139 1577l-254 301h193l168 -182l168 182h192l-254 -301h-213z" />
    <glyph glyph-name="uni0220" unicode="&#x220;" horiz-adv-x="1533" 
d="M184 0v1425h189v-233q74 126 196 194q125 70 271 70q168 0 287 -80q117 -79 181 -217q62 -134 62 -309v-1270h-194v1239q0 212 -97 336q-96 123 -282 123q-114 0 -208 -52q-97 -54 -153 -154q-57 -102 -57 -249v-823h-195z" />
    <glyph glyph-name="uni0226" unicode="&#x226;" horiz-adv-x="1411" 
d="M1167 0l-149 383h-633l-147 -383h-201l569 1425h197l571 -1425h-207zM451 557h499l-250 647zM705 1599q-52 0 -89 37q-36 36 -36 88q0 55 36 90t89 35q54 0 89 -35t35 -90q0 -52 -35 -88q-36 -37 -89 -37z" />
    <glyph glyph-name="uni0227" unicode="&#x227;" horiz-adv-x="1095" 
d="M436 -29q-161 0 -260 87q-98 86 -98 237q0 160 116 249t328 89h248v45q0 127 -64 181t-178 54q-96 0 -155 -36q-61 -37 -76 -91h-184q27 129 138 210t279 81q196 0 309 -100t113 -313v-664h-172v158q-56 -95 -149 -141t-195 -46zM477 131q65 0 135 31q67 30 113 91
q45 60 45 153v77h-235q-129 0 -201 -45t-72 -135q0 -84 61 -128t154 -44zM547 1229q-51 0 -88 37t-37 88q0 53 37 89t88 36q53 0 89 -36t36 -89q0 -50 -36 -88q-36 -37 -89 -37z" />
    <glyph glyph-name="uni022E" unicode="&#x22e;" horiz-adv-x="1609" 
d="M805 -31q-153 0 -283 56t-223 155q-92 98 -146 236q-53 136 -53 297t53 297t146 235q95 101 223 156t283 55q154 0 282 -55q130 -56 224 -156q93 -99 146 -235q52 -134 52 -297t-52 -297q-54 -138 -146 -236q-93 -98 -224 -155q-130 -56 -282 -56zM805 147q148 0 262 72
t179 200t65 294t-65 294q-64 126 -179 199q-114 72 -262 72q-147 0 -261 -72q-113 -71 -179 -199q-66 -127 -66 -294t66 -294q67 -129 179 -200q114 -72 261 -72zM805 1599q-51 0 -88 37t-37 88q0 54 37 90q36 35 88 35q54 0 89 -35q36 -36 36 -90q0 -50 -36 -88
q-36 -37 -89 -37z" />
    <glyph glyph-name="uni022F" unicode="&#x22f;" horiz-adv-x="1187" 
d="M594 -29q-146 0 -262 70q-114 69 -179 195q-65 125 -65 288q0 164 65 289q65 126 179 195t262 69q149 0 263 -69q112 -68 178 -195q65 -125 65 -289q0 -163 -65 -288q-66 -127 -178 -195q-116 -70 -263 -70zM594 139q141 0 230 106t89 279q0 175 -89 281
q-88 104 -230 104t-230 -104q-90 -107 -90 -281q0 -172 90 -279q89 -106 230 -106zM594 1229q-51 0 -88 37t-37 88q0 53 37 89q38 36 88 36q53 0 89 -36t36 -89q0 -50 -36 -88q-36 -37 -89 -37z" />
    <glyph glyph-name="uni0232" unicode="&#x232;" horiz-adv-x="1318" 
d="M563 0v549l-532 876h225l410 -690l403 690h217l-528 -872v-553h-195zM338 1812h639v-155h-639v155z" />
    <glyph glyph-name="uni0233" unicode="&#x233;" horiz-adv-x="1069" 
d="M268 -420l174 420l-415 1049h206l308 -834l303 834h198l-579 -1469h-195zM231 1438h615v-154h-615v154z" />
    <glyph glyph-name="uni0237" unicode="&#x237;" horiz-adv-x="489" 
d="M-57 -420v164h55q78 0 117 51t39 139v1115h182v-1133q0 -159 -77 -248q-76 -88 -228 -88h-88z" />
    <glyph glyph-name="uni0241" unicode="&#x241;" horiz-adv-x="1286" 
d="M500 0v309q0 97 17 166q18 73 69 138q53 67 149 128q67 43 133 95q52 41 76 88q25 48 25 112q0 103 -90 172q-91 70 -248 70t-254 -71q-96 -71 -113 -173h-192q18 117 89 212q73 98 191 153q122 57 287 57q169 0 286 -55q115 -54 180 -151q62 -93 62 -214
q0 -140 -72 -228q-74 -91 -216 -181q-86 -56 -125 -107q-38 -50 -49 -106q-11 -58 -11 -123v-291h-194z" />
    <glyph glyph-name="uni0242" unicode="&#x242;" horiz-adv-x="1077" 
d="M395 0v98q0 75 17 138q17 62 64 118q50 60 142 115q111 68 150 121q37 50 37 117q0 50 -34 96q-35 48 -94 77q-58 29 -142 29q-119 0 -199 -60t-96 -144h-187q18 101 81 187t165 135q103 50 238 50q137 0 240 -50q101 -49 158 -135q56 -84 56 -187q0 -107 -57 -189
q-57 -83 -184 -162q-80 -51 -117 -93q-37 -41 -46 -83q-9 -40 -9 -90v-88h-183z" />
    <glyph glyph-name="uni0244" unicode="&#x244;" horiz-adv-x="1671" 
d="M43 696v158h197v571h194v-571h803v571h195v-571h196v-158h-196v-88q0 -192 -68 -337q-67 -143 -200 -223q-131 -79 -328 -79q-195 0 -328 79q-134 80 -201 223t-67 337v88h-197zM434 625q0 -221 97 -349q97 -129 305 -129q206 0 304 129q97 128 97 349v71h-803v-71z" />
    <glyph glyph-name="uni024C" unicode="&#x24c;" horiz-adv-x="1435" 
d="M225 0v535h-164v174h164v716h537q273 0 413 -116t140 -324q0 -165 -89 -271q-88 -105 -227 -149l379 -565h-231l-354 535h-373v-535h-195zM739 1251h-319v-542h319q193 0 285 72t92 206q0 133 -92 199q-90 65 -285 65z" />
    <glyph glyph-name="uni024D" unicode="&#x24d;" horiz-adv-x="745" 
d="M174 0v375h-158v127h158v547h178v-187q51 95 129 143q80 50 178 50h33v-176h-37q-79 0 -147 -39t-110 -117t-42 -193v-28h334v-127h-334v-375h-182z" />
    <glyph glyph-name="uni0259" unicode="&#x259;" horiz-adv-x="1140" 
d="M547 1077q158 0 270 -67t174 -193t62 -295q0 -155 -61 -282q-60 -124 -172 -197q-111 -72 -267 -72q-146 0 -251 67t-157 185q-53 120 -53 275v86h772q-15 160 -96 244q-82 85 -223 85q-94 0 -157 -31q-64 -31 -85 -83h-188q37 126 153 202t279 76zM555 135q129 0 208 79
t97 218h-584q6 -132 75 -215q69 -82 204 -82z" />
    <glyph glyph-name="uni02BB" unicode="&#x2bb;" horiz-adv-x="1173" 
d="M571 942q-63 0 -102 42t-39 112q0 83 35 173q35 89 119 214h161q-70 -105 -106 -174q-34 -65 -49 -125q52 -6 82 -38t30 -79q0 -51 -35 -87q-36 -38 -96 -38z" />
    <glyph glyph-name="uni02BC" unicode="&#x2bc;" horiz-adv-x="546" 
d="M90 942q74 111 107 174q34 65 49 125q-52 6 -82 38q-31 33 -31 79q0 50 36 87q36 38 95 38q66 0 104 -42q38 -43 38 -112q0 -81 -35 -171q-34 -87 -119 -216h-162z" />
    <glyph glyph-name="circumflex" unicode="&#x2c6;" horiz-adv-x="1173" 
d="M240 1198l245 318h205l246 -318h-184l-164 197l-164 -197h-184z" />
    <glyph glyph-name="ring" unicode="&#x2da;" horiz-adv-x="1173" 
d="M588 1161q-70 0 -125 33t-88 88q-33 56 -33 121t33 121q33 55 88 88t125 33t125 -33t88 -88q33 -56 33 -121t-33 -121q-33 -55 -88 -88t-125 -33zM588 1284q51 0 84 34t33 85t-33 85t-84 34t-84 -34t-33 -85t33 -85t84 -34z" />
    <glyph glyph-name="tilde" unicode="&#x2dc;" horiz-adv-x="1173" 
d="M741 1202q-40 0 -86 16q-40 14 -102 54q-42 30 -60 37q-22 8 -42 8q-64 0 -64 -70v-41h-143v68q0 91 52 143q53 53 136 53q46 0 87 -14q48 -16 102 -55q41 -28 61 -36q21 -9 41 -9q63 0 63 69v41h144v-67q0 -90 -52 -143q-52 -54 -137 -54z" />
    <glyph glyph-name="uni1E04" unicode="&#x1e04;" horiz-adv-x="1409" 
d="M184 0v1425h580q235 0 362 -100t127 -276q0 -110 -61 -187q-62 -78 -170 -119q144 -39 213 -128q70 -90 70 -214q0 -183 -136 -292t-378 -109h-607zM741 1251h-362v-430h362q147 0 232 56q84 55 84 159q0 215 -316 215zM774 647h-395v-473h395q332 0 332 238
q0 112 -86 174q-85 61 -246 61zM684 -387q-51 0 -88 37t-37 88q0 53 37 89q38 36 88 36q53 0 89 -36t36 -89q0 -50 -36 -88q-36 -37 -89 -37z" />
    <glyph glyph-name="uni1E05" unicode="&#x1e05;" horiz-adv-x="1236" 
d="M154 0v1485h182v-600q56 91 143 141q89 51 201 51q141 0 245 -70q105 -71 165 -195q59 -122 59 -288q0 -164 -59 -286q-61 -126 -165 -196q-106 -71 -245 -71q-114 0 -205 54q-86 51 -143 145v-170h-178zM647 139q138 0 227 106t89 279q0 174 -89 280q-89 105 -227 105
q-142 0 -230 -106q-89 -107 -89 -279q0 -171 89 -278t230 -107zM643 -387q-51 0 -88 37t-37 88q0 53 37 89t88 36q53 0 89 -36t36 -89q0 -50 -36 -88q-36 -37 -89 -37z" />
    <glyph glyph-name="uni1E06" unicode="&#x1e06;" horiz-adv-x="1409" 
d="M184 0v1425h580q235 0 362 -100t127 -276q0 -110 -61 -187q-62 -78 -170 -119q144 -39 213 -128q70 -90 70 -214q0 -183 -136 -292t-378 -109h-607zM741 1251h-362v-430h362q147 0 232 56q84 55 84 159q0 215 -316 215zM774 647h-395v-473h395q332 0 332 238
q0 112 -86 174q-85 61 -246 61zM365 -186h639v-156h-639v156z" />
    <glyph glyph-name="uni1E07" unicode="&#x1e07;" horiz-adv-x="1236" 
d="M154 0v1485h182v-600q56 91 143 141q89 51 201 51q141 0 245 -70q105 -71 165 -195q59 -122 59 -288q0 -164 -59 -286q-61 -126 -165 -196q-106 -71 -245 -71q-114 0 -205 54q-86 51 -143 145v-170h-178zM647 139q138 0 227 106t89 279q0 174 -89 280q-89 105 -227 105
q-142 0 -230 -106q-89 -107 -89 -279q0 -171 89 -278t230 -107zM336 -186h614v-154h-614v154z" />
    <glyph glyph-name="uni1E0C" unicode="&#x1e0c;" horiz-adv-x="1499" 
d="M184 0v1425h514q199 0 358 -87q160 -87 251 -246q92 -160 92 -379q0 -217 -92 -378t-251 -248t-358 -87h-514zM379 174h307q142 0 259 64t185 184q70 123 70 291q0 170 -70 292q-69 120 -185 183q-115 63 -259 63h-307v-1077zM723 -387q-51 0 -88 37t-37 88q0 53 37 89
t88 36q53 0 89 -36t36 -89q0 -50 -36 -88q-36 -37 -89 -37z" />
    <glyph glyph-name="uni1E0D" unicode="&#x1e0d;" horiz-adv-x="1236" 
d="M557 -29q-137 0 -244 71q-105 70 -166 196q-59 122 -59 286q0 166 59 288q60 125 166 195t244 70q113 0 201 -51q87 -50 143 -141v600h182v-1485h-178v170q-57 -94 -143 -145q-91 -54 -205 -54zM590 139q141 0 230 107t89 278q0 172 -89 279q-88 106 -230 106
q-140 0 -228 -105q-88 -104 -88 -280q0 -175 88 -279q89 -106 228 -106zM614 -387q-51 0 -88 37t-37 88q0 53 37 89q38 36 88 36q53 0 89 -36t36 -89q0 -50 -36 -88q-36 -37 -89 -37z" />
    <glyph glyph-name="uni1E0E" unicode="&#x1e0e;" horiz-adv-x="1499" 
d="M184 0v1425h514q199 0 358 -87q160 -87 251 -246q92 -160 92 -379q0 -217 -92 -378t-251 -248t-358 -87h-514zM379 174h307q142 0 259 64t185 184q70 123 70 291q0 170 -70 292q-69 120 -185 183q-115 63 -259 63h-307v-1077zM403 -186h639v-156h-639v156z" />
    <glyph glyph-name="uni1E0F" unicode="&#x1e0f;" horiz-adv-x="1236" 
d="M557 -29q-137 0 -244 71q-105 70 -166 196q-59 122 -59 286q0 166 59 288q60 125 166 195t244 70q113 0 201 -51q87 -50 143 -141v600h182v-1485h-178v170q-57 -94 -143 -145q-91 -54 -205 -54zM590 139q141 0 230 107t89 278q0 172 -89 279q-88 106 -230 106
q-140 0 -228 -105q-88 -104 -88 -280q0 -175 88 -279q89 -106 228 -106zM307 -186h615v-154h-615v154z" />
    <glyph glyph-name="uni1E10" unicode="&#x1e10;" horiz-adv-x="1499" 
d="M184 0v1425h514q199 0 358 -87q160 -87 251 -246q92 -160 92 -379q0 -217 -92 -378t-251 -248t-358 -87h-514zM379 174h307q142 0 259 64t185 184q70 123 70 291q0 170 -70 292q-69 120 -185 183q-115 63 -259 63h-307v-1077zM594 -522q49 71 69 107q23 40 42 96
q-51 5 -78 32q-29 29 -29 72q0 47 33 79q34 32 88 32q61 0 97 -37q36 -38 36 -97q0 -62 -27 -128t-90 -156h-141z" />
    <glyph glyph-name="uni1E11" unicode="&#x1e11;" horiz-adv-x="1236" 
d="M557 -29q-137 0 -244 71q-105 70 -166 196q-59 122 -59 286q0 166 59 288q60 125 166 195t244 70q113 0 201 -51q87 -50 143 -141v600h182v-1485h-178v170q-57 -94 -143 -145q-91 -54 -205 -54zM590 139q141 0 230 107t89 278q0 172 -89 279q-88 106 -230 106
q-140 0 -228 -105q-88 -104 -88 -280q0 -175 88 -279q89 -106 228 -106zM485 -522q49 71 69 107q23 40 42 96q-51 5 -78 32q-29 29 -29 72q0 47 33 79q34 32 88 32q62 0 98 -37q35 -36 35 -97q0 -64 -26 -128q-27 -66 -90 -156h-142z" />
    <glyph glyph-name="uni1E20" unicode="&#x1e20;" horiz-adv-x="1536" 
d="M793 -31q-204 0 -362 97q-157 97 -244 264q-87 168 -87 383q0 218 88 385q89 168 245 263q157 95 358 95q226 0 385 -105t225 -294h-205q-45 98 -152 160q-106 61 -253 61q-141 0 -254 -70q-111 -69 -174 -195q-64 -128 -64 -300q0 -173 62 -298q64 -129 175 -198
q113 -70 261 -70q127 0 228 55q99 54 156 148q56 93 56 215v37h-446v174h641v-178q0 -180 -80 -323q-78 -141 -224 -224q-143 -82 -335 -82zM465 1812h639v-155h-639v155z" />
    <glyph glyph-name="uni1E21" unicode="&#x1e21;" horiz-adv-x="1236" 
d="M557 -6q-137 0 -244 69q-105 68 -166 193q-59 121 -59 279q0 159 59 280q61 125 166 193q107 69 244 69q117 0 205 -52q87 -52 143 -142v166h178v-1018q0 -227 -125 -354q-124 -126 -348 -126q-190 0 -315 84q-124 84 -162 215h197q33 -57 100 -94t176 -37q144 0 220 74
q75 74 75 227v164q-56 -89 -143 -139q-88 -51 -201 -51zM590 162q94 0 166 48q71 48 112 132q41 85 41 195q0 109 -41 194t-112 131q-73 47 -166 47q-91 0 -164 -47q-71 -46 -112 -131q-40 -83 -40 -194q0 -112 40 -195q41 -84 112 -132q72 -48 164 -48zM295 1438h614v-154
h-614v154z" />
    <glyph glyph-name="uni1E22" unicode="&#x1e22;" horiz-adv-x="1570" 
d="M184 0v1425h195v-589h813v589h194v-1425h-194v662h-813v-662h-195zM786 1599q-51 0 -88 37q-36 36 -36 88q0 55 36 90t88 35q55 0 90 -35t35 -90q0 -52 -35 -88q-36 -37 -90 -37z" />
    <glyph glyph-name="uni1E23" unicode="&#x1e23;" horiz-adv-x="1177" 
d="M154 0v1485h182v-574q56 80 140 123q85 43 186 43q117 0 199 -55q83 -56 128 -152t45 -221v-649h-182v614q0 136 -60 216q-60 79 -182 79q-75 0 -135 -33q-64 -35 -101 -99q-38 -65 -38 -156v-621h-182zM246 1599q-51 0 -88 37t-37 88q0 54 37 90q36 35 88 35
q54 0 89 -35q36 -36 36 -90q0 -50 -36 -88q-36 -37 -89 -37z" />
    <glyph glyph-name="uni1E24" unicode="&#x1e24;" horiz-adv-x="1570" 
d="M184 0v1425h195v-589h813v589h194v-1425h-194v662h-813v-662h-195zM786 -387q-51 0 -88 37q-36 36 -36 88q0 54 36 89q38 36 88 36q54 0 90 -36q35 -35 35 -89q0 -52 -35 -88q-36 -37 -90 -37z" />
    <glyph glyph-name="uni1E25" unicode="&#x1e25;" horiz-adv-x="1177" 
d="M154 0v1485h182v-574q56 80 140 123q85 43 186 43q117 0 199 -55q83 -56 128 -152t45 -221v-649h-182v614q0 136 -60 216q-60 79 -182 79q-75 0 -135 -33q-64 -35 -101 -99q-38 -65 -38 -156v-621h-182zM596 -387q-51 0 -88 37t-37 88q0 53 37 89q38 36 88 36
q53 0 89 -36t36 -89q0 -50 -36 -88q-36 -37 -89 -37z" />
    <glyph glyph-name="uni1E28" unicode="&#x1e28;" horiz-adv-x="1570" 
d="M184 0v1425h195v-589h813v589h194v-1425h-194v662h-813v-662h-195zM119 -492v127h98q57 0 89 18t32 56q0 72 -109 72h-84l88 258h127l-57 -145q82 -1 138 -54q55 -52 55 -135q0 -91 -65 -144t-175 -53h-137z" />
    <glyph glyph-name="uni1E29" unicode="&#x1e29;" horiz-adv-x="1177" 
d="M154 0v1485h182v-574q56 80 140 123q85 43 186 43q117 0 199 -55q83 -56 128 -152t45 -221v-649h-182v614q0 136 -60 216q-60 79 -182 79q-75 0 -135 -33q-64 -35 -101 -99q-38 -65 -38 -156v-621h-182zM82 -492v127h98q57 0 89 18t32 56q0 72 -111 72h-81l90 274h129
l-62 -161q82 -1 138 -54q55 -52 55 -135q0 -91 -65 -144t-175 -53h-137z" />
    <glyph glyph-name="uni1E2A" unicode="&#x1e2a;" horiz-adv-x="1570" 
d="M184 0v1425h195v-589h813v589h194v-1425h-194v662h-813v-662h-195zM786 -446q-142 0 -237 82q-96 83 -107 223h166q7 -71 57 -116q49 -44 121 -44q73 0 122 44q50 45 57 116h165q-8 -141 -105 -223t-239 -82z" />
    <glyph glyph-name="uni1E2B" unicode="&#x1e2b;" horiz-adv-x="1177" 
d="M154 0v1485h182v-574q56 80 140 123q85 43 186 43q117 0 199 -55q83 -56 128 -152t45 -221v-649h-182v614q0 136 -60 216q-60 79 -182 79q-75 0 -135 -33q-64 -35 -101 -99q-38 -65 -38 -156v-621h-182zM596 -457q-140 0 -231 85q-93 87 -103 235h164q7 -82 53 -129
q45 -47 117 -47t117 47q46 47 53 129h164q-7 -148 -102 -235q-92 -85 -232 -85z" />
    <glyph glyph-name="uni1E32" unicode="&#x1e32;" horiz-adv-x="1351" 
d="M184 0v1425h195v-612l665 612h250l-751 -686l786 -739h-266l-684 643v-643h-195zM719 -387q-51 0 -88 37t-37 88q0 53 37 89t88 36q53 0 89 -36t36 -89q0 -50 -36 -88q-36 -37 -89 -37z" />
    <glyph glyph-name="uni1E33" unicode="&#x1e33;" horiz-adv-x="1089" 
d="M154 0v1485h182v-875l461 439h231l-522 -496l567 -553h-239l-498 494v-494h-182zM575 -387q-51 0 -88 37q-36 36 -36 88q0 54 36 89q37 36 88 36q54 0 90 -36q35 -35 35 -89q0 -52 -35 -88q-36 -37 -90 -37z" />
    <glyph glyph-name="uni1E34" unicode="&#x1e34;" horiz-adv-x="1351" 
d="M184 0v1425h195v-612l665 612h250l-751 -686l786 -739h-266l-684 643v-643h-195zM399 -186h639v-156h-639v156z" />
    <glyph glyph-name="uni1E35" unicode="&#x1e35;" horiz-adv-x="1089" 
d="M154 0v1485h182v-875l461 439h231l-522 -496l567 -553h-239l-498 494v-494h-182zM268 -186h615v-154h-615v154z" />
    <glyph glyph-name="uni1E36" unicode="&#x1e36;" horiz-adv-x="1232" 
d="M1151 174v-174h-967v1425h195v-1251h772zM674 -387q-51 0 -88 37t-37 88q0 53 37 89q38 36 88 36q53 0 89 -36t36 -89q0 -50 -36 -88q-36 -37 -89 -37z" />
    <glyph glyph-name="uni1E37" unicode="&#x1e37;" horiz-adv-x="489" 
d="M154 0v1485h182v-1485h-182zM246 -387q-51 0 -88 37t-37 88q0 53 37 89q38 36 88 36q53 0 89 -36t36 -89q0 -50 -36 -88q-36 -37 -89 -37z" />
    <glyph glyph-name="uni1E3A" unicode="&#x1e3a;" horiz-adv-x="1232" 
d="M1151 174v-174h-967v1425h195v-1251h772zM354 -186h639v-156h-639v156z" />
    <glyph glyph-name="uni1E3B" unicode="&#x1e3b;" horiz-adv-x="489" 
d="M154 0v1485h182v-1485h-182zM-41 -186h573v-154h-573v154z" />
    <glyph glyph-name="uni1E3E" unicode="&#x1e3e;" horiz-adv-x="1818" 
d="M375 0h-191v1425h213l516 -829l508 829h213v-1425h-192v1133l-533 -867l-534 862v-1128zM987 1577h-180l180 301h203z" />
    <glyph glyph-name="uni1E3F" unicode="&#x1e3f;" horiz-adv-x="1763" 
d="M154 0v1049h178v-129q105 157 299 157q102 0 179 -50q76 -49 120 -142q55 93 144 143q88 49 194 49q160 0 256 -112q96 -113 96 -308v-657h-182v633q0 128 -58 203q-57 73 -157 73t-172 -73q-72 -74 -72 -203v-633h-182v633q0 129 -59 203q-58 73 -156 73
q-101 0 -173 -73q-73 -75 -73 -203v-633h-182zM1004 1198h-177l156 318h197z" />
    <glyph glyph-name="uni1E42" unicode="&#x1e42;" horiz-adv-x="1818" 
d="M375 0h-191v1425h213l516 -829l508 829h213v-1425h-192v1133l-533 -867l-534 862v-1128zM909 -387q-51 0 -88 37t-37 88q0 53 37 89t88 36q53 0 89 -36t36 -89q0 -50 -36 -88q-36 -37 -89 -37z" />
    <glyph glyph-name="uni1E43" unicode="&#x1e43;" horiz-adv-x="1763" 
d="M154 0v1049h178v-129q105 157 299 157q102 0 179 -50q76 -49 120 -142q55 93 144 143q88 49 194 49q160 0 256 -112q96 -113 96 -308v-657h-182v633q0 128 -58 203q-57 73 -157 73t-172 -73q-72 -74 -72 -203v-633h-182v633q0 129 -59 203q-58 73 -156 73
q-101 0 -173 -73q-73 -75 -73 -203v-633h-182zM889 -387q-51 0 -88 37t-37 88q0 53 37 89t88 36q53 0 89 -36t36 -89q0 -50 -36 -88q-36 -37 -89 -37z" />
    <glyph glyph-name="uni1E44" unicode="&#x1e44;" horiz-adv-x="1566" 
d="M184 0v1425h193l813 -1118v1118h192v-1425h-192l-813 1118v-1118h-193zM782 1599q-51 0 -88 37t-37 88q0 54 37 90q36 35 88 35q54 0 89 -35q36 -36 36 -90q0 -50 -36 -88q-36 -37 -89 -37z" />
    <glyph glyph-name="uni1E45" unicode="&#x1e45;" horiz-adv-x="1177" 
d="M336 621v-621h-182v1049h178v-142q56 83 141 126q86 44 189 44q117 0 199 -55q83 -56 128 -152t45 -221v-649h-182v614q0 136 -60 216q-60 79 -182 79q-75 0 -135 -33q-64 -35 -101 -99q-38 -65 -38 -156zM596 1229q-51 0 -88 37t-37 88q0 53 37 89q38 36 88 36
q53 0 89 -36t36 -89q0 -50 -36 -88q-36 -37 -89 -37z" />
    <glyph glyph-name="uni1E46" unicode="&#x1e46;" horiz-adv-x="1566" 
d="M184 0v1425h193l813 -1118v1118h192v-1425h-192l-813 1118v-1118h-193zM782 -387q-51 0 -88 37t-37 88q0 53 37 89q38 36 88 36q53 0 89 -36t36 -89q0 -50 -36 -88q-36 -37 -89 -37z" />
    <glyph glyph-name="uni1E47" unicode="&#x1e47;" horiz-adv-x="1177" 
d="M336 621v-621h-182v1049h178v-142q56 83 141 126q86 44 189 44q117 0 199 -55q83 -56 128 -152t45 -221v-649h-182v614q0 136 -60 216q-60 79 -182 79q-75 0 -135 -33q-64 -35 -101 -99q-38 -65 -38 -156zM596 -387q-51 0 -88 37t-37 88q0 53 37 89q38 36 88 36
q53 0 89 -36t36 -89q0 -50 -36 -88q-36 -37 -89 -37z" />
    <glyph glyph-name="uni1E48" unicode="&#x1e48;" horiz-adv-x="1566" 
d="M184 0v1425h193l813 -1118v1118h192v-1425h-192l-813 1118v-1118h-193zM463 -186h639v-156h-639v156z" />
    <glyph glyph-name="uni1E49" unicode="&#x1e49;" horiz-adv-x="1177" 
d="M336 621v-621h-182v1049h178v-142q56 83 141 126q86 44 189 44q117 0 199 -55q83 -56 128 -152t45 -221v-649h-182v614q0 136 -60 216q-60 79 -182 79q-75 0 -135 -33q-64 -35 -101 -99q-38 -65 -38 -156zM289 -186h614v-154h-614v154z" />
    <glyph glyph-name="uni1E5A" unicode="&#x1e5a;" horiz-adv-x="1394" 
d="M184 0v1425h537q273 0 413 -116t140 -324q0 -165 -89 -271q-88 -105 -227 -149l379 -565h-231l-354 535h-373v-535h-195zM379 709h319q194 0 285 72q92 72 92 206q0 133 -92 199q-90 65 -285 65h-319v-542zM731 -387q-51 0 -88 37t-37 88q0 53 37 89t88 36q53 0 89 -36
t36 -89q0 -50 -36 -88q-36 -37 -89 -37z" />
    <glyph glyph-name="uni1E5B" unicode="&#x1e5b;" horiz-adv-x="727" 
d="M336 530v-530h-182v1049h178v-187q51 95 129 143q80 50 178 50h33v-176h-37q-81 0 -148 -39t-109 -117t-42 -193zM246 -387q-51 0 -88 37t-37 88q0 53 37 89q38 36 88 36q53 0 89 -36t36 -89q0 -50 -36 -88q-36 -37 -89 -37z" />
    <glyph glyph-name="uni1E5E" unicode="&#x1e5e;" horiz-adv-x="1394" 
d="M184 0v1425h537q273 0 413 -116t140 -324q0 -165 -89 -271q-88 -105 -227 -149l379 -565h-231l-354 535h-373v-535h-195zM379 709h319q194 0 285 72q92 72 92 206q0 133 -92 199q-90 65 -285 65h-319v-542zM412 -186h639v-156h-639v156z" />
    <glyph glyph-name="uni1E5F" unicode="&#x1e5f;" horiz-adv-x="727" 
d="M336 530v-530h-182v1049h178v-187q51 95 129 143q80 50 178 50h33v-176h-37q-81 0 -148 -39t-109 -117t-42 -193zM-41 -186h573v-154h-573v154z" />
    <glyph glyph-name="uni1E62" unicode="&#x1e62;" horiz-adv-x="1300" 
d="M664 -31q-229 0 -384 107q-156 107 -202 299h198q34 -106 136 -167t250 -61q142 0 243 61q99 60 99 175q0 66 -27 113t-94 81q-66 34 -195 52l-170 26q-205 33 -304 123t-99 262q0 129 70 221q70 93 191 144q120 51 267 51q139 0 250 -43q112 -43 188 -128
q77 -86 101 -216h-199q-27 110 -116 160q-88 49 -222 49q-149 0 -241 -60q-91 -60 -91 -167q0 -93 64 -143q64 -51 242 -79l159 -24q221 -33 322 -134q102 -102 102 -276q0 -133 -69 -229q-70 -97 -192 -147q-123 -50 -277 -50zM664 -387q-52 0 -89 37q-36 36 -36 88
q0 54 36 89q37 36 89 36q53 0 89 -36q35 -35 35 -89q0 -52 -35 -88q-36 -37 -89 -37z" />
    <glyph glyph-name="uni1E63" unicode="&#x1e63;" horiz-adv-x="1009" 
d="M524 -31q-184 0 -303 87t-143 220h184q16 -59 85 -102q68 -43 173 -43q102 0 164 42q61 42 61 116q0 60 -43 97t-147 52l-160 21q-297 37 -297 291q0 96 53 170q52 73 143 115q92 42 208 42q170 0 276 -82q107 -83 135 -209h-182q-22 65 -79 97t-146 32q-100 0 -161 -44
q-60 -43 -60 -115q0 -60 43 -90q46 -31 141 -43l160 -21q149 -18 226 -102q77 -85 77 -205q0 -98 -53 -172q-52 -72 -146 -114q-90 -40 -209 -40zM530 -387q-51 0 -88 37q-36 36 -36 88q0 54 36 89q37 36 88 36q54 0 90 -36q35 -35 35 -89q0 -52 -35 -88q-36 -37 -90 -37z
" />
    <glyph glyph-name="uni1E6C" unicode="&#x1e6c;" horiz-adv-x="1370" 
d="M782 0h-194v1251h-506v174h1206v-174h-506v-1251zM684 -387q-51 0 -88 37t-37 88q0 53 37 89q38 36 88 36q53 0 89 -36t36 -89q0 -50 -36 -88q-36 -37 -89 -37z" />
    <glyph glyph-name="uni1E6D" unicode="&#x1e6d;" horiz-adv-x="700" 
d="M530 -8q-149 0 -229 83t-80 242v568h-186v164h186v333q89 6 182 35v-368h230v-164h-230v-551q0 -86 42 -132t118 -46h70v-164h-103zM428 -387q-51 0 -88 37t-37 88q0 53 37 89q38 36 88 36q53 0 89 -36t36 -89q0 -50 -36 -88q-36 -37 -89 -37z" />
    <glyph glyph-name="uni1E6E" unicode="&#x1e6e;" horiz-adv-x="1370" 
d="M782 0h-194v1251h-506v174h1206v-174h-506v-1251zM365 -186h639v-156h-639v156z" />
    <glyph glyph-name="uni1E6F" unicode="&#x1e6f;" horiz-adv-x="700" 
d="M530 -8q-149 0 -229 83t-80 242v568h-186v164h186v333q89 6 182 35v-368h230v-164h-230v-551q0 -86 42 -132t118 -46h70v-164h-103zM141 -186h574v-154h-574v154z" />
    <glyph glyph-name="uni1E7C" unicode="&#x1e7c;" horiz-adv-x="1406" 
d="M1370 1425l-567 -1425h-199l-567 1425h211l461 -1192l456 1192h205zM866 1575q-40 0 -83 12q-45 12 -99 49q-34 24 -66 40q-24 12 -49 12q-69 0 -69 -70v-39h-148v68q0 90 56 144q55 54 143 54q41 0 84 -12t98 -49q36 -24 66 -39q24 -12 49 -12q70 0 70 67v41h147v-67
q0 -91 -54 -145t-145 -54z" />
    <glyph glyph-name="uni1E7D" unicode="&#x1e7d;" horiz-adv-x="1069" 
d="M629 0h-189l-413 1049h206l306 -836l305 836h198zM694 1202q-40 0 -86 16q-40 14 -102 54q-41 30 -61 37q-22 8 -42 8q-63 0 -63 -70v-41h-143v68q0 91 52 143q53 53 136 53q46 0 87 -14q46 -16 101 -55q40 -26 62 -36q21 -9 41 -9q63 0 63 69v41h144v-67q0 -88 -53 -143
q-52 -54 -136 -54z" />
    <glyph glyph-name="uni1E7E" unicode="&#x1e7e;" horiz-adv-x="1406" 
d="M1370 1425l-567 -1425h-199l-567 1425h211l461 -1192l456 1192h205zM709 -387q-51 0 -88 37t-37 88q0 53 37 89t88 36q53 0 89 -36t36 -89q0 -50 -36 -88q-36 -37 -89 -37z" />
    <glyph glyph-name="uni1E7F" unicode="&#x1e7f;" horiz-adv-x="1069" 
d="M629 0h-189l-413 1049h206l306 -836l305 836h198zM541 -387q-51 0 -88 37t-37 88q0 53 37 89t88 36q53 0 89 -36t36 -89q0 -50 -36 -88q-36 -37 -89 -37z" />
    <glyph glyph-name="Wgrave" unicode="&#x1e80;" horiz-adv-x="2004" 
d="M489 0l-432 1425h203l332 -1144l319 1140h181l331 -1145l326 1149h199l-430 -1425h-187l-330 1124l-325 -1124h-187zM926 1577l-203 301h203l180 -301h-180z" />
    <glyph glyph-name="wgrave" unicode="&#x1e81;" horiz-adv-x="1556" 
d="M375 0l-338 1049h188l242 -795l227 790h166l236 -792l237 797h187l-340 -1049h-168l-234 784l-235 -784h-168zM700 1198l-176 318h197l156 -318h-177z" />
    <glyph glyph-name="Wacute" unicode="&#x1e82;" horiz-adv-x="2004" 
d="M489 0l-432 1425h203l332 -1144l319 1140h181l331 -1145l326 1149h199l-430 -1425h-187l-330 1124l-325 -1124h-187zM1081 1577h-180l180 301h203z" />
    <glyph glyph-name="wacute" unicode="&#x1e83;" horiz-adv-x="1556" 
d="M375 0l-338 1049h188l242 -795l227 790h166l236 -792l237 797h187l-340 -1049h-168l-234 784l-235 -784h-168zM852 1198h-176l155 318h197z" />
    <glyph glyph-name="Wdieresis" unicode="&#x1e84;" horiz-adv-x="2004" 
d="M489 0l-432 1425h203l332 -1144l319 1140h181l331 -1145l326 1149h199l-430 -1425h-187l-330 1124l-325 -1124h-187zM1217 1612q-51 0 -85 34t-34 83q0 48 34 82t85 34q49 0 83 -34q35 -35 35 -82q0 -48 -35 -83q-34 -34 -83 -34zM791 1612q-50 0 -84 34q-35 35 -35 83
q0 47 35 82q34 34 84 34q51 0 85 -34q33 -33 33 -82q0 -50 -33 -83q-34 -34 -85 -34z" />
    <glyph glyph-name="wdieresis" unicode="&#x1e85;" horiz-adv-x="1556" 
d="M375 0l-338 1049h188l242 -795l227 790h166l236 -792l237 797h187l-340 -1049h-168l-234 784l-235 -784h-168zM965 1235q-51 0 -85 34t-34 83t34 83q33 33 85 33q51 0 84 -33q34 -34 34 -83t-34 -83t-84 -34zM588 1235q-50 0 -84 34q-35 35 -35 83t35 83q33 33 84 33
q52 0 85 -33q34 -34 34 -83t-34 -83t-85 -34z" />
    <glyph glyph-name="uni1E88" unicode="&#x1e88;" horiz-adv-x="2004" 
d="M489 0l-432 1425h203l332 -1144l319 1140h181l331 -1145l326 1149h199l-430 -1425h-187l-330 1124l-325 -1124h-187zM1004 -387q-52 0 -89 37q-36 36 -36 88q0 54 36 89q38 36 89 36q53 0 89 -36q35 -35 35 -89q0 -52 -35 -88q-36 -37 -89 -37z" />
    <glyph glyph-name="uni1E89" unicode="&#x1e89;" horiz-adv-x="1556" 
d="M375 0l-338 1049h188l242 -795l227 790h166l236 -792l237 797h187l-340 -1049h-168l-234 784l-235 -784h-168zM776 -387q-51 0 -88 37t-37 88q0 53 37 89q38 36 88 36q53 0 89 -36t36 -89q0 -50 -36 -88q-36 -37 -89 -37z" />
    <glyph glyph-name="uni1E92" unicode="&#x1e92;" horiz-adv-x="1271" 
d="M92 1425h1075v-165l-837 -1086h852v-174h-1090v166l838 1085h-838v174zM639 -387q-51 0 -88 37t-37 88q0 53 37 89q38 36 88 36q53 0 89 -36t36 -89q0 -50 -36 -88q-36 -37 -89 -37z" />
    <glyph glyph-name="uni1E93" unicode="&#x1e93;" horiz-adv-x="1024" 
d="M82 0v158l620 727h-620v164h850v-158l-619 -727h633v-164h-864zM516 -387q-51 0 -88 37t-37 88q0 53 37 89q38 36 88 36q53 0 89 -36t36 -89q0 -50 -36 -88q-36 -37 -89 -37z" />
    <glyph glyph-name="uni1E94" unicode="&#x1e94;" horiz-adv-x="1271" 
d="M92 1425h1075v-165l-837 -1086h852v-174h-1090v166l838 1085h-838v174zM319 -186h639v-156h-639v156z" />
    <glyph glyph-name="uni1E95" unicode="&#x1e95;" horiz-adv-x="1024" 
d="M82 0v158l620 727h-620v164h850v-158l-619 -727h633v-164h-864zM209 -186h614v-154h-614v154z" />
    <glyph glyph-name="uni1E96" unicode="&#x1e96;" horiz-adv-x="1177" 
d="M154 0v1485h182v-574q56 80 140 123q85 43 186 43q117 0 199 -55q83 -56 128 -152t45 -221v-649h-182v614q0 136 -60 216q-60 79 -182 79q-75 0 -135 -33q-64 -35 -101 -99q-38 -65 -38 -156v-621h-182zM289 -186h614v-154h-614v154z" />
    <glyph glyph-name="uni1E9E" unicode="&#x1e9e;" horiz-adv-x="1462" 
d="M164 0v918q0 255 136 381t366 126h620v-170l-375 -415q139 -4 240 -60q102 -56 155 -148q54 -93 54 -208q0 -196 -136 -310t-374 -114h-213v174h205q151 0 235 66t84 184q0 121 -84 184q-85 64 -235 64h-146v159l379 420h-395q-156 0 -239 -80t-83 -256v-915h-194z" />
    <glyph glyph-name="uni1EA0" unicode="&#x1ea0;" horiz-adv-x="1411" 
d="M1167 0l-149 383h-633l-147 -383h-201l569 1425h197l571 -1425h-207zM451 557h499l-250 647zM707 -387q-52 0 -89 37q-36 36 -36 88q0 54 36 89q38 36 89 36q53 0 89 -36q35 -35 35 -89q0 -52 -35 -88q-36 -37 -89 -37z" />
    <glyph glyph-name="uni1EA1" unicode="&#x1ea1;" horiz-adv-x="1095" 
d="M436 -29q-161 0 -260 87q-98 86 -98 237q0 160 116 249t328 89h248v45q0 127 -64 181t-178 54q-96 0 -155 -36q-61 -37 -76 -91h-184q27 129 138 210t279 81q196 0 309 -100t113 -313v-664h-172v158q-56 -95 -149 -141t-195 -46zM477 131q65 0 135 31q67 30 113 91
q45 60 45 153v77h-235q-129 0 -201 -45t-72 -135q0 -84 61 -128t154 -44zM547 -387q-51 0 -88 37t-37 88q0 53 37 89t88 36q53 0 89 -36t36 -89q0 -50 -36 -88q-36 -37 -89 -37z" />
    <glyph glyph-name="uni1EA2" unicode="&#x1ea2;" horiz-adv-x="1411" 
d="M1167 0l-149 383h-633l-147 -383h-201l569 1425h197l571 -1425h-207zM451 557h499l-250 647zM557 1655l86 24q60 17 97 38q34 19 34 55q0 61 -100 61h-172v129h184q117 0 179 -49q63 -50 63 -139q0 -95 -67 -139q-68 -45 -179 -79l-90 -26z" />
    <glyph glyph-name="uni1EA3" unicode="&#x1ea3;" horiz-adv-x="1095" 
d="M436 -29q-161 0 -260 87q-98 86 -98 237q0 160 116 249t328 89h248v45q0 127 -64 181t-178 54q-96 0 -155 -36q-61 -37 -76 -91h-184q27 129 138 210t279 81q196 0 309 -100t113 -313v-664h-172v158q-56 -95 -149 -141t-195 -46zM477 131q65 0 135 31q67 30 113 91
q45 60 45 153v77h-235q-129 0 -201 -45t-72 -135q0 -84 61 -128t154 -44zM434 1161l-35 125l86 25q62 18 98 38q33 19 33 54q0 61 -100 61h-172v129h184q118 0 180 -49t62 -139q0 -94 -67 -138q-68 -45 -179 -79z" />
    <glyph glyph-name="uni1EA4" unicode="&#x1ea4;" horiz-adv-x="1411" 
d="M1167 0l-149 383h-633l-147 -383h-201l569 1425h197l571 -1425h-207zM451 557h499l-250 647zM356 1536l246 262h205l246 -262h-181l-167 164l-168 -164h-181zM1145 1706h-166l164 279h188z" />
    <glyph glyph-name="uni1EA5" unicode="&#x1ea5;" horiz-adv-x="1095" 
d="M436 -29q-161 0 -260 87q-98 86 -98 237q0 160 116 249t328 89h248v45q0 127 -64 181t-178 54q-96 0 -155 -36q-61 -37 -76 -91h-184q27 129 138 210t279 81q196 0 309 -100t113 -313v-664h-172v158q-56 -95 -149 -141t-195 -46zM477 131q65 0 135 31q67 30 113 91
q45 60 45 153v77h-235q-129 0 -201 -45t-72 -135q0 -84 61 -128t154 -44zM213 1198l233 297h201l234 -297h-172l-162 195l-162 -195h-172zM946 1440h-162l154 315h184z" />
    <glyph glyph-name="uni1EA6" unicode="&#x1ea6;" horiz-adv-x="1411" 
d="M1167 0l-149 383h-633l-147 -383h-201l569 1425h197l571 -1425h-207zM451 557h499l-250 647zM356 1536l246 262h205l246 -262h-181l-167 164l-168 -164h-181zM1010 1706l-185 279h189l164 -279h-168z" />
    <glyph glyph-name="uni1EA7" unicode="&#x1ea7;" horiz-adv-x="1095" 
d="M436 -29q-161 0 -260 87q-98 86 -98 237q0 160 116 249t328 89h248v45q0 127 -64 181t-178 54q-96 0 -155 -36q-61 -37 -76 -91h-184q27 129 138 210t279 81q196 0 309 -100t113 -313v-664h-172v158q-56 -95 -149 -141t-195 -46zM477 131q65 0 135 31q67 30 113 91
q45 60 45 153v77h-235q-129 0 -201 -45t-72 -135q0 -84 61 -128t154 -44zM213 1198l233 297h201l234 -297h-172l-162 195l-162 -195h-172zM827 1440l-176 315h185l153 -315h-162z" />
    <glyph glyph-name="uni1EA8" unicode="&#x1ea8;" horiz-adv-x="1411" 
d="M1167 0l-149 383h-633l-147 -383h-201l569 1425h197l571 -1425h-207zM451 557h499l-250 647zM356 1536l246 262h205l246 -262h-181l-167 164l-168 -164h-181zM1020 1690l-92 94l94 31q69 24 96 40q35 21 35 56q0 29 -26 47q-25 18 -80 18h-175v119h187q118 0 179 -47
q60 -46 60 -131q0 -80 -55 -126t-164 -81z" />
    <glyph glyph-name="uni1EA9" unicode="&#x1ea9;" horiz-adv-x="1095" 
d="M436 -29q-161 0 -260 87q-98 86 -98 237q0 160 116 249t328 89h248v45q0 127 -64 181t-178 54q-96 0 -155 -36q-61 -37 -76 -91h-184q27 129 138 210t279 81q196 0 309 -100t113 -313v-664h-172v158q-56 -95 -149 -141t-195 -46zM477 131q65 0 135 31q67 30 113 91
q45 60 45 153v77h-235q-129 0 -201 -45t-72 -135q0 -84 61 -128t154 -44zM213 1198l233 297h201l234 -297h-172l-162 195l-162 -195h-172zM840 1389l-80 102l98 31q57 19 86 33q41 20 41 63q0 61 -106 61h-170v123h184q117 0 179 -46q63 -46 63 -136q0 -94 -68 -139
q-71 -47 -172 -76z" />
    <glyph glyph-name="uni1EAA" unicode="&#x1eaa;" horiz-adv-x="1411" 
d="M1167 0l-149 383h-633l-147 -383h-201l569 1425h197l571 -1425h-207zM451 557h499l-250 647zM356 1536l246 262h205l246 -262h-181l-167 164l-168 -164h-181zM856 1858q-88 0 -182 57q-43 27 -68 36q-24 9 -47 9q-65 0 -65 -68v-32h-138v53q0 81 55 131q53 49 142 49
q87 0 182 -57q43 -27 69 -36t46 -9q65 0 65 67v33h138v-53q0 -80 -54 -131q-52 -49 -143 -49z" />
    <glyph glyph-name="uni1EAB" unicode="&#x1eab;" horiz-adv-x="1095" 
d="M436 -29q-161 0 -260 87q-98 86 -98 237q0 160 116 249t328 89h248v45q0 127 -64 181t-178 54q-96 0 -155 -36q-61 -37 -76 -91h-184q27 129 138 210t279 81q196 0 309 -100t113 -313v-664h-172v158q-56 -95 -149 -141t-195 -46zM477 131q65 0 135 31q67 30 113 91
q45 60 45 153v77h-235q-129 0 -201 -45t-72 -135q0 -84 61 -128t154 -44zM213 1198l233 297h201l234 -297h-172l-162 195l-162 -195h-172zM694 1573q-46 0 -81 14q-42 17 -97 47q-43 26 -64 36q-22 11 -46 11q-60 0 -60 -71v-35h-137v57q0 83 50 135t140 52q42 0 82 -14
q41 -14 97 -48q38 -22 65 -36q22 -11 45 -11q60 0 60 72v35h137v-58q0 -81 -50 -134q-49 -52 -141 -52z" />
    <glyph glyph-name="uni1EAC" unicode="&#x1eac;" horiz-adv-x="1411" 
d="M1167 0l-149 383h-633l-147 -383h-201l569 1425h197l571 -1425h-207zM451 557h499l-250 647zM344 1577l254 301h213l254 -301h-193l-167 182l-168 -182h-193zM707 -387q-52 0 -89 37q-36 36 -36 88q0 54 36 89q38 36 89 36q53 0 89 -36q35 -35 35 -89q0 -52 -35 -88
q-36 -37 -89 -37z" />
    <glyph glyph-name="uni1EAD" unicode="&#x1ead;" horiz-adv-x="1095" 
d="M436 -29q-161 0 -260 87q-98 86 -98 237q0 160 116 249t328 89h248v45q0 127 -64 181t-178 54q-96 0 -155 -36q-61 -37 -76 -91h-184q27 129 138 210t279 81q196 0 309 -100t113 -313v-664h-172v158q-56 -95 -149 -141t-195 -46zM477 131q65 0 135 31q67 30 113 91
q45 60 45 153v77h-235q-129 0 -201 -45t-72 -135q0 -84 61 -128t154 -44zM199 1198l245 318h205l246 -318h-184l-164 197l-164 -197h-184zM547 -387q-51 0 -88 37t-37 88q0 53 37 89t88 36q53 0 89 -36t36 -89q0 -50 -36 -88q-36 -37 -89 -37z" />
    <glyph glyph-name="uni1EAE" unicode="&#x1eae;" horiz-adv-x="1411" 
d="M1167 0l-149 383h-633l-147 -383h-201l569 1425h197l571 -1425h-207zM451 557h499l-250 647zM1044 1753q-8 -108 -104 -170q-95 -61 -235 -61q-143 0 -237 61q-96 62 -103 170h153q11 -52 61 -76q49 -24 126 -24q75 0 125 24t61 76h153zM778 1784h-168l162 264h191z" />
    <glyph glyph-name="uni1EAF" unicode="&#x1eaf;" horiz-adv-x="1095" 
d="M436 -29q-161 0 -260 87q-98 86 -98 237q0 160 116 249t328 89h248v45q0 127 -64 181t-178 54q-96 0 -155 -36q-61 -37 -76 -91h-184q27 129 138 210t279 81q196 0 309 -100t113 -313v-664h-172v158q-56 -95 -149 -141t-195 -46zM477 131q65 0 135 31q67 30 113 91
q45 60 45 153v77h-235q-129 0 -201 -45t-72 -135q0 -84 61 -128t154 -44zM874 1460q-18 -129 -107 -198q-90 -70 -220 -70t-220 70t-108 198h154q17 -68 63 -102q47 -35 111 -35q65 0 112 35t62 102h153zM618 1516h-161l153 315h185z" />
    <glyph glyph-name="uni1EB0" unicode="&#x1eb0;" horiz-adv-x="1411" 
d="M1167 0l-149 383h-633l-147 -383h-201l569 1425h197l571 -1425h-207zM451 557h499l-250 647zM1044 1753q-8 -108 -104 -170q-95 -61 -235 -61q-143 0 -237 61q-96 62 -103 170h153q11 -52 61 -76q49 -24 126 -24q75 0 125 24t61 76h153zM625 1784l-185 264h191l162 -264
h-168z" />
    <glyph glyph-name="uni1EB1" unicode="&#x1eb1;" horiz-adv-x="1095" 
d="M436 -29q-161 0 -260 87q-98 86 -98 237q0 160 116 249t328 89h248v45q0 127 -64 181t-178 54q-96 0 -155 -36q-61 -37 -76 -91h-184q27 129 138 210t279 81q196 0 309 -100t113 -313v-664h-172v158q-56 -95 -149 -141t-195 -46zM477 131q65 0 135 31q67 30 113 91
q45 60 45 153v77h-235q-129 0 -201 -45t-72 -135q0 -84 61 -128t154 -44zM874 1460q-18 -129 -107 -198q-90 -70 -220 -70t-220 70t-108 198h154q17 -68 63 -102q47 -35 111 -35q65 0 112 35t62 102h153zM473 1516l-174 315h184l154 -315h-164z" />
    <glyph glyph-name="uni1EB2" unicode="&#x1eb2;" horiz-adv-x="1411" 
d="M1167 0l-149 383h-633l-147 -383h-201l569 1425h197l571 -1425h-207zM451 557h499l-250 647zM623 1839l67 25q53 19 71 30q23 14 23 41q0 17 -12 29t-55 12h-189v119h177q108 0 164 -40q57 -41 57 -111q0 -69 -53 -113q-54 -45 -136 -74l-73 -26zM705 1522
q-145 0 -240 61q-98 63 -105 168h154q11 -39 61 -69q49 -29 130 -29q79 0 125 29q49 30 59 69h153q-7 -106 -103 -168q-94 -61 -234 -61z" />
    <glyph glyph-name="uni1EB3" unicode="&#x1eb3;" horiz-adv-x="1095" 
d="M436 -29q-161 0 -260 87q-98 86 -98 237q0 160 116 249t328 89h248v45q0 127 -64 181t-178 54q-96 0 -155 -36q-61 -37 -76 -91h-184q27 129 138 210t279 81q196 0 309 -100t113 -313v-664h-172v158q-56 -95 -149 -141t-195 -46zM477 131q65 0 135 31q67 30 113 91
q45 60 45 153v77h-235q-129 0 -201 -45t-72 -135q0 -84 61 -128t154 -44zM461 1569l71 24q52 18 77 31q30 15 30 47q0 20 -16 35q-15 14 -70 14h-186v119h184q114 0 171 -45q56 -44 56 -117q0 -130 -207 -196l-69 -23zM547 1192q-130 0 -220 70t-108 198h154q17 -68 63 -102
q47 -35 111 -35q65 0 112 35t62 102h153q-18 -129 -107 -198q-90 -70 -220 -70z" />
    <glyph glyph-name="uni1EB4" unicode="&#x1eb4;" horiz-adv-x="1411" 
d="M1167 0l-149 383h-633l-147 -383h-201l569 1425h197l571 -1425h-207zM451 557h499l-250 647zM1044 1753q-8 -108 -104 -170q-95 -61 -235 -61q-143 0 -237 61q-96 62 -103 170h153q11 -52 61 -76q49 -24 126 -24q75 0 125 24t61 76h153zM856 1815q-88 0 -182 57
q-43 27 -68 36q-24 9 -47 9q-65 0 -65 -68v-32h-138v53q0 81 55 131q53 49 142 49q87 0 182 -57q43 -27 69 -36t46 -9q65 0 65 67v33h138v-53q0 -80 -54 -131q-52 -49 -143 -49z" />
    <glyph glyph-name="uni1EB5" unicode="&#x1eb5;" horiz-adv-x="1095" 
d="M436 -29q-161 0 -260 87q-98 86 -98 237q0 160 116 249t328 89h248v45q0 127 -64 181t-178 54q-96 0 -155 -36q-61 -37 -76 -91h-184q27 129 138 210t279 81q196 0 309 -100t113 -313v-664h-172v158q-56 -95 -149 -141t-195 -46zM477 131q65 0 135 31q67 30 113 91
q45 60 45 153v77h-235q-129 0 -201 -45t-72 -135q0 -84 61 -128t154 -44zM874 1460q-18 -129 -107 -198q-90 -70 -220 -70t-220 70t-108 198h154q17 -68 63 -102q47 -35 111 -35q65 0 112 35t62 102h153zM694 1573q-46 0 -81 14q-42 17 -97 47q-43 26 -64 36q-22 11 -46 11
q-60 0 -60 -71v-35h-137v57q0 83 50 135t140 52q42 0 82 -14q41 -14 97 -48q38 -22 65 -36q22 -11 45 -11q60 0 60 72v35h137v-58q0 -81 -50 -134q-49 -52 -141 -52z" />
    <glyph glyph-name="uni1EB6" unicode="&#x1eb6;" horiz-adv-x="1411" 
d="M1167 0l-149 383h-633l-147 -383h-201l569 1425h197l571 -1425h-207zM451 557h499l-250 647zM705 1569q-141 0 -238 83t-107 222h166q7 -71 57 -116q49 -44 122 -44q72 0 121 44q50 45 57 116h166q-7 -139 -106 -222q-98 -83 -238 -83zM707 -387q-52 0 -89 37
q-36 36 -36 88q0 54 36 89q38 36 89 36q53 0 89 -36q35 -35 35 -89q0 -52 -35 -88q-36 -37 -89 -37z" />
    <glyph glyph-name="uni1EB7" unicode="&#x1eb7;" horiz-adv-x="1095" 
d="M436 -29q-161 0 -260 87q-98 86 -98 237q0 160 116 249t328 89h248v45q0 127 -64 181t-178 54q-96 0 -155 -36q-61 -37 -76 -91h-184q27 129 138 210t279 81q196 0 309 -100t113 -313v-664h-172v158q-56 -95 -149 -141t-195 -46zM477 131q65 0 135 31q67 30 113 91
q45 60 45 153v77h-235q-129 0 -201 -45t-72 -135q0 -84 61 -128t154 -44zM547 1192q-141 0 -232 85q-92 86 -102 234h164q7 -82 53 -129q45 -47 117 -47t117 47q46 47 53 129h164q-7 -147 -102 -234q-92 -85 -232 -85zM547 -387q-51 0 -88 37t-37 88q0 53 37 89t88 36
q53 0 89 -36t36 -89q0 -50 -36 -88q-36 -37 -89 -37z" />
    <glyph glyph-name="uni1EB8" unicode="&#x1eb8;" horiz-adv-x="1312" 
d="M184 0v1425h990v-174h-795v-432h772v-174h-772v-471h805v-174h-1000zM684 -387q-51 0 -88 37t-37 88q0 53 37 89q38 36 88 36q53 0 89 -36t36 -89q0 -50 -36 -88q-36 -37 -89 -37z" />
    <glyph glyph-name="uni1EB9" unicode="&#x1eb9;" horiz-adv-x="1140" 
d="M594 -29q-154 0 -269 68q-113 67 -175 192q-62 126 -62 295q0 160 60 284q59 122 173 196q109 71 267 71q150 0 252 -66t155 -185q54 -122 54 -275v-86h-773q15 -160 97 -245t223 -85q91 0 157 32q64 31 85 83h188q-37 -127 -154 -203q-116 -76 -278 -76zM586 913
q-130 0 -208 -78q-79 -79 -97 -219h583q-6 134 -74 215q-69 82 -204 82zM569 -387q-51 0 -88 37t-37 88q0 53 37 89t88 36q53 0 89 -36t36 -89q0 -50 -36 -88q-36 -37 -89 -37z" />
    <glyph glyph-name="uni1EBA" unicode="&#x1eba;" horiz-adv-x="1312" 
d="M184 0v1425h990v-174h-795v-432h772v-174h-772v-471h805v-174h-1000zM530 1655l86 24q62 18 98 38q34 19 34 55q0 61 -101 61h-172v129h184q118 0 180 -49t62 -139q0 -96 -66 -139q-68 -45 -180 -79l-90 -26z" />
    <glyph glyph-name="uni1EBB" unicode="&#x1ebb;" horiz-adv-x="1140" 
d="M594 -29q-154 0 -269 68q-113 67 -175 192q-62 126 -62 295q0 160 60 284q59 122 173 196q109 71 267 71q150 0 252 -66t155 -185q54 -122 54 -275v-86h-773q15 -160 97 -245t223 -85q91 0 157 32q64 31 85 83h188q-37 -127 -154 -203q-116 -76 -278 -76zM586 913
q-130 0 -208 -78q-79 -79 -97 -219h583q-6 134 -74 215q-69 82 -204 82zM457 1161l-35 125l86 25q60 17 97 38q34 19 34 54q0 61 -100 61h-172v129h184q117 0 179 -49q63 -50 63 -139q0 -94 -67 -138q-68 -45 -179 -79z" />
    <glyph glyph-name="uni1EBC" unicode="&#x1ebc;" horiz-adv-x="1312" 
d="M184 0v1425h990v-174h-795v-432h772v-174h-772v-471h805v-174h-1000zM836 1575q-40 0 -83 12q-46 13 -100 49q-37 26 -65 40q-24 12 -49 12q-70 0 -70 -70v-39h-147v68q0 90 55 144t143 54q40 0 84 -12q43 -12 98 -49q36 -24 66 -39q24 -12 49 -12q70 0 70 67v41h147v-67
q0 -91 -54 -145t-144 -54z" />
    <glyph glyph-name="uni1EBD" unicode="&#x1ebd;" horiz-adv-x="1140" 
d="M594 -29q-154 0 -269 68q-113 67 -175 192q-62 126 -62 295q0 160 60 284q59 122 173 196q109 71 267 71q150 0 252 -66t155 -185q54 -122 54 -275v-86h-773q15 -160 97 -245t223 -85q91 0 157 32q64 31 85 83h188q-37 -127 -154 -203q-116 -76 -278 -76zM586 913
q-130 0 -208 -78q-79 -79 -97 -219h583q-6 134 -74 215q-69 82 -204 82zM723 1202q-40 0 -86 16q-40 14 -102 54q-41 30 -61 37q-22 8 -42 8q-63 0 -63 -70v-41h-144v68q0 90 53 143t136 53q46 0 87 -14q46 -16 101 -55q40 -26 62 -36q21 -9 41 -9q63 0 63 69v41h143v-67
q0 -90 -52 -143q-53 -54 -136 -54z" />
    <glyph glyph-name="uni1EBE" unicode="&#x1ebe;" horiz-adv-x="1312" 
d="M184 0v1425h990v-174h-795v-432h772v-174h-772v-471h805v-174h-1000zM330 1536l245 262h205l246 -262h-180l-168 164l-168 -164h-180zM1118 1706h-166l164 279h189z" />
    <glyph glyph-name="uni1EBF" unicode="&#x1ebf;" horiz-adv-x="1140" 
d="M594 -29q-154 0 -269 68q-113 67 -175 192q-62 126 -62 295q0 160 60 284q59 122 173 196q109 71 267 71q150 0 252 -66t155 -185q54 -122 54 -275v-86h-773q15 -160 97 -245t223 -85q91 0 157 32q64 31 85 83h188q-37 -127 -154 -203q-116 -76 -278 -76zM586 913
q-130 0 -208 -78q-79 -79 -97 -219h583q-6 134 -74 215q-69 82 -204 82zM236 1198l233 297h201l233 -297h-172l-162 195l-161 -195h-172zM969 1440h-162l154 315h184z" />
    <glyph glyph-name="uni1EC0" unicode="&#x1ec0;" horiz-adv-x="1312" 
d="M184 0v1425h990v-174h-795v-432h772v-174h-772v-471h805v-174h-1000zM330 1536l245 262h205l246 -262h-180l-168 164l-168 -164h-180zM983 1706l-184 279h188l164 -279h-168z" />
    <glyph glyph-name="uni1EC1" unicode="&#x1ec1;" horiz-adv-x="1140" 
d="M594 -29q-154 0 -269 68q-113 67 -175 192q-62 126 -62 295q0 160 60 284q59 122 173 196q109 71 267 71q150 0 252 -66t155 -185q54 -122 54 -275v-86h-773q15 -160 97 -245t223 -85q91 0 157 32q64 31 85 83h188q-37 -127 -154 -203q-116 -76 -278 -76zM586 913
q-130 0 -208 -78q-79 -79 -97 -219h583q-6 134 -74 215q-69 82 -204 82zM236 1198l233 297h201l233 -297h-172l-162 195l-161 -195h-172zM850 1440l-176 315h184l154 -315h-162z" />
    <glyph glyph-name="uni1EC2" unicode="&#x1ec2;" horiz-adv-x="1312" 
d="M184 0v1425h990v-174h-795v-432h772v-174h-772v-471h805v-174h-1000zM330 1536l245 262h205l246 -262h-180l-168 164l-168 -164h-180zM993 1690l-92 94l94 31q71 24 97 40q34 21 34 56q0 29 -25 47t-81 18h-174v119h186q118 0 179 -47t61 -131q0 -80 -55 -126t-164 -81z
" />
    <glyph glyph-name="uni1EC3" unicode="&#x1ec3;" horiz-adv-x="1140" 
d="M594 -29q-154 0 -269 68q-113 67 -175 192q-62 126 -62 295q0 160 60 284q59 122 173 196q109 71 267 71q150 0 252 -66t155 -185q54 -122 54 -275v-86h-773q15 -160 97 -245t223 -85q91 0 157 32q64 31 85 83h188q-37 -127 -154 -203q-116 -76 -278 -76zM586 913
q-130 0 -208 -78q-79 -79 -97 -219h583q-6 134 -74 215q-69 82 -204 82zM236 1198l233 297h201l233 -297h-172l-162 195l-161 -195h-172zM862 1389l-80 102l99 31q57 19 86 33q41 20 41 63q0 61 -107 61h-170v123h184q118 0 180 -46t62 -136q0 -94 -67 -139
q-70 -47 -172 -76z" />
    <glyph glyph-name="uni1EC4" unicode="&#x1ec4;" horiz-adv-x="1312" 
d="M184 0v1425h990v-174h-795v-432h772v-174h-772v-471h805v-174h-1000zM330 1536l245 262h205l246 -262h-180l-168 164l-168 -164h-180zM829 1858q-87 0 -182 57q-44 27 -67 36q-24 9 -48 9q-65 0 -65 -68v-32h-137v53q0 81 54 131q53 49 142 49q88 0 183 -57
q45 -28 68 -36q25 -9 46 -9q66 0 66 67v33h137v-53q0 -81 -53 -131q-52 -49 -144 -49z" />
    <glyph glyph-name="uni1EC5" unicode="&#x1ec5;" horiz-adv-x="1140" 
d="M594 -29q-154 0 -269 68q-113 67 -175 192q-62 126 -62 295q0 160 60 284q59 122 173 196q109 71 267 71q150 0 252 -66t155 -185q54 -122 54 -275v-86h-773q15 -160 97 -245t223 -85q91 0 157 32q64 31 85 83h188q-37 -127 -154 -203q-116 -76 -278 -76zM586 913
q-130 0 -208 -78q-79 -79 -97 -219h583q-6 134 -74 215q-69 82 -204 82zM236 1198l233 297h201l233 -297h-172l-162 195l-161 -195h-172zM717 1573q-46 0 -81 14q-42 17 -97 47q-38 22 -65 36q-22 11 -46 11q-59 0 -59 -71v-35h-138v57q0 82 51 135q50 52 140 52
q42 0 82 -14q39 -13 96 -48q32 -19 66 -36q22 -11 45 -11q59 0 59 72v35h137v-58q0 -81 -50 -134q-49 -52 -140 -52z" />
    <glyph glyph-name="uni1EC6" unicode="&#x1ec6;" horiz-adv-x="1312" 
d="M184 0v1425h990v-174h-795v-432h772v-174h-772v-471h805v-174h-1000zM317 1577l254 301h213l254 -301h-192l-168 182l-168 -182h-193zM684 -387q-51 0 -88 37t-37 88q0 53 37 89q38 36 88 36q53 0 89 -36t36 -89q0 -50 -36 -88q-36 -37 -89 -37z" />
    <glyph glyph-name="uni1EC7" unicode="&#x1ec7;" horiz-adv-x="1140" 
d="M594 -29q-154 0 -269 68q-113 67 -175 192q-62 126 -62 295q0 160 60 284q59 122 173 196q109 71 267 71q150 0 252 -66t155 -185q54 -122 54 -275v-86h-773q15 -160 97 -245t223 -85q91 0 157 32q64 31 85 83h188q-37 -127 -154 -203q-116 -76 -278 -76zM586 913
q-130 0 -208 -78q-79 -79 -97 -219h583q-6 134 -74 215q-69 82 -204 82zM221 1198l246 318h205l246 -318h-185l-164 197l-163 -197h-185zM569 -387q-51 0 -88 37t-37 88q0 53 37 89t88 36q53 0 89 -36t36 -89q0 -50 -36 -88q-36 -37 -89 -37z" />
    <glyph glyph-name="uni1EC8" unicode="&#x1ec8;" horiz-adv-x="563" 
d="M379 0h-195v1425h195v-1425zM133 1655l86 24q60 17 97 38q34 19 34 55q0 61 -100 61h-172v129h184q117 0 179 -49q63 -50 63 -139q0 -95 -67 -139q-68 -45 -179 -79l-90 -26z" />
    <glyph glyph-name="uni1EC9" unicode="&#x1ec9;" horiz-adv-x="489" 
d="M154 0v1049h182v-1049h-182zM133 1161l-35 125l86 25q62 18 98 38q33 19 33 54q0 61 -100 61h-172v129h184q118 0 180 -49t62 -139q0 -94 -67 -138q-68 -45 -179 -79z" />
    <glyph glyph-name="uni1ECA" unicode="&#x1eca;" horiz-adv-x="563" 
d="M379 0h-195v1425h195v-1425zM281 -387q-51 0 -88 37t-37 88q0 53 37 89t88 36q53 0 89 -36t36 -89q0 -50 -36 -88q-36 -37 -89 -37z" />
    <glyph glyph-name="uni1ECB" unicode="&#x1ecb;" horiz-adv-x="489" 
d="M246 1200q-52 0 -89 37q-38 38 -38 90t38 90q37 37 89 37q53 0 90 -37t37 -90t-37 -90t-90 -37zM154 0v1049h182v-1049h-182zM246 -387q-51 0 -88 37t-37 88q0 53 37 89q38 36 88 36q53 0 89 -36t36 -89q0 -50 -36 -88q-36 -37 -89 -37z" />
    <glyph glyph-name="uni1ECC" unicode="&#x1ecc;" horiz-adv-x="1609" 
d="M805 -31q-153 0 -283 56t-223 155q-92 98 -146 236q-53 136 -53 297t53 297t146 235q95 101 223 156t283 55q154 0 282 -55q130 -56 224 -156q93 -99 146 -235q52 -134 52 -297t-52 -297q-54 -138 -146 -236q-93 -98 -224 -155q-130 -56 -282 -56zM805 147q148 0 262 72
t179 200t65 294t-65 294q-64 126 -179 199q-114 72 -262 72q-147 0 -261 -72q-113 -71 -179 -199q-66 -127 -66 -294t66 -294q67 -129 179 -200q114 -72 261 -72zM805 -387q-51 0 -88 37t-37 88q0 53 37 89t88 36q53 0 89 -36t36 -89q0 -50 -36 -88q-36 -37 -89 -37z" />
    <glyph glyph-name="uni1ECD" unicode="&#x1ecd;" horiz-adv-x="1187" 
d="M594 -29q-146 0 -262 70q-114 69 -179 195q-65 125 -65 288q0 164 65 289q65 126 179 195t262 69q149 0 263 -69q112 -68 178 -195q65 -125 65 -289q0 -163 -65 -288q-66 -127 -178 -195q-116 -70 -263 -70zM594 139q141 0 230 106t89 279q0 175 -89 281
q-88 104 -230 104t-230 -104q-90 -107 -90 -281q0 -172 90 -279q89 -106 230 -106zM594 -387q-51 0 -88 37t-37 88q0 53 37 89q38 36 88 36q53 0 89 -36t36 -89q0 -50 -36 -88q-36 -37 -89 -37z" />
    <glyph glyph-name="uni1ECE" unicode="&#x1ece;" horiz-adv-x="1609" 
d="M805 -31q-153 0 -283 56t-223 155q-92 98 -146 236q-53 136 -53 297t53 297t146 235q95 101 223 156t283 55q154 0 282 -55q130 -56 224 -156q93 -99 146 -235q52 -134 52 -297t-52 -297q-54 -138 -146 -236q-93 -98 -224 -155q-130 -56 -282 -56zM805 147q148 0 262 72
t179 200t65 294t-65 294q-64 126 -179 199q-114 72 -262 72q-147 0 -261 -72q-113 -71 -179 -199q-66 -127 -66 -294t66 -294q67 -129 179 -200q114 -72 261 -72zM657 1655l86 24q62 18 98 38q33 19 33 55q0 61 -100 61h-172v129h184q118 0 180 -49t62 -139q0 -96 -66 -139
q-68 -45 -180 -79l-90 -26z" />
    <glyph glyph-name="uni1ECF" unicode="&#x1ecf;" horiz-adv-x="1187" 
d="M594 -29q-146 0 -262 70q-114 69 -179 195q-65 125 -65 288q0 164 65 289q65 126 179 195t262 69q149 0 263 -69q112 -68 178 -195q65 -125 65 -289q0 -163 -65 -288q-66 -127 -178 -195q-116 -70 -263 -70zM594 139q141 0 230 106t89 279q0 175 -89 281
q-88 104 -230 104t-230 -104q-90 -107 -90 -281q0 -172 90 -279q89 -106 230 -106zM481 1161l-35 125l86 25q62 18 98 38q34 19 34 54q0 61 -101 61h-172v129h184q118 0 180 -49t62 -139q0 -95 -66 -138q-68 -45 -180 -79z" />
    <glyph glyph-name="uni1ED0" unicode="&#x1ed0;" horiz-adv-x="1609" 
d="M805 -31q-153 0 -283 56t-223 155q-92 98 -146 236q-53 136 -53 297t53 297t146 235q95 101 223 156t283 55q154 0 282 -55q130 -56 224 -156q93 -99 146 -235q52 -134 52 -297t-52 -297q-54 -138 -146 -236q-93 -98 -224 -155q-130 -56 -282 -56zM805 147q148 0 262 72
t179 200t65 294t-65 294q-64 126 -179 199q-114 72 -262 72q-147 0 -261 -72q-113 -71 -179 -199q-66 -127 -66 -294t66 -294q67 -129 179 -200q114 -72 261 -72zM457 1536l245 262h205l246 -262h-180l-168 164l-168 -164h-180zM1245 1706h-166l164 279h189z" />
    <glyph glyph-name="uni1ED1" unicode="&#x1ed1;" horiz-adv-x="1187" 
d="M594 -29q-146 0 -262 70q-114 69 -179 195q-65 125 -65 288q0 164 65 289q65 126 179 195t262 69q149 0 263 -69q112 -68 178 -195q65 -125 65 -289q0 -163 -65 -288q-66 -127 -178 -195q-116 -70 -263 -70zM594 139q141 0 230 106t89 279q0 175 -89 281
q-88 104 -230 104t-230 -104q-90 -107 -90 -281q0 -172 90 -279q89 -106 230 -106zM260 1198l234 297h200l234 -297h-172l-162 195l-162 -195h-172zM993 1440h-162l154 315h184z" />
    <glyph glyph-name="uni1ED2" unicode="&#x1ed2;" horiz-adv-x="1609" 
d="M805 -31q-153 0 -283 56t-223 155q-92 98 -146 236q-53 136 -53 297t53 297t146 235q95 101 223 156t283 55q154 0 282 -55q130 -56 224 -156q93 -99 146 -235q52 -134 52 -297t-52 -297q-54 -138 -146 -236q-93 -98 -224 -155q-130 -56 -282 -56zM805 147q148 0 262 72
t179 200t65 294t-65 294q-64 126 -179 199q-114 72 -262 72q-147 0 -261 -72q-113 -71 -179 -199q-66 -127 -66 -294t66 -294q67 -129 179 -200q114 -72 261 -72zM457 1536l245 262h205l246 -262h-180l-168 164l-168 -164h-180zM1110 1706l-184 279h188l164 -279h-168z" />
    <glyph glyph-name="uni1ED3" unicode="&#x1ed3;" horiz-adv-x="1187" 
d="M594 -29q-146 0 -262 70q-114 69 -179 195q-65 125 -65 288q0 164 65 289q65 126 179 195t262 69q149 0 263 -69q112 -68 178 -195q65 -125 65 -289q0 -163 -65 -288q-66 -127 -178 -195q-116 -70 -263 -70zM594 139q141 0 230 106t89 279q0 175 -89 281
q-88 104 -230 104t-230 -104q-90 -107 -90 -281q0 -172 90 -279q89 -106 230 -106zM260 1198l234 297h200l234 -297h-172l-162 195l-162 -195h-172zM874 1440l-176 315h185l153 -315h-162z" />
    <glyph glyph-name="uni1ED4" unicode="&#x1ed4;" horiz-adv-x="1609" 
d="M805 -31q-153 0 -283 56t-223 155q-92 98 -146 236q-53 136 -53 297t53 297t146 235q95 101 223 156t283 55q154 0 282 -55q130 -56 224 -156q93 -99 146 -235q52 -134 52 -297t-52 -297q-54 -138 -146 -236q-93 -98 -224 -155q-130 -56 -282 -56zM805 147q148 0 262 72
t179 200t65 294t-65 294q-64 126 -179 199q-114 72 -262 72q-147 0 -261 -72q-113 -71 -179 -199q-66 -127 -66 -294t66 -294q67 -129 179 -200q114 -72 261 -72zM457 1536l245 262h205l246 -262h-180l-168 164l-168 -164h-180zM1120 1690l-92 94l94 31q71 24 97 40
q34 21 34 56q0 29 -25 47q-26 18 -81 18h-174v119h186q118 0 179 -47t61 -131q0 -79 -56 -126t-163 -81z" />
    <glyph glyph-name="uni1ED5" unicode="&#x1ed5;" horiz-adv-x="1187" 
d="M594 -29q-146 0 -262 70q-114 69 -179 195q-65 125 -65 288q0 164 65 289q65 126 179 195t262 69q149 0 263 -69q112 -68 178 -195q65 -125 65 -289q0 -163 -65 -288q-66 -127 -178 -195q-116 -70 -263 -70zM594 139q141 0 230 106t89 279q0 175 -89 281
q-88 104 -230 104t-230 -104q-90 -107 -90 -281q0 -172 90 -279q89 -106 230 -106zM260 1198l234 297h200l234 -297h-172l-162 195l-162 -195h-172zM887 1389l-80 102l98 31q57 19 86 33q41 20 41 63q0 61 -106 61h-170v123h184q117 0 179 -46q63 -46 63 -136
q0 -94 -68 -139q-70 -47 -172 -76z" />
    <glyph glyph-name="uni1ED6" unicode="&#x1ed6;" horiz-adv-x="1609" 
d="M805 -31q-153 0 -283 56t-223 155q-92 98 -146 236q-53 136 -53 297t53 297t146 235q95 101 223 156t283 55q154 0 282 -55q130 -56 224 -156q93 -99 146 -235q52 -134 52 -297t-52 -297q-54 -138 -146 -236q-93 -98 -224 -155q-130 -56 -282 -56zM805 147q148 0 262 72
t179 200t65 294t-65 294q-64 126 -179 199q-114 72 -262 72q-147 0 -261 -72q-113 -71 -179 -199q-66 -127 -66 -294t66 -294q67 -129 179 -200q114 -72 261 -72zM457 1536l245 262h205l246 -262h-180l-168 164l-168 -164h-180zM956 1858q-87 0 -182 57q-44 27 -67 36
q-24 9 -48 9q-65 0 -65 -68v-32h-137v53q0 81 54 131q53 49 142 49t183 -57q45 -28 68 -36q25 -9 46 -9q66 0 66 67v33h137v-53q0 -81 -53 -131q-52 -49 -144 -49z" />
    <glyph glyph-name="uni1ED7" unicode="&#x1ed7;" horiz-adv-x="1187" 
d="M594 -29q-146 0 -262 70q-114 69 -179 195q-65 125 -65 288q0 164 65 289q65 126 179 195t262 69q149 0 263 -69q112 -68 178 -195q65 -125 65 -289q0 -163 -65 -288q-66 -127 -178 -195q-116 -70 -263 -70zM594 139q141 0 230 106t89 279q0 175 -89 281
q-88 104 -230 104t-230 -104q-90 -107 -90 -281q0 -172 90 -279q89 -106 230 -106zM260 1198l234 297h200l234 -297h-172l-162 195l-162 -195h-172zM741 1573q-46 0 -81 14q-42 17 -97 47q-43 26 -64 36q-22 11 -46 11q-60 0 -60 -71v-35h-137v57q0 83 50 135t140 52
q42 0 82 -14q41 -14 97 -48q38 -22 65 -36q22 -11 45 -11q60 0 60 72v35h137v-58q0 -81 -50 -134q-49 -52 -141 -52z" />
    <glyph glyph-name="uni1ED8" unicode="&#x1ed8;" horiz-adv-x="1609" 
d="M805 -31q-153 0 -283 56t-223 155q-92 98 -146 236q-53 136 -53 297t53 297t146 235q95 101 223 156t283 55q154 0 282 -55q130 -56 224 -156q93 -99 146 -235q52 -134 52 -297t-52 -297q-54 -138 -146 -236q-93 -98 -224 -155q-130 -56 -282 -56zM805 147q148 0 262 72
t179 200t65 294t-65 294q-64 126 -179 199q-114 72 -262 72q-147 0 -261 -72q-113 -71 -179 -199q-66 -127 -66 -294t66 -294q67 -129 179 -200q114 -72 261 -72zM444 1577l254 301h213l254 -301h-192l-168 182l-168 -182h-193zM805 -387q-51 0 -88 37t-37 88q0 53 37 89
t88 36q53 0 89 -36t36 -89q0 -50 -36 -88q-36 -37 -89 -37z" />
    <glyph glyph-name="uni1ED9" unicode="&#x1ed9;" horiz-adv-x="1187" 
d="M594 -29q-146 0 -262 70q-114 69 -179 195q-65 125 -65 288q0 164 65 289q65 126 179 195t262 69q149 0 263 -69q112 -68 178 -195q65 -125 65 -289q0 -163 -65 -288q-66 -127 -178 -195q-116 -70 -263 -70zM594 139q141 0 230 106t89 279q0 175 -89 281
q-88 104 -230 104t-230 -104q-90 -107 -90 -281q0 -172 90 -279q89 -106 230 -106zM246 1198l246 318h204l246 -318h-184l-164 197l-164 -197h-184zM594 -387q-51 0 -88 37t-37 88q0 53 37 89q38 36 88 36q53 0 89 -36t36 -89q0 -50 -36 -88q-36 -37 -89 -37z" />
    <glyph glyph-name="uni1EDA" unicode="&#x1eda;" horiz-adv-x="1628" 
d="M1509 713q0 -163 -52 -297q-54 -138 -146 -236q-93 -98 -224 -155q-130 -56 -282 -56q-153 0 -283 56t-223 155q-92 98 -146 236q-53 136 -53 297t53 297t146 235q95 101 223 156t283 55q65 0 119 -10q63 -12 110 -25q33 -7 60 -11q37 -5 59 -5h12q181 0 181 178v78h174
v-92q0 -124 -59 -203q-58 -77 -173 -98q102 -99 162 -241q59 -140 59 -314zM299 713q0 -167 66 -294q67 -129 179 -200q114 -72 261 -72q148 0 262 72t179 200t65 294t-65 294q-64 126 -179 199q-114 72 -262 72q-147 0 -261 -72q-113 -71 -179 -199q-66 -127 -66 -294z
M883 1577h-181l181 301h202z" />
    <glyph glyph-name="uni1EDB" unicode="&#x1edb;" horiz-adv-x="1214" 
d="M1100 524q0 -163 -65 -288q-66 -127 -178 -195q-116 -70 -263 -70q-146 0 -262 70q-114 69 -179 195q-65 125 -65 288q0 164 65 289q65 126 179 195t262 69q51 0 99 -9q45 -8 93 -26q9 -3 37 -10q16 -4 39 -4q78 0 111 44t33 120v78h163v-92q0 -232 -192 -277
q59 -71 91 -168q32 -98 32 -209zM274 524q0 -172 90 -279q89 -106 230 -106t230 106t89 279q0 175 -89 281q-88 104 -230 104t-230 -104q-90 -107 -90 -281zM659 1198h-176l156 318h197z" />
    <glyph glyph-name="uni1EDC" unicode="&#x1edc;" horiz-adv-x="1628" 
d="M1509 713q0 -163 -52 -297q-54 -138 -146 -236q-93 -98 -224 -155q-130 -56 -282 -56q-153 0 -283 56t-223 155q-92 98 -146 236q-53 136 -53 297t53 297t146 235q95 101 223 156t283 55q65 0 119 -10q63 -12 110 -25q33 -7 60 -11q37 -5 59 -5h12q181 0 181 178v78h174
v-92q0 -124 -59 -203q-58 -77 -173 -98q102 -99 162 -241q59 -140 59 -314zM299 713q0 -167 66 -294q67 -129 179 -200q114 -72 261 -72q148 0 262 72t179 200t65 294t-65 294q-64 126 -179 199q-114 72 -262 72q-147 0 -261 -72q-113 -71 -179 -199q-66 -127 -66 -294z
M727 1577l-203 301h203l180 -301h-180z" />
    <glyph glyph-name="uni1EDD" unicode="&#x1edd;" horiz-adv-x="1214" 
d="M1100 524q0 -163 -65 -288q-66 -127 -178 -195q-116 -70 -263 -70q-146 0 -262 70q-114 69 -179 195q-65 125 -65 288q0 164 65 289q65 126 179 195t262 69q51 0 99 -9q45 -8 93 -26q9 -3 37 -10q16 -4 39 -4q78 0 111 44t33 120v78h163v-92q0 -232 -192 -277
q59 -71 91 -168q32 -98 32 -209zM274 524q0 -172 90 -279q89 -106 230 -106t230 106t89 279q0 175 -89 281q-88 104 -230 104t-230 -104q-90 -107 -90 -281zM508 1198l-176 318h196l156 -318h-176z" />
    <glyph glyph-name="uni1EDE" unicode="&#x1ede;" horiz-adv-x="1628" 
d="M1509 713q0 -163 -52 -297q-54 -138 -146 -236q-93 -98 -224 -155q-130 -56 -282 -56q-153 0 -283 56t-223 155q-92 98 -146 236q-53 136 -53 297t53 297t146 235q95 101 223 156t283 55q65 0 119 -10q63 -12 110 -25q33 -7 60 -11q37 -5 59 -5h12q181 0 181 178v78h174
v-92q0 -124 -59 -203q-58 -77 -173 -98q102 -99 162 -241q59 -140 59 -314zM299 713q0 -167 66 -294q67 -129 179 -200q114 -72 261 -72q148 0 262 72t179 200t65 294t-65 294q-64 126 -179 199q-114 72 -262 72q-147 0 -261 -72q-113 -71 -179 -199q-66 -127 -66 -294z
M657 1655l86 24q62 18 98 38q33 19 33 55q0 61 -100 61h-172v129h184q118 0 180 -49t62 -139q0 -96 -66 -139q-68 -45 -180 -79l-90 -26z" />
    <glyph glyph-name="uni1EDF" unicode="&#x1edf;" horiz-adv-x="1214" 
d="M1100 524q0 -163 -65 -288q-66 -127 -178 -195q-116 -70 -263 -70q-146 0 -262 70q-114 69 -179 195q-65 125 -65 288q0 164 65 289q65 126 179 195t262 69q51 0 99 -9q45 -8 93 -26q9 -3 37 -10q16 -4 39 -4q78 0 111 44t33 120v78h163v-92q0 -232 -192 -277
q59 -71 91 -168q32 -98 32 -209zM274 524q0 -172 90 -279q89 -106 230 -106t230 106t89 279q0 175 -89 281q-88 104 -230 104t-230 -104q-90 -107 -90 -281zM471 1161l-35 125l86 25q62 18 98 38q33 19 33 54q0 61 -100 61h-172v129h184q117 0 179 -49q63 -50 63 -139
q0 -94 -67 -138q-68 -45 -179 -79z" />
    <glyph glyph-name="uni1EE0" unicode="&#x1ee0;" horiz-adv-x="1628" 
d="M1509 713q0 -163 -52 -297q-54 -138 -146 -236q-93 -98 -224 -155q-130 -56 -282 -56q-153 0 -283 56t-223 155q-92 98 -146 236q-53 136 -53 297t53 297t146 235q95 101 223 156t283 55q65 0 119 -10q63 -12 110 -25q33 -7 60 -11q37 -5 59 -5h12q181 0 181 178v78h174
v-92q0 -124 -59 -203q-58 -77 -173 -98q102 -99 162 -241q59 -140 59 -314zM299 713q0 -167 66 -294q67 -129 179 -200q114 -72 261 -72q148 0 262 72t179 200t65 294t-65 294q-64 126 -179 199q-114 72 -262 72q-147 0 -261 -72q-113 -71 -179 -199q-66 -127 -66 -294z
M963 1575q-39 0 -83 12q-46 13 -100 49q-37 26 -65 40q-24 12 -49 12q-70 0 -70 -70v-39h-147v68q0 90 55 144t143 54q41 0 84 -12t98 -49q36 -24 66 -39q24 -12 49 -12q70 0 70 67v41h147v-67q0 -91 -54 -145t-144 -54z" />
    <glyph glyph-name="uni1EE1" unicode="&#x1ee1;" horiz-adv-x="1214" 
d="M1100 524q0 -163 -65 -288q-66 -127 -178 -195q-116 -70 -263 -70q-146 0 -262 70q-114 69 -179 195q-65 125 -65 288q0 164 65 289q65 126 179 195t262 69q51 0 99 -9q45 -8 93 -26q9 -3 37 -10q16 -4 39 -4q78 0 111 44t33 120v78h163v-92q0 -232 -192 -277
q59 -71 91 -168q32 -98 32 -209zM274 524q0 -172 90 -279q89 -106 230 -106t230 106t89 279q0 175 -89 281q-88 104 -230 104t-230 -104q-90 -107 -90 -281zM719 1202q-45 0 -78 13q-35 13 -90 57q-41 29 -50 35q-17 10 -38 10q-47 0 -47 -60v-51h-146v68q0 90 48 143
t131 53q44 0 77 -13q37 -14 90 -56q36 -27 51 -35q17 -10 38 -10q47 0 47 59v51h145v-67q0 -88 -47 -143q-46 -54 -131 -54z" />
    <glyph glyph-name="uni1EE2" unicode="&#x1ee2;" horiz-adv-x="1628" 
d="M1509 713q0 -163 -52 -297q-54 -138 -146 -236q-93 -98 -224 -155q-130 -56 -282 -56q-153 0 -283 56t-223 155q-92 98 -146 236q-53 136 -53 297t53 297t146 235q95 101 223 156t283 55q65 0 119 -10q63 -12 110 -25q33 -7 60 -11q37 -5 59 -5h12q181 0 181 178v78h174
v-92q0 -124 -59 -203q-58 -77 -173 -98q102 -99 162 -241q59 -140 59 -314zM299 713q0 -167 66 -294q67 -129 179 -200q114 -72 261 -72q148 0 262 72t179 200t65 294t-65 294q-64 126 -179 199q-114 72 -262 72q-147 0 -261 -72q-113 -71 -179 -199q-66 -127 -66 -294z
M805 -387q-51 0 -88 37t-37 88q0 53 37 89t88 36q53 0 89 -36t36 -89q0 -50 -36 -88q-36 -37 -89 -37z" />
    <glyph glyph-name="uni1EE3" unicode="&#x1ee3;" horiz-adv-x="1214" 
d="M1100 524q0 -163 -65 -288q-66 -127 -178 -195q-116 -70 -263 -70q-146 0 -262 70q-114 69 -179 195q-65 125 -65 288q0 164 65 289q65 126 179 195t262 69q51 0 99 -9q45 -8 93 -26q9 -3 37 -10q16 -4 39 -4q78 0 111 44t33 120v78h163v-92q0 -232 -192 -277
q59 -71 91 -168q32 -98 32 -209zM274 524q0 -172 90 -279q89 -106 230 -106t230 106t89 279q0 175 -89 281q-88 104 -230 104t-230 -104q-90 -107 -90 -281zM592 -387q-51 0 -88 37t-37 88q0 53 37 89t88 36q53 0 89 -36t36 -89q0 -50 -36 -88q-36 -37 -89 -37z" />
    <glyph glyph-name="uni1EE4" unicode="&#x1ee4;" horiz-adv-x="1519" 
d="M760 -31q-195 0 -328 79q-134 80 -201 223t-67 337v817h194v-800q0 -219 98 -349q98 -129 304 -129t304 129q97 128 97 349v800h195v-817q0 -192 -68 -337q-67 -144 -199 -223q-131 -79 -329 -79zM760 -387q-51 0 -88 37t-37 88q0 53 37 89q38 36 88 36q53 0 89 -36
t36 -89q0 -50 -36 -88q-36 -37 -89 -37z" />
    <glyph glyph-name="uni1EE5" unicode="&#x1ee5;" horiz-adv-x="1169" 
d="M834 424v625h182v-1049h-178v139q-52 -81 -131 -124q-80 -44 -179 -44q-177 0 -281 119t-104 311v648h183v-625q0 -126 66 -206q66 -79 181 -79q108 0 185 77q76 76 76 208zM586 -387q-51 0 -88 37t-37 88q0 53 37 89q38 36 88 36q53 0 89 -36t36 -89q0 -50 -36 -88
q-36 -37 -89 -37z" />
    <glyph glyph-name="uni1EE6" unicode="&#x1ee6;" horiz-adv-x="1519" 
d="M760 -31q-195 0 -328 79q-134 80 -201 223t-67 337v817h194v-800q0 -219 98 -349q98 -129 304 -129t304 129q97 128 97 349v800h195v-817q0 -192 -68 -337q-67 -144 -199 -223q-131 -79 -329 -79zM612 1655l86 24q62 18 98 38q33 19 33 55q0 61 -100 61h-172v129h184
q118 0 180 -49t62 -139q0 -95 -67 -139q-68 -45 -179 -79l-90 -26z" />
    <glyph glyph-name="uni1EE7" unicode="&#x1ee7;" horiz-adv-x="1169" 
d="M834 424v625h182v-1049h-178v139q-52 -81 -131 -124q-80 -44 -179 -44q-177 0 -281 119t-104 311v648h183v-625q0 -126 66 -206q66 -79 181 -79q108 0 185 77q76 76 76 208zM469 1161l-35 125l86 25q60 17 97 38q34 19 34 54q0 61 -100 61h-172v129h184q117 0 179 -49
q63 -50 63 -139q0 -94 -67 -138q-68 -45 -179 -79z" />
    <glyph glyph-name="uni1EE8" unicode="&#x1ee8;" horiz-adv-x="1566" 
d="M1356 608q0 -192 -68 -337q-67 -144 -199 -223q-131 -79 -329 -79q-195 0 -328 79q-134 80 -201 223t-67 337v817h194v-800q0 -219 98 -349q98 -129 304 -129t304 129q97 128 97 349v800h148q159 0 159 179v77h174v-92q0 -143 -72 -224q-71 -80 -214 -91v-666zM838 1577
h-181l181 301h202z" />
    <glyph glyph-name="uni1EE9" unicode="&#x1ee9;" horiz-adv-x="1208" 
d="M528 -29q-178 0 -281 118q-104 119 -104 308v652h183v-629q0 -125 66 -203t181 -78q109 0 185 75t76 206v629h120q146 0 146 163v78h164v-92q0 -265 -248 -289v-909h-178v137q-51 -78 -131 -122t-179 -44zM655 1198h-176l156 318h196z" />
    <glyph glyph-name="uni1EEA" unicode="&#x1eea;" horiz-adv-x="1566" 
d="M1356 608q0 -192 -68 -337q-67 -144 -199 -223q-131 -79 -329 -79q-195 0 -328 79q-134 80 -201 223t-67 337v817h194v-800q0 -219 98 -349q98 -129 304 -129t304 129q97 128 97 349v800h148q159 0 159 179v77h174v-92q0 -143 -72 -224q-71 -80 -214 -91v-666zM682 1577
l-203 301h203l180 -301h-180z" />
    <glyph glyph-name="uni1EEB" unicode="&#x1eeb;" horiz-adv-x="1208" 
d="M528 -29q-178 0 -281 118q-104 119 -104 308v652h183v-629q0 -125 66 -203t181 -78q109 0 185 75t76 206v629h120q146 0 146 163v78h164v-92q0 -265 -248 -289v-909h-178v137q-51 -78 -131 -122t-179 -44zM504 1198l-176 318h196l156 -318h-176z" />
    <glyph glyph-name="uni1EEC" unicode="&#x1eec;" horiz-adv-x="1566" 
d="M1356 608q0 -192 -68 -337q-67 -144 -199 -223q-131 -79 -329 -79q-195 0 -328 79q-134 80 -201 223t-67 337v817h194v-800q0 -219 98 -349q98 -129 304 -129t304 129q97 128 97 349v800h148q159 0 159 179v77h174v-92q0 -143 -72 -224q-71 -80 -214 -91v-666zM612 1655
l86 24q62 18 98 38q33 19 33 55q0 61 -100 61h-172v129h184q118 0 180 -49t62 -139q0 -95 -67 -139q-68 -45 -179 -79l-90 -26z" />
    <glyph glyph-name="uni1EED" unicode="&#x1eed;" horiz-adv-x="1208" 
d="M528 -29q-178 0 -281 118q-104 119 -104 308v652h183v-629q0 -125 66 -203t181 -78q109 0 185 75t76 206v629h120q146 0 146 163v78h164v-92q0 -265 -248 -289v-909h-178v137q-51 -78 -131 -122t-179 -44zM467 1161l-35 125l86 25q60 17 97 38q34 19 34 54q0 61 -100 61
h-172v129h184q117 0 179 -49q63 -50 63 -139q0 -94 -67 -138q-68 -45 -179 -79z" />
    <glyph glyph-name="uni1EEE" unicode="&#x1eee;" horiz-adv-x="1566" 
d="M1356 608q0 -192 -68 -337q-67 -144 -199 -223q-131 -79 -329 -79q-195 0 -328 79q-134 80 -201 223t-67 337v817h194v-800q0 -219 98 -349q98 -129 304 -129t304 129q97 128 97 349v800h148q159 0 159 179v77h174v-92q0 -143 -72 -224q-71 -80 -214 -91v-666zM918 1575
q-40 0 -83 12q-46 13 -100 49q-37 26 -65 40q-24 12 -49 12q-70 0 -70 -70v-39h-148v68q0 90 56 144q55 54 143 54q40 0 84 -12q43 -12 98 -49q36 -24 66 -39q24 -12 49 -12q70 0 70 67v41h147v-67q0 -91 -54 -145t-144 -54z" />
    <glyph glyph-name="uni1EEF" unicode="&#x1eef;" horiz-adv-x="1208" 
d="M528 -29q-178 0 -281 118q-104 119 -104 308v652h183v-629q0 -125 66 -203t181 -78q109 0 185 75t76 206v629h120q146 0 146 163v78h164v-92q0 -265 -248 -289v-909h-178v137q-51 -78 -131 -122t-179 -44zM715 1202q-45 0 -78 13q-35 13 -90 57q-41 29 -50 35
q-17 10 -38 10q-47 0 -47 -60v-51h-146v68q0 90 48 143t130 53q45 0 78 -13q37 -14 90 -56q36 -27 51 -35q17 -10 37 -10q48 0 48 59v51h145v-67q0 -88 -47 -143q-46 -54 -131 -54z" />
    <glyph glyph-name="uni1EF0" unicode="&#x1ef0;" horiz-adv-x="1566" 
d="M1356 608q0 -192 -68 -337q-67 -144 -199 -223q-131 -79 -329 -79q-195 0 -328 79q-134 80 -201 223t-67 337v817h194v-800q0 -219 98 -349q98 -129 304 -129t304 129q97 128 97 349v800h148q159 0 159 179v77h174v-92q0 -143 -72 -224q-71 -80 -214 -91v-666zM760 -387
q-51 0 -88 37t-37 88q0 53 37 89q38 36 88 36q53 0 89 -36t36 -89q0 -50 -36 -88q-36 -37 -89 -37z" />
    <glyph glyph-name="uni1EF1" unicode="&#x1ef1;" horiz-adv-x="1208" 
d="M528 -29q-178 0 -281 118q-104 119 -104 308v652h183v-629q0 -125 66 -203t181 -78q109 0 185 75t76 206v629h120q146 0 146 163v78h164v-92q0 -265 -248 -289v-909h-178v137q-51 -78 -131 -122t-179 -44zM586 -387q-51 0 -88 37t-37 88q0 53 37 89q38 36 88 36
q53 0 89 -36t36 -89q0 -50 -36 -88q-36 -37 -89 -37z" />
    <glyph glyph-name="Ygrave" unicode="&#x1ef2;" horiz-adv-x="1318" 
d="M563 0v549l-532 876h225l410 -690l403 690h217l-528 -872v-553h-195zM580 1577l-203 301h203l180 -301h-180z" />
    <glyph glyph-name="ygrave" unicode="&#x1ef3;" horiz-adv-x="1069" 
d="M268 -420l174 420l-415 1049h206l308 -834l303 834h198l-579 -1469h-195zM463 1198l-176 318h196l156 -318h-176z" />
    <glyph glyph-name="uni1EF4" unicode="&#x1ef4;" horiz-adv-x="1318" 
d="M563 0v549l-532 876h225l410 -690l403 690h217l-528 -872v-553h-195zM662 -387q-52 0 -89 37q-36 36 -36 88q0 54 36 89q37 36 89 36q53 0 89 -36q35 -35 35 -89q0 -52 -35 -88q-36 -37 -89 -37z" />
    <glyph glyph-name="uni1EF5" unicode="&#x1ef5;" horiz-adv-x="1069" 
d="M268 -420l174 420l-415 1049h206l308 -834l303 834h198l-579 -1469h-195zM801 -387q-51 0 -88 37t-37 88q0 53 37 89t88 36q53 0 89 -36t36 -89q0 -50 -36 -88q-36 -37 -89 -37z" />
    <glyph glyph-name="uni1EF6" unicode="&#x1ef6;" horiz-adv-x="1318" 
d="M563 0v549l-532 876h225l410 -690l403 690h217l-528 -872v-553h-195zM510 1655l86 24q60 17 97 38q34 19 34 55q0 61 -100 61h-172v129h184q117 0 179 -49q63 -50 63 -139q0 -95 -67 -139q-68 -45 -179 -79l-90 -26z" />
    <glyph glyph-name="uni1EF7" unicode="&#x1ef7;" horiz-adv-x="1069" 
d="M268 -420l174 420l-415 1049h206l308 -834l303 834h198l-579 -1469h-195zM426 1161l-35 125l86 25q60 17 97 38q34 19 34 54q0 61 -100 61h-172v129h184q117 0 179 -49q63 -50 63 -139q0 -94 -67 -138q-68 -45 -179 -79z" />
    </font>
</defs>
</svg>
